<svg xmlns="http://www.w3.org/2000/svg" xmlns:se="http://svg-edit.googlecode.com" xmlns:xlink="http://www.w3.org/1999/xlink" xmlns:dc="http://purl.org/dc/elements/1.1/" xmlns:cc="http://creativecommons.org/ns#" xmlns:rdf="http://www.w3.org/1999/02/22-rdf-syntax-ns#" xmlns:inkscape="http://www.inkscape.org/namespaces/inkscape" width="300" height="300" style="">                                    <title>my vector image</title>                                    <!-- Created with Vector Paint - http://www.vectorpaint.yaks.com/ https://chrome.google.com/webstore/detail/hnbpdiengicdefcjecjbnjnoifekhgdo -->                                    <rect id="backgroundrect" width="100%" height="100%" x="0" y="0" fill="#FFFFFF" stroke="none" class="" style="" opacity="0.02"/>                                <g class="currentLayer" style=""><title>Layer 1</title><path fill="#4a90d6" fill-opacity="1" stroke="#222222" stroke-opacity="1" stroke-width="2" stroke-dasharray="none" stroke-linejoin="round" stroke-linecap="butt" stroke-dashoffset="" fill-rule="nonzero" opacity="1" marker-start="" marker-mid="" marker-end="" id="svg_1" d="M28.749997867271304,239.82142432725865 " style="color: rgb(0, 0, 0);"/><path fill="#4a90d6" fill-opacity="1" stroke="#222222" stroke-opacity="1" stroke-width="2" stroke-dasharray="none" stroke-linejoin="round" stroke-linecap="butt" stroke-dashoffset="" fill-rule="nonzero" opacity="1" marker-start="" marker-mid="" marker-end="" id="svg_2" d="M22.49999796040356,209.8214247742935 " style="color: rgb(0, 0, 0);"/><path fill="#4a90d6" fill-opacity="1" stroke="#222222" stroke-opacity="1" stroke-width="2" stroke-dasharray="none" stroke-linejoin="round" stroke-linecap="butt" stroke-dashoffset="" fill-rule="nonzero" opacity="1" marker-start="" marker-mid="" marker-end="" id="svg_3" d="M243.7499946635217,276.07142378709153 " style="color: rgb(0, 0, 0);"/><path fill="#4a90d6" fill-opacity="1" stroke="#222222" stroke-opacity="1" stroke-width="2" stroke-dasharray="none" stroke-linejoin="round" stroke-linecap="butt" stroke-dashoffset="" fill-rule="nonzero" opacity="1" marker-start="" marker-mid="" marker-end="" id="svg_4" d="M9.999998146668077,186.071425128196 " style="color: rgb(0, 0, 0);"/><path fill="#4a90d6" fill-opacity="1" stroke="#222222" stroke-opacity="1" stroke-width="2" stroke-dasharray="none" stroke-linejoin="round" stroke-linecap="butt" stroke-dashoffset="" fill-rule="nonzero" opacity="1" marker-start="" marker-mid="" marker-end="" id="svg_5" d="M64.99999732710421,34.82142738199663 " style="color: rgb(0, 0, 0);"/><path fill="#4a90d6" fill-opacity="1" stroke="#222222" stroke-opacity="1" stroke-width="2" stroke-dasharray="none" stroke-linejoin="round" stroke-linecap="butt" stroke-dashoffset="" fill-rule="nonzero" opacity="1" marker-start="" marker-mid="" marker-end="" id="svg_6" d="M51.24999753199518,44.821427232985016 " style="color: rgb(0, 0, 0);"/><path fill="#4a90d6" fill-opacity="1" stroke="#222222" stroke-opacity="1" stroke-width="2" stroke-dasharray="none" stroke-linejoin="round" stroke-linecap="butt" stroke-dashoffset="" fill-rule="nonzero" opacity="1" marker-start="" marker-mid="" marker-end="" id="svg_7" d="M74.9999971780926,51.07142713985276 " style="color: rgb(0, 0, 0);"/><path fill="#ffda21" fill-opacity="1" stroke="#ffda21" stroke-opacity="1" stroke-width="2" stroke-dasharray="none" stroke-linejoin="round" stroke-linecap="butt" stroke-dashoffset="" fill-rule="nonzero" opacity="1" marker-start="" marker-mid="" marker-end="" id="svg_8" d="M57.499997513368726,42.32142743787598 C103.74999682419002,29.821427624140497 282.4999941606075,26.071427680019852 283.74999414198106,78.57142689770889 C284.9999941233546,131.0714261153979 252.4999946076424,271.07142402923546 179.99999568797654,261.07142417824707 C107.49999676831067,251.07142432725865 28.74999794177711,251.07142432725857 28.74999794177711,198.57142510956956 C28.74999794177711,146.07142589188055 11.249998202547431,54.82142725161147 57.499997513368726,42.32142743787598 z" style="color: rgb(0, 0, 0);" class=""/><path fill="#ffc721" fill-opacity="1" stroke="#ffda21" stroke-opacity="1" stroke-width="0" stroke-dasharray="none" stroke-linejoin="round" stroke-linecap="butt" stroke-dashoffset="" fill-rule="nonzero" opacity="1" marker-start="" marker-mid="" marker-end="" d="M49,129.75 C49,121.18646408839778 56.607734806629836,114.25 66,114.25 C75.39226519337016,114.25 83,121.18646408839778 83,129.75 C83,138.31353591160223 75.39226519337016,145.25 66,145.25 C56.607734806629836,145.25 49,138.31353591160223 49,129.75 z" id="svg_9" class=""/><path fill="#ffc721" fill-opacity="1" stroke="#ffda21" stroke-opacity="1" stroke-width="0" stroke-dasharray="none" stroke-linejoin="round" stroke-linecap="butt" stroke-dashoffset="" fill-rule="nonzero" opacity="1" marker-start="" marker-mid="" marker-end="" d="M142.75,67.25000058928896 C142.75,61.448895720204746 147.2810775881314,56.750000776246566 152.8750005364418,56.750000776246566 C158.4689234847522,56.750000776246566 163.0000010728836,61.448895720204746 163.0000010728836,67.25000058928896 C163.0000010728836,73.05110545837317 158.4689234847522,77.75000040233135 152.8750005364418,77.75000040233135 C147.2810775881314,77.75000040233135 142.75,73.05110545837317 142.75,67.25000058928896 z" class="" id="svg_12"/><path fill="#ffc721" fill-opacity="1" stroke="#ffda21" stroke-opacity="1" stroke-width="0" stroke-dasharray="none" stroke-linejoin="round" stroke-linecap="butt" stroke-dashoffset="" fill-rule="nonzero" opacity="1" marker-start="" marker-mid="" marker-end="" d="M179,119.75000058928896 C179,113.94889572020475 183.5310775881314,109.25000077624657 189.1250005364418,109.25000077624657 C194.7189234847522,109.25000077624657 199.2500010728836,113.94889572020475 199.2500010728836,119.75000058928896 C199.2500010728836,125.55110545837317 194.7189234847522,130.25000040233135 189.1250005364418,130.25000040233135 C183.5310775881314,130.25000040233135 179,125.55110545837317 179,119.75000058928896 z" class="" id="svg_16"/><path fill="#ffc721" fill-opacity="1" stroke="#ffda21" stroke-opacity="1" stroke-width="0" stroke-dasharray="none" stroke-linejoin="round" stroke-linecap="butt" stroke-dashoffset="" fill-rule="nonzero" opacity="1" marker-start="" marker-mid="" marker-end="" d="M182.75,164.12500101732815 C182.75,151.76312291612163 196.51104981266985,141.75000165414446 213.50000019868207,141.75000165414446 C230.4889505846943,141.75000165414446 244.25000039736415,151.76312291612163 244.25000039736415,164.12500101732815 C244.25000039736415,176.4868791185346 230.4889505846943,186.50000038051178 213.50000019868207,186.50000038051178 C196.51104981266985,186.50000038051178 182.75,176.4868791185346 182.75,164.12500101732815 z" class="" id="svg_18"/><path fill="#ffc721" fill-opacity="1" stroke="#ffda21" stroke-opacity="1" stroke-width="0" stroke-dasharray="none" stroke-linejoin="round" stroke-linecap="butt" stroke-dashoffset="" fill-rule="nonzero" opacity="1" marker-start="" marker-mid="" marker-end="" d="M66.5,67.25000023193982 C66.5,62.83011060103384 70.47168524440744,59.25 75.3750003609598,59.25 C80.2783154775122,59.25 84.2500007219196,62.83011060103384 84.2500007219196,67.25000023193982 C84.2500007219196,71.66988986284579 80.2783154775122,75.25000046387963 75.3750003609598,75.25000046387963 C70.47168524440744,75.25000046387963 66.5,71.66988986284579 66.5,67.25000023193982 z" class="" id="svg_10"/><path fill="#ffc721" fill-opacity="1" stroke="#ffda21" stroke-opacity="1" stroke-width="0" stroke-dasharray="none" stroke-linejoin="round" stroke-linecap="butt" stroke-dashoffset="" fill-rule="nonzero" opacity="1" marker-start="" marker-mid="" marker-end="" d="M104,175.375001225636 C104,161.6319066258371 111.04834262264528,150.5 119.75000018146653,150.5 C128.45165774028786,150.5 135.50000036293304,161.6319066258371 135.50000036293304,175.375001225636 C135.50000036293304,189.11809582543492 128.45165774028786,200.25000245127202 119.75000018146653,200.25000245127202 C111.04834262264528,200.25000245127202 104,189.11809582543492 104,175.375001225636 z" class="" id="svg_13"/><path fill="#ffc721" fill-opacity="1" stroke="#ffda21" stroke-opacity="1" stroke-width="0" stroke-dasharray="none" stroke-linejoin="round" stroke-linecap="butt" stroke-dashoffset="" fill-rule="nonzero" opacity="1" marker-start="" marker-mid="" marker-end="" d="M120.25,190.375001225636 C120.25,176.6319066258371 127.2983426226453,165.5 136.00000018146653,165.5 C144.70165774028786,165.5 151.75000036293304,176.6319066258371 151.75000036293304,190.375001225636 C151.75000036293304,204.11809582543492 144.70165774028786,215.25000245127202 136.00000018146653,215.25000245127202 C127.2983426226453,215.25000245127202 120.25,204.11809582543492 120.25,190.375001225636 z" class="" id="svg_21"/><path fill="#ffc721" fill-opacity="1" stroke="#ffda21" stroke-opacity="1" stroke-width="0" stroke-dasharray="none" stroke-linejoin="round" stroke-linecap="butt" stroke-dashoffset="" fill-rule="nonzero" opacity="1" marker-start="" marker-mid="" marker-end="" d="M55.25,197.25000042993202 C55.25,190.7582874852182 59.50138143116459,185.5 64.75000048198504,185.5 C69.99861953280552,185.5 74.25000096397005,190.7582874852182 74.25000096397005,197.25000042993202 C74.25000096397005,203.74171337464585 69.99861953280552,209.00000085986403 64.75000048198504,209.00000085986403 C59.50138143116459,209.00000085986403 55.25,203.74171337464585 55.25,197.25000042993202 z" class="" id="svg_14"/><path fill="#ffc721" fill-opacity="1" stroke="#ffda21" stroke-opacity="1" stroke-width="0" stroke-dasharray="none" stroke-linejoin="round" stroke-linecap="butt" stroke-dashoffset="" fill-rule="nonzero" opacity="1" marker-start="" marker-mid="" marker-end="" d="M187.75,69.75000042993202 C187.75,63.258287485218204 192.0013814311646,58 197.25000048198504,58 C202.49861953280552,58 206.75000096397005,63.258287485218204 206.75000096397005,69.75000042993202 C206.75000096397005,76.24171337464585 202.49861953280552,81.50000085986403 197.25000048198504,81.50000085986403 C192.0013814311646,81.50000085986403 187.75,76.24171337464585 187.75,69.75000042993202 z" class="" id="svg_22"/><path fill="#ffc721" fill-opacity="1" stroke="#ffda21" stroke-opacity="1" stroke-width="0" stroke-dasharray="none" stroke-linejoin="round" stroke-linecap="butt" stroke-dashoffset="" fill-rule="nonzero" opacity="1" marker-start="" marker-mid="" marker-end="" d="M216.50000026192458,103.76785672115648 C216.50000026192458,93.67511820118048 225.22651960103906,85.5 236.00000026661246,85.5 C246.77348093218586,85.5 255.50000027130034,93.67511820118048 255.50000027130034,103.76785672115648 C255.50000027130034,113.86059524113244 246.77348093218586,122.03571344231295 236.00000026661246,122.03571344231295 C225.22651960103906,122.03571344231295 216.50000026192458,113.86059524113244 216.50000026192458,103.76785672115648 z" class="" id="svg_11"/><path fill="#ffc721" fill-opacity="1" stroke="#ffda21" stroke-opacity="1" stroke-width="0" stroke-dasharray="none" stroke-linejoin="round" stroke-linecap="butt" stroke-dashoffset="" fill-rule="nonzero" opacity="1" marker-start="" marker-mid="" marker-end="" d="M166.50000026192458,221.26785672115648 C166.50000026192458,211.17511820118048 175.22651960103906,203 186.00000026661246,203 C196.77348093218586,203 205.50000027130034,211.17511820118048 205.50000027130034,221.26785672115648 C205.50000027130034,231.36059524113244 196.77348093218586,239.53571344231295 186.00000026661246,239.53571344231295 C175.22651960103906,239.53571344231295 166.50000026192458,231.36059524113244 166.50000026192458,221.26785672115648 z" class="" id="svg_17"/><path fill="#ffc721" fill-opacity="1" stroke="#ffda21" stroke-opacity="1" stroke-width="0" stroke-dasharray="none" stroke-linejoin="round" stroke-linecap="butt" stroke-dashoffset="" fill-rule="nonzero" opacity="1" marker-start="" marker-mid="" marker-end="" d="M95.25000035426979,104.39285786002712 C95.25000035426979,97.40785351747067 107.05317709933965,91.75 121.62500024140115,91.75 C136.19682338346266,91.75 148.00000012853252,97.40785351747067 148.00000012853252,104.39285786002712 C148.00000012853252,111.37786220258354 136.19682338346266,117.03571572005424 121.62500024140115,117.03571572005424 C107.05317709933965,117.03571572005424 95.25000035426979,111.37786220258354 95.25000035426979,104.39285786002712 z" class="" id="svg_15" filter=""/><path fill="#ffc721" fill-opacity="1" stroke="#ffda21" stroke-opacity="1" stroke-width="0" stroke-dasharray="none" stroke-linejoin="round" stroke-linecap="butt" stroke-dashoffset="" fill-rule="nonzero" opacity="1" marker-start="" marker-mid="" marker-end="" d="M129,177.5 C129,177.22375690607734 129,177 129,177 C129,177 129,177.22375690607734 129,177.5 C129,177.77624309392266 129,178 129,178 C129,178 129,177.77624309392266 129,177.5 Z" id="svg_19"/></g><defs><filter id="f024" inkscape:label="Oil painting" inkscape:menu="Image effects" inkscape:menu-tooltip="Simulate oil painting style" color-interpolation-filters="sRGB">
            <feMorphology radius="2" in="SourceGraphic" result="result0"/>
            <feTurbulence numOctaves="1" baseFrequency=".078" result="result91"/>
            <feDisplacementMap in="result0" scale="6.3" xChannelSelector="R" yChannelSelector="G" in2="result91"/>
        </filter></defs></svg>