<svg xmlns="http://www.w3.org/2000/svg" xmlns:se="http://svg-edit.googlecode.com" xmlns:xlink="http://www.w3.org/1999/xlink" xmlns:dc="http://purl.org/dc/elements/1.1/" xmlns:cc="http://creativecommons.org/ns#" xmlns:rdf="http://www.w3.org/1999/02/22-rdf-syntax-ns#" xmlns:inkscape="http://www.inkscape.org/namespaces/inkscape" width="300" height="300" style="">
                                    <title>my vector image</title>
                                    <!-- Created with Vector Paint - http://www.vectorpaint.yaks.com/ https://chrome.google.com/webstore/detail/hnbpdiengicdefcjecjbnjnoifekhgdo -->
                                    <rect id="backgroundrect" width="100%" height="100%" x="0" y="0" fill="#FFFFFF" stroke="none" class="" style="" opacity="0"/>
                                <g style="" class="currentLayer"><title>Layer 1</title><path fill="#d44e2a" fill-opacity="1" stroke="#d44e2a" stroke-opacity="1" stroke-width="12" stroke-dasharray="none" stroke-linejoin="round" stroke-linecap="butt" stroke-dashoffset="" fill-rule="nonzero" opacity="1" marker-start="" marker-mid="" marker-end="" id="svg_1" d="M39.91977877940707,186.9518628376168 " style="color: rgb(255, 161, 137);"/><path fill="#548042" fill-opacity="1" stroke="#548042" stroke-opacity="1" stroke-width="12" stroke-dasharray="none" stroke-linejoin="round" stroke-linecap="butt" stroke-dashoffset="" fill-rule="nonzero" opacity="1" marker-start="" marker-mid="" marker-end="" id="svg_2" d="M78.15507182458308,199.30480366759673 " style="color: rgb(84, 128, 66);"/><path fill="#548042" fill-opacity="1" stroke="#548042" stroke-opacity="1" stroke-width="12" stroke-dasharray="none" stroke-linejoin="round" stroke-linecap="butt" stroke-dashoffset="" fill-rule="nonzero" opacity="1" marker-start="" marker-mid="" marker-end="" id="svg_3" d="M58.155072385567934,184.01068644952636 " style="color: rgb(84, 128, 66);"/><path fill="#548042" fill-opacity="1" stroke="#548042" stroke-opacity="1" stroke-width="12" stroke-dasharray="none" stroke-linejoin="round" stroke-linecap="butt" stroke-dashoffset="" fill-rule="nonzero" opacity="1" marker-start="" marker-mid="" marker-end="" id="svg_4" d="M61.0962487736584,208.1283328318681 " style="color: rgb(84, 128, 66);"/><path fill="#548042" fill-opacity="1" stroke="#548042" stroke-opacity="1" stroke-width="12" stroke-dasharray="none" stroke-linejoin="round" stroke-linecap="butt" stroke-dashoffset="" fill-rule="nonzero" opacity="1" marker-start="" marker-mid="" marker-end="" id="svg_5" d="M64.03742516174887,196.95186255712437 " style="color: rgb(84, 128, 66);"/><path fill="#548042" fill-opacity="1" stroke="#548042" stroke-opacity="1" stroke-width="12" stroke-dasharray="none" stroke-linejoin="round" stroke-linecap="butt" stroke-dashoffset="" fill-rule="nonzero" opacity="1" marker-start="" marker-mid="" marker-end="" id="svg_6" d="M86.39036571123634,191.65774505856155 " style="color: rgb(84, 128, 66);"/><path fill="#548042" fill-opacity="1" stroke="#548042" stroke-opacity="1" stroke-width="12" stroke-dasharray="none" stroke-linejoin="round" stroke-linecap="butt" stroke-dashoffset="" fill-rule="nonzero" opacity="1" marker-start="" marker-mid="" marker-end="" id="svg_7" d="M66.97860154983928,191.65774505856155 " style="color: rgb(84, 128, 66);"/><path fill="#548042" fill-opacity="1" stroke="#548042" stroke-opacity="1" stroke-width="12" stroke-dasharray="none" stroke-linejoin="round" stroke-linecap="butt" stroke-dashoffset="" fill-rule="nonzero" opacity="1" marker-start="" marker-mid="" marker-end="" id="svg_8" d="M89.33154209932681,192.83421561379774 " style="color: rgb(84, 128, 66);"/><path fill="#548042" fill-opacity="1" stroke="#548042" stroke-opacity="1" stroke-width="12" stroke-dasharray="none" stroke-linejoin="round" stroke-linecap="butt" stroke-dashoffset="" fill-rule="nonzero" opacity="1" marker-start="" marker-mid="" marker-end="" id="svg_9" d="M44.03742572273373,205.77539172139575 " style="color: rgb(84, 128, 66);"/><path fill="#548042" fill-opacity="1" stroke="#548042" stroke-opacity="1" stroke-width="12" stroke-dasharray="none" stroke-linejoin="round" stroke-linecap="butt" stroke-dashoffset="" fill-rule="nonzero" opacity="1" marker-start="" marker-mid="" marker-end="" id="svg_10" d="M64.03742516174887,186.36362755999872 " style="color: rgb(84, 128, 66);"/><path fill="#548042" fill-opacity="1" stroke="#548042" stroke-opacity="1" stroke-width="12" stroke-dasharray="none" stroke-linejoin="round" stroke-linecap="butt" stroke-dashoffset="" fill-rule="nonzero" opacity="1" marker-start="" marker-mid="" marker-end="" id="svg_11" d="M51.684484331768914,122.8342175772448 " style="color: rgb(84, 128, 66);"/><path fill="#548042" fill-opacity="1" stroke="#548042" stroke-opacity="1" stroke-width="12" stroke-dasharray="none" stroke-linejoin="round" stroke-linecap="butt" stroke-dashoffset="" fill-rule="nonzero" opacity="1" marker-start="" marker-mid="" marker-end="" id="svg_12" d="M56.39036655271363,144.0106875714961 " style="color: rgb(84, 128, 66);"/><path fill="#548042" fill-opacity="1" stroke="#548042" stroke-opacity="1" stroke-width="12" stroke-dasharray="none" stroke-linejoin="round" stroke-linecap="butt" stroke-dashoffset="" fill-rule="nonzero" opacity="1" marker-start="" marker-mid="" marker-end="" id="svg_13" d="M32.860955447989966,155.18715784623984 " style="color: rgb(84, 128, 66);"/><path fill="#548042" fill-opacity="1" stroke="#548042" stroke-opacity="1" stroke-width="12" stroke-dasharray="none" stroke-linejoin="round" stroke-linecap="butt" stroke-dashoffset="" fill-rule="nonzero" opacity="1" marker-start="" marker-mid="" marker-end="" id="svg_14" d="M82.86095404552779,126.95186452057143 " style="color: rgb(84, 128, 66);"/><path fill="#548042" fill-opacity="1" stroke="#548042" stroke-opacity="1" stroke-width="12" stroke-dasharray="none" stroke-linejoin="round" stroke-linecap="butt" stroke-dashoffset="" fill-rule="nonzero" opacity="1" marker-start="" marker-mid="" marker-end="" id="svg_15" d="M82.27271876790971,115.18715896820959 " style="color: rgb(84, 128, 66);"/><path fill="#548042" fill-opacity="1" stroke="#548042" stroke-opacity="1" stroke-width="12" stroke-dasharray="none" stroke-linejoin="round" stroke-linecap="butt" stroke-dashoffset="" fill-rule="nonzero" opacity="1" marker-start="" marker-mid="" marker-end="" id="svg_16" d="M51.684484331768914,142.8342170162599 " style="color: rgb(84, 128, 66);"/><path fill="#548042" fill-opacity="1" stroke="#548042" stroke-opacity="1" stroke-width="12" stroke-dasharray="none" stroke-linejoin="round" stroke-linecap="butt" stroke-dashoffset="" fill-rule="nonzero" opacity="1" marker-start="" marker-mid="" marker-end="" id="svg_17" d="M56.39036655271363,136.951864240079 " style="color: rgb(84, 128, 66);"/><path fill="#548042" fill-opacity="1" stroke="#548042" stroke-opacity="1" stroke-width="12" stroke-dasharray="none" stroke-linejoin="round" stroke-linecap="butt" stroke-dashoffset="" fill-rule="nonzero" opacity="1" marker-start="" marker-mid="" marker-end="" id="svg_18" d="M41.68448461226134,138.71657007293328 " style="color: rgb(84, 128, 66);"/><path fill="#548042" fill-opacity="1" stroke="#548042" stroke-opacity="1" stroke-width="12" stroke-dasharray="none" stroke-linejoin="round" stroke-linecap="butt" stroke-dashoffset="" fill-rule="nonzero" opacity="1" marker-start="" marker-mid="" marker-end="" id="svg_19" d="M31.6844848927538,122.8342175772448 " style="color: rgb(84, 128, 66);"/><path fill="#548042" fill-opacity="1" stroke="#548042" stroke-opacity="1" stroke-width="12" stroke-dasharray="none" stroke-linejoin="round" stroke-linecap="butt" stroke-dashoffset="" fill-rule="nonzero" opacity="1" marker-start="" marker-mid="" marker-end="" id="svg_20" d="M59.3315429408041,84.59892453206882 " style="color: rgb(84, 128, 66);" class=""/><path fill="#548042" fill-opacity="1" stroke="#548042" stroke-opacity="1" stroke-width="12" stroke-dasharray="none" stroke-linejoin="round" stroke-linecap="butt" stroke-dashoffset="" fill-rule="nonzero" opacity="1" marker-start="" marker-mid="" marker-end="" id="svg_21" d="M64.62566043936695,136.3636289624609 " style="color: rgb(84, 128, 66);"/><path fill="#548042" fill-opacity="1" stroke="#548042" stroke-opacity="1" stroke-width="12" stroke-dasharray="none" stroke-linejoin="round" stroke-linecap="butt" stroke-dashoffset="" fill-rule="nonzero" opacity="1" marker-start="" marker-mid="" marker-end="" id="svg_22" d="M76.39036599172877,144.0106875714961 " style="color: rgb(84, 128, 66);"/><path fill="#548042" fill-opacity="1" stroke="#548042" stroke-opacity="1" stroke-width="12" stroke-dasharray="none" stroke-linejoin="round" stroke-linecap="butt" stroke-dashoffset="" fill-rule="nonzero" opacity="1" marker-start="" marker-mid="" marker-end="" id="svg_23" d="M66.97860154983928,136.951864240079 " style="color: rgb(84, 128, 66);"/><polyline fill="none" stroke="#75ad5d" stroke-width="17" stroke-linejoin="round" stroke-dashoffset="" fill-rule="nonzero" marker-start="" marker-mid="" marker-end="" id="svg_25" points="82.86095404552779,142.8342170162599 82.86095404552779,142.8342170162599 83.44918932314589,142.8342170162599 84.03742460076396,142.8342170162599 84.62565987838204,142.8342170162599 85.21389515600018,142.8342170162599 86.39036571123634,142.8342170162599 88.15507154409059,142.8342170162599 91.68448320979914,142.8342170162599 93.44918904265346,142.8342170162599 94.62565959788961,142.8342170162599 97.56683598598008,142.8342170162599 99.33154181883438,142.24598173864183 100.50801237407055,142.24598173864183 101.68448292930671,141.65774646102372 101.68448292930671,141.65774646102372 102.27271820692485,141.65774646102372 102.86095348454293,141.65774646102372 103.44918876216103,141.65774646102372 103.44918876216103,141.65774646102372 105.21389459501526,141.65774646102372 106.39036515025148,141.65774646102372 108.15507098310573,141.65774646102372 109.33154153834195,141.65774646102372 110.50801209357812,142.24598173864183 111.68448264881428,142.24598173864183 112.8609532040505,142.8342170162599 114.62565903690475,142.8342170162599 114.62565903690475,142.8342170162599 115.80212959214091,142.8342170162599 116.39036486975905,142.8342170162599 117.56683542499522,143.422452293878 118.7433059802314,144.0106875714961 119.33154125784947,144.5989228491142 119.9197765354676,144.5989228491142 120.50801181308569,144.5989228491142 121.68448236832185,145.18715812673227 122.86095292355802,145.77539340435038 124.03742347879424,145.77539340435038 125.80212931164849,146.36362868196846 126.97859986688471,146.36362868196846 128.15507042212087,146.36362868196846 128.74330569973895,146.36362868196846 129.33154097735704,146.36362868196846 129.91977625497512,146.36362868196846 129.91977625497512,146.36362868196846 130.50801153259326,146.36362868196846 131.09624681021134,146.36362868196846 131.68448208782942,146.36362868196846 131.68448208782942,146.36362868196846 132.8609526430656,145.77539340435038 133.44918792068367,145.77539340435038 134.6256584759199,145.77539340435038 134.6256584759199,145.77539340435038 136.39036430877414,145.77539340435038 136.97859958639222,145.77539340435038 137.56683486401036,145.77539340435038 138.15507014162844,145.77539340435038 138.15507014162844,145.77539340435038 138.74330541924652,145.18715812673227 139.3315406968646,145.18715812673227 139.9197759744827,145.18715812673227 140.50801125210077,145.18715812673227 141.0962465297189,145.18715812673227 141.684481807337,145.18715812673227 142.27271708495508,145.18715812673227 142.86095236257316,145.18715812673227 142.86095236257316,145.18715812673227 143.44918764019124,145.18715812673227 144.03742291780932,145.18715812673227 " style="color: rgb(117, 173, 93);" class=""/><polyline fill="none" stroke="#75ad5d" stroke-width="38" stroke-linejoin="round" stroke-dashoffset="" fill-rule="nonzero" marker-start="" marker-mid="" marker-end="" points="82.86095428466797,142.83421325683594 82.86095428466797,142.83421325683594 83.44918823242188,142.83421325683594 84.03742218017578,142.83421325683594 84.62565612792969,142.83421325683594 85.21389770507812,142.83421325683594 86.39036560058594,142.83421325683594 88.15507507324219,142.83421325683594 91.68448638916016,142.83421325683594 93.44918823242188,142.83421325683594 94.62565612792969,142.83421325683594 97.56683349609375,142.83421325683594 99.33154296875,142.24598693847656 100.50801086425781,142.24598693847656 101.68448638916016,141.65774536132812 101.68448638916016,141.65774536132812 102.27272033691406,141.65774536132812 102.86095428466797,141.65774536132812 103.44918823242188,141.65774536132812 103.44918823242188,141.65774536132812 105.21389770507812,141.65774536132812 106.39036560058594,141.65774536132812 108.15506744384766,141.65774536132812 109.33154296875,141.65774536132812 110.50801086425781,142.24598693847656 111.68448638916016,142.24598693847656 112.86095428466797,142.83421325683594 114.62565612792969,142.83421325683594 114.62565612792969,142.83421325683594 115.80213165283203,142.83421325683594 116.39036560058594,142.83421325683594 117.56683349609375,143.42245483398438 118.7433090209961,144.01068115234375 119.33154296875,144.5989227294922 119.9197769165039,144.5989227294922 120.50801086425781,144.5989227294922 121.68447875976562,145.18716430664062 122.86095428466797,145.775390625 124.03742218017578,145.775390625 125.80213165283203,146.36363220214844 126.97859954833984,146.36363220214844 128.1550750732422,146.36363220214844 128.74330139160156,146.36363220214844 129.33154296875,146.36363220214844 129.91976928710938,146.36363220214844 129.91976928710938,146.36363220214844 130.5080108642578,146.36363220214844 131.09625244140625,146.36363220214844 131.68447875976562,146.36363220214844 131.68447875976562,146.36363220214844 132.86094665527344,145.775390625 133.44918823242188,145.775390625 134.6256561279297,145.775390625 134.6256561279297,145.775390625 136.39036560058594,145.775390625 136.97860717773438,145.775390625 137.56683349609375,145.775390625 138.1550750732422,145.775390625 138.1550750732422,145.775390625 138.74330139160156,145.18716430664062 139.33154296875,145.18716430664062 139.91976928710938,145.18716430664062 140.5080108642578,145.18716430664062 141.09625244140625,145.18716430664062 141.68447875976562,145.18716430664062 142.27272033691406,145.18716430664062 142.86094665527344,145.18716430664062 142.86094665527344,145.18716430664062 143.44918823242188,145.18716430664062 144.0374298095703,145.18716430664062 " style="color: rgb(117, 173, 93);" class="" id="svg_40"/><polyline fill="none" stroke="#75ad5d" stroke-width="41" stroke-linejoin="round" stroke-dashoffset="" fill-rule="nonzero" marker-start="" marker-mid="" marker-end="" id="svg_26" points="155.17928661992119,201.0695037841797 154.61412799894606,200.50434516320456 154.61412799894606,199.3740132608491 154.04895471756572,197.6785080771133 153.4837960965906,196.54817617475783 152.91862281521026,194.85267099102202 152.91862281521026,193.15716580728622 151.7882909128548,190.33132872119495 151.22311763147445,188.07066491648402 150.092785729119,184.6796545490124 148.39728054538318,181.28865884194602 147.83212192440806,178.46282175585475 146.70177536164738,176.20215795114382 145.5714434592919,173.94147948602767 145.0062848383168,170.55048377896128 144.44111155693645,169.98531049758094 144.44111155693645,168.28980531384514 143.87595293596132,167.15947341148967 143.87595293596132,165.46396822775387 143.31077965458098,164.89880960677874 143.31077965458098,163.76847770442328 142.74560637320064,163.20330442304294 142.74560637320064,161.50779923930713 142.74560637320064,160.942640618332 142.74560637320064,160.37746733695167 142.74560637320064,159.2471354345962 142.74560637320064,158.11680353224074 142.74560637320064,155.8561250671246 142.74560637320064,154.72579316476913 142.74560637320064,154.160634543794 142.74560637320064,153.03028798103333 142.74560637320064,152.4651293600582 142.74560637320064,151.89995607867786 142.74560637320064,151.33479745770273 142.74560637320064,151.33479745770273 142.18044775222552,151.33479745770273 141.61527447084518,150.7696241763224 141.61527447084518,150.20446555534727 141.61527447084518,149.63929227396693 141.05011584987005,149.63929227396693 141.05011584987005,149.0741189925866 141.05011584987005,148.50896037161147 140.4849425684897,147.94378709023113 140.4849425684897,147.94378709023113 139.91976928710938,147.94378709023113 139.91976928710938,147.378628469256 139.91976928710938,146.81345518787566 139.91976928710938,146.81345518787566 139.91976928710938,146.24828190649532 140.4849425684897,146.24828190649532 140.4849425684897,145.6831232855202 141.05011584987005,145.6831232855202 141.61527447084518,145.11795000413986 142.18044775222552,144.55279138316473 142.18044775222552,143.42244482040405 142.74560637320064,143.42244482040405 143.31077965458098,142.2921129180486 143.31077965458098,140.596622394718 143.87595293596132,139.46627583195732 144.44111155693645,138.9011172109822 145.0062848383168,138.33594392960185 145.5714434592919,137.77078530862673 145.5714434592919,137.2056120272464 146.13661674067225,137.2056120272464 146.70177536164738,136.64043874586605 147.26694864302772,136.07528012489092 147.26694864302772,136.07528012489092 147.83212192440806,136.07528012489092 148.39728054538318,134.94494822253546 148.39728054538318,134.37977494115512 148.96245382676352,134.37977494115512 149.52761244773865,134.37977494115512 150.092785729119,133.24944303879965 150.65795901049933,133.24944303879965 151.22311763147445,132.1191111364442 151.7882909128548,131.55393785506385 151.7882909128548,130.98877923408872 152.91862281521026,130.98877923408872 152.91862281521026,130.42360595270839 152.91862281521026,129.85844000153065 153.4837960965906,129.85844000153065 154.04895471756572,129.29327405035292 154.61412799894606,129.29327405035292 154.61412799894606,128.72810076897258 155.74445990130152,128.16293481779485 156.30961852227665,127.59776886661712 156.874791803657,127.03260291543938 157.43996508503733,127.03260291543938 158.5702969873928,127.03260291543938 159.13545560836792,125.90227101308392 160.83096079210372,125.33709773170358 160.83096079210372,125.33709773170358 161.9612926944592,125.33709773170358 161.9612926944592,124.77193178052585 162.52646597583953,124.77193178052585 163.656797878195,124.20676582934811 163.656797878195,124.20676582934811 164.22197115957533,124.20676582934811 164.78712978055046,123.64159987817038 165.3523030619308,123.07643392699265 165.3523030619308,123.07643392699265 165.91746168290592,122.51126797581492 166.48263496428626,122.51126797581492 167.0478082456666,121.94609469443458 167.61296686664173,121.38092874325685 168.17814014802207,120.81576279207911 168.7432987689972,120.81576279207911 168.7432987689972,120.25059684090138 169.30847205037753,119.68543088972365 169.87364533175787,119.68543088972365 169.87364533175787,119.12025760834331 171.00397723411334,117.98992570598784 171.00397723411334,117.98992570598784 171.00397723411334,117.42475975481011 171.56913585508846,117.42475975481011 172.1343091364688,116.85959380363238 172.1343091364688,116.29442785245465 172.1343091364688,116.29442785245465 172.69946775744393,115.7292545710743 173.26464103882427,115.16408861989657 173.26464103882427,115.16408861989657 173.26464103882427,114.59892266871884 " style="color: rgb(117, 173, 93);" class=""/><polyline fill="none" stroke="#75ad5d" stroke-width="12" stroke-linejoin="round" stroke-dashoffset="" fill-rule="nonzero" marker-start="" marker-mid="" marker-end="" id="svg_30" points="177.41798561412276,118.47618771327346 177.41798561412276,118.47618771327346 177.41798561412276,118.47618771327346 177.41798561412276,116.99470625795587 176.67724488646394,115.5132248026383 175.93650415880518,114.7724840749795 175.93650415880518,114.03174334732073 175.19576343114636,114.03174334732073 175.19576343114636,112.55026189200314 173.71428197582878,111.80952116434436 172.97354124817002,111.06878043668557 172.2328005205112,110.3280397090268 172.2328005205112,110.3280397090268 171.49205979285244,109.58729898136802 170.75131906519368,109.58729898136802 170.75131906519368,108.84655825370922 170.01057833753487,108.84655825370922 170.01057833753487,108.84655825370922 169.2698376098761,108.84655825370922 169.2698376098761,108.84655825370922 168.5290968822173,108.84655825370922 168.5290968822173,108.10581752605043 167.78835615455853,108.10581752605043 167.78835615455853,108.10581752605043 167.78835615455853,108.10581752605043 167.78835615455853,108.10581752605043 167.0476154268997,107.36507679839166 167.78835615455853,107.36507679839166 167.78835615455853,107.36507679839166 169.2698376098761,107.36507679839166 170.75131906519368,108.10581752605043 172.97354124817002,108.84655825370922 175.19576343114636,110.3280397090268 176.67724488646394,111.06878043668557 178.15872634178152,111.06878043668557 178.89946706944033,111.80952116434436 179.6402077970991,112.55026189200314 179.6402077970991,112.55026189200314 180.3809485247579,113.29100261966194 180.3809485247579,113.29100261966194 181.12168925241667,114.03174334732073 181.12168925241667,114.03174334732073 181.12168925241667,114.7724840749795 181.8624299800755,114.7724840749795 181.8624299800755,115.5132248026383 182.60317070773425,115.5132248026383 182.60317070773425,115.5132248026383 182.60317070773425,115.5132248026383 183.34391143539307,115.5132248026383 183.34391143539307,116.2539655302971 184.08465216305183,116.2539655302971 184.08465216305183,116.2539655302971 184.08465216305183,116.2539655302971 183.34391143539307,116.2539655302971 181.8624299800755,115.5132248026383 180.3809485247579,114.03174334732073 178.89946706944033,112.55026189200314 177.41798561412276,111.06878043668557 175.93650415880518,109.58729898136802 175.19576343114636,108.10581752605043 173.71428197582878,107.36507679839166 172.97354124817002,106.62433607073285 172.2328005205112,105.14285461541529 171.49205979285244,104.40211388775649 170.75131906519368,103.6613731600977 170.01057833753487,103.6613731600977 169.2698376098761,102.92063243243891 168.5290968822173,102.92063243243891 167.78835615455853,102.17989170478012 167.78835615455853,102.17989170478012 167.78835615455853,102.17989170478012 167.0476154268997,102.17989170478012 167.0476154268997,102.17989170478012 167.0476154268997,102.17989170478012 167.78835615455853,102.92063243243891 169.2698376098761,104.40211388775649 171.49205979285244,105.88359534307406 173.71428197582878,108.10581752605043 175.93650415880518,109.58729898136802 177.41798561412276,111.06878043668557 178.89946706944033,111.80952116434436 181.12168925241667,113.29100261966194 181.8624299800755,114.7724840749795 183.34391143539307,115.5132248026383 184.08465216305183,116.99470625795587 184.08465216305183,116.99470625795587 184.08465216305183,117.73544698561467 184.82539289071065,117.73544698561467 184.82539289071065,118.47618771327346 184.82539289071065,118.47618771327346 185.5661336183694,118.47618771327346 185.5661336183694,119.21692844093226 185.5661336183694,119.21692844093226 186.30687434602822,119.21692844093226 " style="color: rgb(244, 243, 193);"/><polyline fill="none" stroke="#75ad5d" stroke-width="12" stroke-linejoin="round" stroke-dashoffset="" fill-rule="nonzero" marker-start="" marker-mid="" marker-end="" id="svg_34" points="158.15872669499424,196.99470484510508 158.15872669499424,196.99470484510508 158.89946742265306,196.99470484510508 159.64020815031182,196.99470484510508 159.64020815031182,196.99470484510508 160.38094887797064,196.99470484510508 160.38094887797064,197.73544557276387 158.89946742265306,198.47618630042265 157.41798596733548,199.21692702808147 155.1957637843591,201.4391492110578 152.97354160138275,202.9206306663754 150.0105786907476,205.14285284935175 147.7883565077712,205.88359357701054 146.30687505245362,206.62433430466933 145.56613432479486,207.36507503232815 145.56613432479486,207.36507503232815 144.82539359713604,207.36507503232815 144.82539359713604,207.36507503232815 144.08465286947728,207.36507503232815 144.08465286947728,207.36507503232815 144.08465286947728,207.36507503232815 144.08465286947728,207.36507503232815 144.08465286947728,207.36507503232815 145.56613432479486,207.36507503232815 147.7883565077712,206.62433430466933 149.26983796308878,205.88359357701054 152.23280087372393,205.14285284935175 153.7142823290415,203.6613713940342 155.1957637843591,202.9206306663754 156.67724523967667,202.1798899387166 157.41798596733548,201.4391492110578 158.15872669499424,200.69840848339902 158.89946742265306,199.9576677557402 159.64020815031182,199.21692702808147 161.1216896056294,198.47618630042265 162.60317106094698,198.47618630042265 163.3439117886058,198.47618630042265 164.08465251626455,198.47618630042265 164.08465251626455,197.73544557276387 164.82539324392337,197.73544557276387 164.82539324392337,197.73544557276387 165.56613397158213,197.73544557276387 165.56613397158213,197.73544557276387 166.30687469924095,197.73544557276387 167.0476154268997,196.99470484510508 167.78835615455853,196.99470484510508 167.78835615455853,196.99470484510508 167.78835615455853,196.99470484510508 167.78835615455853,196.2539641174463 168.5290968822173,196.2539641174463 168.5290968822173,196.2539641174463 168.5290968822173,195.51322338978747 169.2698376098761,195.51322338978747 168.5290968822173,195.51322338978747 167.78835615455853,196.2539641174463 166.30687469924095,197.73544557276387 164.82539324392337,197.73544557276387 163.3439117886058,198.47618630042265 161.86243033328822,199.21692702808147 160.38094887797064,199.9576677557402 159.64020815031182,199.9576677557402 158.15872669499424,199.9576677557402 156.67724523967667,200.69840848339902 155.9365045120179,201.4391492110578 155.9365045120179,201.4391492110578 155.1957637843591,202.1798899387166 154.45502305670033,202.1798899387166 153.7142823290415,202.1798899387166 153.7142823290415,202.1798899387166 152.97354160138275,202.1798899387166 152.97354160138275,202.1798899387166 " style="color: rgb(244, 243, 193);"/><path fill="none" stroke="#548042" stroke-opacity="1" stroke-width="22" stroke-dasharray="none" stroke-linejoin="round" stroke-linecap="butt" stroke-dashoffset="" fill-rule="nonzero" opacity="1" marker-start="" marker-mid="" marker-end="" id="svg_24" d="M76.94143582875549,138.1192277184295 C76.37227942556495,143.92904532556898 62.71252574899165,216.22899776997176 160.6074270977673,206.5459684247392 C258.502328446543,196.86293907950667 204.43247014344013,112.943351420825 188.49609085410452,103.26032207559248 C172.55971156476892,93.57729273036 105.96841239147386,59.36392237720516 83.7713126670422,83.24872809544532 C61.57421294261047,107.1335338136855 77.51059223194602,132.30941011128996 76.94143582875549,138.1192277184295 z" style="color: rgb(84, 128, 66);" class=""/><path fill="#eaf2c1" fill-opacity="1" stroke="none" stroke-opacity="1" stroke-width="22" stroke-dasharray="none" stroke-linejoin="round" stroke-linecap="butt" stroke-dashoffset="" fill-rule="nonzero" opacity="1" marker-start="" marker-mid="" marker-end="" d="M101,163.5 C101,161.01381215469613 106.146408839779,159 112.5,159 C118.853591160221,159 124,161.01381215469613 124,163.5 C124,165.98618784530387 118.853591160221,168 112.5,168 C106.146408839779,168 101,165.98618784530387 101,163.5 Z" id="svg_27" class=""/><path fill="#eaf2c1" fill-opacity="1" stroke="none" stroke-opacity="1" stroke-width="22" stroke-dasharray="none" stroke-linejoin="round" stroke-linecap="butt" stroke-dashoffset="" fill-rule="nonzero" opacity="1" marker-start="" marker-mid="" marker-end="" d="M101,163.5 C101,161.01381215469613 106.146408839779,159 112.5,159 C118.853591160221,159 124,161.01381215469613 124,163.5 C124,165.98618784530387 118.853591160221,168 112.5,168 C106.146408839779,168 101,165.98618784530387 101,163.5 z" class="" id="svg_32"/><path fill="#eaf2c1" fill-opacity="1" stroke="none" stroke-opacity="1" stroke-width="22" stroke-dasharray="none" stroke-linejoin="round" stroke-linecap="butt" stroke-dashoffset="" fill-rule="nonzero" opacity="1" marker-start="" marker-mid="" marker-end="" d="M101,163.5 C101,161.01381215469613 106.146408839779,159 112.5,159 C118.853591160221,159 124,161.01381215469613 124,163.5 C124,165.98618784530387 118.853591160221,168 112.5,168 C106.146408839779,168 101,165.98618784530387 101,163.5 z" class="" id="svg_33"/><path fill="#eaf2c1" fill-opacity="1" stroke="none" stroke-opacity="1" stroke-width="22" stroke-dasharray="none" stroke-linejoin="round" stroke-linecap="butt" stroke-dashoffset="" fill-rule="nonzero" opacity="1" marker-start="" marker-mid="" marker-end="" d="M106.18518543243408,170.90740776062012 C106.18518543243408,168.42121991531624 111.33159427221308,166.40740776062012 117.68518543243408,166.40740776062012 C124.0387765926551,166.40740776062012 129.18518543243408,168.42121991531624 129.18518543243408,170.90740776062012 C129.18518543243408,173.393595605924 124.0387765926551,175.40740776062012 117.68518543243408,175.40740776062012 C111.33159427221308,175.40740776062012 106.18518543243408,173.393595605924 106.18518543243408,170.90740776062012 z" class="" id="svg_28" transform="rotate(-27.699575424194336 117.6851806640624,170.9074096679687) "/><path fill="#eaf2c1" fill-opacity="1" stroke="none" stroke-opacity="1" stroke-width="22" stroke-dasharray="none" stroke-linejoin="round" stroke-linecap="butt" stroke-dashoffset="" fill-rule="nonzero" opacity="1" marker-start="" marker-mid="" marker-end="" d="M158.77777862548828,144.24074268341064 C158.77777862548828,141.75455483810677 163.92418746526727,139.74074268341064 170.27777862548828,139.74074268341064 C176.6313697857093,139.74074268341064 181.77777862548828,141.75455483810677 181.77777862548828,144.24074268341064 C181.77777862548828,146.72693052871452 176.6313697857093,148.74074268341064 170.27777862548828,148.74074268341064 C163.92418746526727,148.74074268341064 158.77777862548828,146.72693052871452 158.77777862548828,144.24074268341064 z" class="" transform="rotate(-27.699575424194336 170.27778625488273,144.24075317382815) " id="svg_35"/><path fill="#eaf2c1" fill-opacity="1" stroke="none" stroke-opacity="1" stroke-width="22" stroke-dasharray="none" stroke-linejoin="round" stroke-linecap="butt" stroke-dashoffset="" fill-rule="nonzero" opacity="1" marker-start="" marker-mid="" marker-end="" d="M161.00000095367432,154.61111307144165 C161.00000095367432,152.12492522613778 166.1464097934533,150.11111307144165 172.50000095367432,150.11111307144165 C178.85359211389533,150.11111307144165 184.00000095367432,152.12492522613778 184.00000095367432,154.61111307144165 C184.00000095367432,157.09730091674552 178.85359211389533,159.11111307144165 172.50000095367432,159.11111307144165 C166.1464097934533,159.11111307144165 161.00000095367432,157.09730091674552 161.00000095367432,154.61111307144165 z" class="" transform="rotate(19.54737663269043 172.49999999999994,154.61111450195315) " id="svg_36"/><path fill="#eaf2c1" fill-opacity="1" stroke="none" stroke-opacity="1" stroke-width="22" stroke-dasharray="none" stroke-linejoin="round" stroke-linecap="butt" stroke-dashoffset="" fill-rule="nonzero" opacity="1" marker-start="" marker-mid="" marker-end="" d="M155.8148157596588,163.500001847744 C155.8148157596588,161.0138140024401 160.9612245994378,159.000001847744 167.3148157596588,159.000001847744 C173.66840691987983,159.000001847744 178.8148157596588,161.0138140024401 178.8148157596588,163.500001847744 C178.8148157596588,165.98618969304786 173.66840691987983,168.000001847744 167.3148157596588,168.000001847744 C160.9612245994378,168.000001847744 155.8148157596588,165.98618969304786 155.8148157596588,163.500001847744 z" class="" transform="rotate(48.37685775756836 167.3148040771485,163.49999999999997) " id="svg_37"/><path fill="#eaf2c1" fill-opacity="1" stroke="none" stroke-opacity="1" stroke-width="22" stroke-dasharray="none" stroke-linejoin="round" stroke-linecap="butt" stroke-dashoffset="" fill-rule="nonzero" opacity="1" marker-start="" marker-mid="" marker-end="" d="M112.31747432435867,121.0944172609343 C112.31747432435867,118.45571367626326 117.46388316413766,116.31836377267976 123.81747432435867,116.31836377267976 C130.17106548457969,116.31836377267976 135.31747432435867,118.45571367626326 135.31747432435867,121.0944172609343 C135.31747432435867,123.73312084560533 130.17106548457969,125.87047074918885 123.81747432435867,125.87047074918885 C117.46388316413766,125.87047074918885 112.31747432435867,123.73312084560533 112.31747432435867,121.0944172609343 z" class="" transform="rotate(25.767654418945312 123.81747436523439,121.09442138671875) " id="svg_38"/><path fill="#eaf2c1" fill-opacity="1" stroke="none" stroke-opacity="1" stroke-width="22" stroke-dasharray="none" stroke-linejoin="round" stroke-linecap="butt" stroke-dashoffset="" fill-rule="nonzero" opacity="1" marker-start="" marker-mid="" marker-end="" d="M101.78169464227277,125.53735309672994 C101.78169464227277,122.26577552854839 108.16243244651962,119.61579769832137 116.03988652583676,119.61579769832137 C123.91734060515394,119.61579769832137 130.29807840940074,122.26577552854839 130.29807840940074,125.53735309672994 C130.29807840940074,128.8089306649115 123.91734060515394,131.45890849513853 116.03988652583676,131.45890849513853 C108.16243244651962,131.45890849513853 101.78169464227277,128.8089306649115 101.78169464227277,125.53735309672994 z" class="" transform="rotate(7.218254089355469 116.03988647460943,125.53736114501955) " id="svg_39"/><path fill="#eaf2c1" fill-opacity="1" stroke="none" stroke-opacity="1" stroke-width="22" stroke-dasharray="none" stroke-linejoin="round" stroke-linecap="butt" stroke-dashoffset="" fill-rule="nonzero" opacity="1" marker-start="" marker-mid="" marker-end="" d="M115.11502777692395,129.981797753102 C115.11502777692395,126.71022018492044 121.4957655811708,124.06024235469346 129.37321966048796,124.06024235469346 C137.2506737398051,124.06024235469346 143.63141154405193,126.71022018492044 143.63141154405193,129.981797753102 C143.63141154405193,133.25337532128356 137.2506737398051,135.9033531515106 129.37321966048796,135.9033531515106 C121.4957655811708,135.9033531515106 115.11502777692395,133.25337532128356 115.11502777692395,129.981797753102 z" class="" transform="rotate(7.218254089355469 129.3732299804687,129.98179626464855) " id="svg_46"/><path fill="#eaf2c1" fill-opacity="1" stroke="none" stroke-opacity="1" stroke-width="22" stroke-dasharray="none" stroke-linejoin="round" stroke-linecap="butt" stroke-dashoffset="" fill-rule="nonzero" opacity="1" marker-start="" marker-mid="" marker-end="" d="M119.72488136972305,116.64997355823655 C119.72488136972305,114.0112699735655 124.87129020950204,111.873920069982 131.22488136972305,111.873920069982 C137.57847252994407,111.873920069982 142.72488136972305,114.0112699735655 142.72488136972305,116.64997355823655 C142.72488136972305,119.28867714290757 137.57847252994407,121.4260270464911 131.22488136972305,121.4260270464911 C124.87129020950204,121.4260270464911 119.72488136972305,119.28867714290757 119.72488136972305,116.64997355823655 z" class="" transform="rotate(70.86415100097656 131.2248840332031,116.6499710083008) " id="svg_41"/><path fill="#eaf2c1" fill-opacity="1" stroke="none" stroke-opacity="1" stroke-width="22" stroke-dasharray="none" stroke-linejoin="round" stroke-linecap="butt" stroke-dashoffset="" fill-rule="nonzero" opacity="1" marker-start="" marker-mid="" marker-end="" d="M128.61377020563003,114.42775194530626 C128.61377020563003,111.7890483606352 133.76017904540902,109.65169845705171 140.11377020563003,109.65169845705171 C146.46736136585105,109.65169845705171 151.61377020563003,111.7890483606352 151.61377020563003,114.42775194530626 C151.61377020563003,117.06645552997728 146.46736136585105,119.2038054335608 140.11377020563003,119.2038054335608 C133.76017904540902,119.2038054335608 128.61377020563003,117.06645552997728 128.61377020563003,114.42775194530626 z" class="" transform="rotate(95.50167083740234 140.11376953125003,114.42774963378906) " id="svg_42"/><path fill="#eaf2c1" fill-opacity="1" stroke="none" stroke-opacity="1" stroke-width="22" stroke-dasharray="none" stroke-linejoin="round" stroke-linecap="butt" stroke-dashoffset="" fill-rule="nonzero" opacity="1" marker-start="" marker-mid="" marker-end="" d="M148.21339310659727,151.43823076244766 C148.21339310659727,147.14295539069045 151.5291054700834,143.6637823395672 155.62257752377002,143.6637823395672 C159.71604957745666,143.6637823395672 163.0317619409428,147.14295539069045 163.0317619409428,151.43823076244766 C163.0317619409428,155.73350613420482 159.71604957745666,159.2126791853281 155.62257752377002,159.2126791853281 C151.5291054700834,159.2126791853281 148.21339310659727,155.73350613420482 148.21339310659727,151.43823076244766 z" class="" transform="rotate(95.50167083740234 155.6225738525391,151.438232421875) " id="svg_43"/><path fill="#eaf2c1" fill-opacity="1" stroke="none" stroke-opacity="1" stroke-width="22" stroke-dasharray="none" stroke-linejoin="round" stroke-linecap="butt" stroke-dashoffset="" fill-rule="nonzero" opacity="1" marker-start="" marker-mid="" marker-end="" d="M111.91709698690732,161.06786037441665 C111.91709698690732,156.77258500265944 115.23280935039347,153.2934119515362 119.32628140408008,153.2934119515362 C123.41975345776672,153.2934119515362 126.73546582125286,156.77258500265944 126.73546582125286,161.06786037441665 C126.73546582125286,165.3631357461738 123.41975345776672,168.8423087972971 119.32628140408008,168.8423087972971 C115.23280935039347,168.8423087972971 111.91709698690732,165.3631357461738 111.91709698690732,161.06786037441665 z" class="" transform="rotate(95.50167083740234 119.32627868652345,161.06787109375) " id="svg_44"/><path fill="#eaf2c1" fill-opacity="1" stroke="none" stroke-opacity="1" stroke-width="22" stroke-dasharray="none" stroke-linejoin="round" stroke-linecap="butt" stroke-dashoffset="" fill-rule="nonzero" opacity="1" marker-start="" marker-mid="" marker-end="" d="M95.9040043472219,157.8474289111204 C95.9040043472219,150.9435271413771 99.20597027597107,145.3513667078852 103.28247142257497,145.3513667078852 C107.35897256917892,145.3513667078852 110.66093849792807,150.9435271413771 110.66093849792807,157.8474289111204 C110.66093849792807,164.7513306808636 107.35897256917892,170.34349111435563 103.28247142257497,170.34349111435563 C99.20597027597107,170.34349111435563 95.9040043472219,164.7513306808636 95.9040043472219,157.8474289111204 z" class="" transform="rotate(53.1615104675293 103.28247070312497,157.8474273681641) " id="svg_45"/><path fill="#eaf2c1" fill-opacity="1" stroke="none" stroke-opacity="1" stroke-width="22" stroke-dasharray="none" stroke-linejoin="round" stroke-linecap="butt" stroke-dashoffset="" fill-rule="nonzero" opacity="1" marker-start="" marker-mid="" marker-end="" d="M124.79289324273353,105.995578878314 C124.79289324273353,99.0916771085707 128.0948591714827,93.49951667507881 132.1713603180866,93.49951667507881 C136.24786146469054,93.49951667507881 139.5498273934397,99.0916771085707 139.5498273934397,105.995578878314 C139.5498273934397,112.89948064805719 136.24786146469054,118.49164108154923 132.1713603180866,118.49164108154923 C128.0948591714827,118.49164108154923 124.79289324273353,112.89948064805719 124.79289324273353,105.995578878314 z" class="" transform="rotate(-41.98170471191406 132.17135620117188,105.99557495117185) " id="svg_47"/><path fill="#eaf2c1" fill-opacity="1" stroke="none" stroke-opacity="1" stroke-width="22" stroke-dasharray="none" stroke-linejoin="round" stroke-linecap="butt" stroke-dashoffset="" fill-rule="nonzero" opacity="1" marker-start="" marker-mid="" marker-end="" d="M95.16326506127601,114.88446795263957 C95.16326506127601,107.98056618289627 98.46523099002519,102.38840574940437 102.5417321366291,102.38840574940437 C106.61823328323302,102.38840574940437 109.92019921198218,107.98056618289627 109.92019921198218,114.88446795263957 C109.92019921198218,121.78836972238275 106.61823328323302,127.3805301558748 102.5417321366291,127.3805301558748 C98.46523099002519,127.3805301558748 95.16326506127601,121.78836972238275 95.16326506127601,114.88446795263957 z" class="" transform="rotate(-62.518882751464844 102.54173278808592,114.88446807861324) " id="svg_48"/><path fill="#eaf2c1" fill-opacity="1" stroke="none" stroke-opacity="1" stroke-width="22" stroke-dasharray="none" stroke-linejoin="round" stroke-linecap="butt" stroke-dashoffset="" fill-rule="nonzero" opacity="1" marker-start="" marker-mid="" marker-end="" d="M108.4965980767179,107.47706114569377 C108.4965980767179,100.57315937595047 111.79856400546709,94.98099894245857 115.87506515207099,94.98099894245857 C119.95156629867492,94.98099894245857 123.25353222742407,100.57315937595047 123.25353222742407,107.47706114569377 C123.25353222742407,114.38096291543695 119.95156629867492,119.973123348929 115.87506515207099,119.973123348929 C111.79856400546709,119.973123348929 108.4965980767179,114.38096291543695 108.4965980767179,107.47706114569377 z" class="" transform="rotate(-32.70089340209961 115.87506103515622,107.47705841064453) " id="svg_49"/><path fill="#eaf2c1" fill-opacity="1" stroke="none" stroke-opacity="1" stroke-width="22" stroke-dasharray="none" stroke-linejoin="round" stroke-linecap="butt" stroke-dashoffset="" fill-rule="nonzero" opacity="1" marker-start="" marker-mid="" marker-end="" d="M157.45227941998587,174.65314591086508 C157.45227941998587,170.2955347907943 163.9708509841623,166.76586978353708 172.018470199195,166.76586978353708 C180.0660894142277,166.76586978353708 186.58466097840414,170.2955347907943 186.58466097840414,174.65314591086508 C186.58466097840414,179.01075703093574 180.0660894142277,182.54042203819307 172.018470199195,182.54042203819307 C163.9708509841623,182.54042203819307 157.45227941998587,179.01075703093574 157.45227941998587,174.65314591086508 z" class="" transform="rotate(38.76097869873047 172.01846313476557,174.6531524658203) " id="svg_50"/><path fill="#eaf2c1" fill-opacity="1" stroke="none" stroke-opacity="1" stroke-width="22" stroke-dasharray="none" stroke-linejoin="round" stroke-linecap="butt" stroke-dashoffset="" fill-rule="nonzero" opacity="1" marker-start="" marker-mid="" marker-end="" d="M170.78561255463705,140.57907116568686 C170.78561255463705,136.22146004561608 177.30418411881348,132.69179503835886 185.3518033338462,132.69179503835886 C193.39942254887887,132.69179503835886 199.91799411305533,136.22146004561608 199.91799411305533,140.57907116568686 C199.91799411305533,144.9366822857575 193.39942254887887,148.46634729301485 185.3518033338462,148.46634729301485 C177.30418411881348,148.46634729301485 170.78561255463705,144.9366822857575 170.78561255463705,140.57907116568686 z" class="" transform="rotate(5.692592144012451 185.351806640625,140.57907104492168) " id="svg_51"/><path fill="#eaf2c1" fill-opacity="1" stroke="none" stroke-opacity="1" stroke-width="22" stroke-dasharray="none" stroke-linejoin="round" stroke-linecap="butt" stroke-dashoffset="" fill-rule="nonzero" opacity="1" marker-start="" marker-mid="" marker-end="" d="M166.3411688519393,165.76425564444662 C166.3411688519393,161.40664452437585 172.85974041611573,157.87697951711863 180.90735963114844,157.87697951711863 C188.95497884618112,157.87697951711863 195.47355041035757,161.40664452437585 195.47355041035757,165.76425564444662 C195.47355041035757,170.12186676451728 188.95497884618112,173.65153177177461 180.90735963114844,173.65153177177461 C172.85974041611573,173.65153177177461 166.3411688519393,170.12186676451728 166.3411688519393,165.76425564444662 z" class="" transform="rotate(16.155963897705078 180.90736389160168,165.76425170898435) " id="svg_52"/><path fill="#eaf2c1" fill-opacity="1" stroke="none" stroke-opacity="1" stroke-width="22" stroke-dasharray="none" stroke-linejoin="round" stroke-linecap="butt" stroke-dashoffset="" fill-rule="nonzero" opacity="1" marker-start="" marker-mid="" marker-end="" d="M171.52635428437338,155.39388573325277 C171.52635428437338,151.036274613182 178.0449258485498,147.50660960592478 186.09254506358252,147.50660960592478 C194.1401642786152,147.50660960592478 200.65873584279166,151.036274613182 200.65873584279166,155.39388573325277 C200.65873584279166,159.75149685332343 194.1401642786152,163.28116186058077 186.09254506358252,163.28116186058077 C178.0449258485498,163.28116186058077 171.52635428437338,159.75149685332343 171.52635428437338,155.39388573325277 z" class="" transform="rotate(12.240338325500488 186.09254455566426,155.39389038085935) " id="svg_53"/><polyline fill="none" stroke="#94ce65" stroke-width="12" stroke-linejoin="round" stroke-dashoffset="" fill-rule="nonzero" marker-start="" marker-mid="" marker-end="" id="svg_31" points="88.8888866485024,142.17989099835472 88.8888866485024,142.17989099835472 89.6296273761612,142.17989099835472 90.37036810381998,142.17989099835472 91.11110883147877,142.17989099835472 92.59259028679635,142.17989099835472 94.07407174211393,142.17989099835472 95.5555531974315,141.43915027069593 97.03703465274909,141.43915027069593 97.77777538040786,141.43915027069593 99.25925683572545,141.43915027069593 99.99999756338423,141.43915027069593 100.74073829104303,141.43915027069593 101.48147901870182,141.43915027069593 102.9629604740194,141.43915027069593 103.7037012016782,141.43915027069593 103.7037012016782,141.43915027069593 104.44444192933697,141.43915027069593 105.18518265699576,141.43915027069593 105.92592338465457,141.43915027069593 107.40740483997213,141.43915027069593 108.14814556763093,141.43915027069593 108.88888629528971,141.43915027069593 108.88888629528971,141.43915027069593 108.88888629528971,141.43915027069593 109.6296270229485,141.43915027069593 112.59258993358364,141.43915027069593 114.07407138890123,141.43915027069593 115.55555284421881,141.43915027069593 117.03703429953637,141.43915027069593 117.77777502719515,142.17989099835472 117.77777502719515,142.17989099835472 118.51851575485392,142.17989099835472 118.51851575485392,142.17989099835472 119.25925648251273,142.17989099835472 120.7407379378303,142.17989099835472 121.48147866548909,142.17989099835472 122.2222193931479,142.17989099835472 122.96296012080667,142.17989099835472 123.70370084846546,142.17989099835472 124.44444157612426,142.9206317260135 124.44444157612426,142.9206317260135 125.18518230378304,142.9206317260135 125.92592303144183,142.9206317260135 125.92592303144183,143.6613724536723 126.66666375910063,143.6613724536723 127.4074044867594,143.6613724536723 127.4074044867594,143.6613724536723 127.4074044867594,144.4021131813311 128.1481452144182,144.4021131813311 128.88888594207697,144.4021131813311 128.88888594207697,144.4021131813311 129.62962666973579,144.4021131813311 130.37036739739455,144.4021131813311 131.11110812505336,144.4021131813311 131.11110812505336,145.14285390898985 131.11110812505336,145.14285390898985 131.85184885271212,145.14285390898985 132.59258958037094,145.14285390898985 132.59258958037094,145.14285390898985 133.3333303080297,145.14285390898985 133.3333303080297,144.4021131813311 134.07407103568852,144.4021131813311 134.81481176334728,144.4021131813311 134.81481176334728,144.4021131813311 135.5555524910061,144.4021131813311 135.5555524910061,144.4021131813311 136.2962932186649,144.4021131813311 136.2962932186649,144.4021131813311 136.2962932186649,144.4021131813311 137.03703394632367,144.4021131813311 137.03703394632367,144.4021131813311 138.51851540164125,144.4021131813311 140.74073758461765,143.6613724536723 141.4814783122764,143.6613724536723 141.4814783122764,142.9206317260135 142.22221903993523,142.9206317260135 142.22221903993523,142.9206317260135 142.962959767594,142.9206317260135 143.7037004952528,142.9206317260135 144.44444122291156,142.9206317260135 145.18518195057038,142.17989099835472 145.18518195057038,141.43915027069593 145.92592267822914,141.43915027069593 146.66666340588796,140.69840954303714 146.66666340588796,140.69840954303714 147.40740413354672,139.95766881537836 148.14814486120554,139.95766881537836 148.14814486120554,139.21692808771957 148.8888855888643,139.21692808771957 148.8888855888643,139.21692808771957 149.62962631652312,138.47618736006078 149.62962631652312,138.47618736006078 150.37036704418188,137.735446632402 151.1111077718407,136.9947059047432 151.85184849949945,136.9947059047432 152.59258922715827,136.2539651770844 152.59258922715827,135.51322444942562 153.33332995481703,135.51322444942562 153.33332995481703,134.77248372176683 154.07407068247585,134.77248372176683 154.07407068247585,134.77248372176683 154.8148114101346,134.03174299410804 154.8148114101346,134.03174299410804 155.55555213779343,134.03174299410804 155.55555213779343,133.29100226644925 156.2962928654522,133.29100226644925 156.2962928654522,131.80952081113168 156.2962928654522,131.80952081113168 157.037033593111,131.0687800834729 157.77777432076977,130.32803935581407 157.77777432076977,130.32803935581407 158.51851504842858,130.32803935581407 158.51851504842858,129.58729862815528 158.51851504842858,128.8465579004965 159.25925577608734,128.1058171728377 159.99999650374616,128.1058171728377 159.99999650374616,127.36507644517891 160.74073723140492,126.62433571752013 160.74073723140492,126.62433571752013 161.48147795906374,125.88359498986135 161.48147795906374,125.14285426220255 162.2222186867225,124.40211353454376 162.96295941438132,123.66137280688498 162.96295941438132,123.66137280688498 163.70370014204008,122.92063207922618 164.44444086969884,122.92063207922618 164.44444086969884,122.92063207922618 164.44444086969884,122.17989135156739 164.44444086969884,121.43915062390862 165.18518159735765,121.43915062390862 165.18518159735765,120.69840989624984 165.18518159735765,120.69840989624984 165.92592232501642,120.69840989624984 165.92592232501642,119.95766916859104 166.66666305267523,119.95766916859104 166.66666305267523,119.21692844093224 167.407403780334,119.21692844093224 167.407403780334,118.47618771327346 167.407403780334,118.47618771327346 168.1481445079928,118.47618771327346 168.1481445079928,117.73544698561467 168.1481445079928,117.73544698561467 168.1481445079928,116.99470625795587 168.1481445079928,116.99470625795587 168.88888523565157,116.99470625795587 168.88888523565157,116.2539655302971 168.88888523565157,116.2539655302971 169.6296259633104,116.2539655302971 169.6296259633104,115.5132248026383 169.6296259633104,115.5132248026383 169.6296259633104,115.5132248026383 169.6296259633104,115.5132248026383 170.37036669096915,115.5132248026383 170.37036669096915,114.7724840749795 " style="color: rgb(148, 206, 101);"/><polyline fill="none" stroke="#94ce65" stroke-width="12" stroke-linejoin="round" stroke-dashoffset="" fill-rule="nonzero" marker-start="" marker-mid="" marker-end="" id="svg_54" points="137.03703394632367,147.36507609196622 137.03703394632367,147.36507609196622 137.03703394632367,148.105816819625 137.03703394632367,148.8465575472838 137.7777746739825,149.58729827494258 137.7777746739825,150.32803900260137 138.51851540164125,151.06877973026016 138.51851540164125,152.55026118557774 139.25925612930007,153.29100191323653 139.25925612930007,154.03174264089532 139.25925612930007,154.03174264089532 139.25925612930007,154.7724833685541 139.25925612930007,154.7724833685541 139.99999685695883,154.7724833685541 139.99999685695883,156.25396482387168 139.99999685695883,156.25396482387168 140.74073758461765,157.73544627918926 140.74073758461765,158.47618700684805 141.4814783122764,158.47618700684805 141.4814783122764,159.21692773450684 141.4814783122764,159.95766846216563 142.22221903993523,159.95766846216563 142.22221903993523,160.69840918982442 142.22221903993523,161.4391499174832 142.22221903993523,161.4391499174832 142.962959767594,162.179890645142 142.962959767594,162.92063137280078 142.962959767594,162.92063137280078 142.962959767594,164.40211282811836 143.7037004952528,165.14285355577715 143.7037004952528,165.88359428343594 143.7037004952528,165.88359428343594 143.7037004952528,166.62433501109473 143.7037004952528,166.62433501109473 143.7037004952528,167.36507573875352 144.44444122291156,168.1058164664123 144.44444122291156,169.58729792172988 144.44444122291156,169.58729792172988 144.44444122291156,170.32803864938867 144.44444122291156,170.32803864938867 144.44444122291156,171.06877937704746 144.44444122291156,171.80952010470625 144.44444122291156,172.55026083236504 144.44444122291156,172.55026083236504 144.44444122291156,172.55026083236504 144.44444122291156,173.29100156002383 144.44444122291156,174.03174228768262 144.44444122291156,174.7724830153414 144.44444122291156,175.5132237430002 144.44444122291156,176.25396447065899 144.44444122291156,176.99470519831777 144.44444122291156,178.47618665363535 145.18518195057038,178.47618665363535 145.18518195057038,179.21692738129414 145.18518195057038,179.21692738129414 145.18518195057038,179.95766810895293 145.18518195057038,179.95766810895293 145.18518195057038,180.69840883661172 145.18518195057038,181.4391495642705 145.18518195057038,181.4391495642705 145.18518195057038,182.1798902919293 145.92592267822914,182.1798902919293 145.92592267822914,183.66137174724687 146.66666340588796,184.40211247490566 146.66666340588796,184.40211247490566 146.66666340588796,185.14285320256445 146.66666340588796,185.14285320256445 146.66666340588796,185.14285320256445 146.66666340588796,185.88359393022324 147.40740413354672,185.88359393022324 147.40740413354672,185.88359393022324 147.40740413354672,186.62433465788203 147.40740413354672,186.62433465788203 148.14814486120554,186.62433465788203 148.8888855888643,188.1058161131996 148.8888855888643,188.1058161131996 149.62962631652312,188.1058161131996 149.62962631652312,188.8465568408584 149.62962631652312,188.8465568408584 150.37036704418188,188.8465568408584 150.37036704418188,188.8465568408584 150.37036704418188,189.5872975685172 151.1111077718407,189.5872975685172 151.1111077718407,189.5872975685172 " style="color: rgb(148, 206, 101);"/><polyline fill="none" stroke="#94ce65" stroke-width="12" stroke-linejoin="round" stroke-dashoffset="" fill-rule="nonzero" marker-start="" marker-mid="" marker-end="" id="svg_55" points="162.96295941438132,186.62433465788203 162.96295941438132,185.88359393022324 162.2222186867225,184.40211247490566 161.48147795906374,182.1798902919293 159.99999650374616,180.69840883661172 159.99999650374616,179.21692738129414 159.25925577608734,178.47618665363535 158.51851504842858,178.47618665363535 " style="color: rgb(148, 206, 101);"/><polyline fill="none" stroke="#94ce65" stroke-width="12" stroke-linejoin="round" stroke-dashoffset="" fill-rule="nonzero" marker-start="" marker-mid="" marker-end="" id="svg_57" points="88.8888866485024,149.58729827494258 88.8888866485024,149.58729827494258 89.6296273761612,149.58729827494258 91.11110883147877,148.8465575472838 93.33333101445514,148.105816819625 94.07407174211393,147.36507609196622 96.2962939250903,147.36507609196622 97.03703465274909,147.36507609196622 97.03703465274909,147.36507609196622 " style="color: rgb(148, 206, 101);"/><polyline fill="none" stroke="#94ce65" stroke-width="12" stroke-linejoin="round" stroke-dashoffset="" fill-rule="nonzero" marker-start="" marker-mid="" marker-end="" id="svg_58" points="91.11110883147877,128.8465579004965 91.11110883147877,128.8465579004965 91.85184955913756,128.8465579004965 93.33333101445514,130.32803935581407 94.07407174211393,130.32803935581407 95.5555531974315,131.0687800834729 95.5555531974315,131.80952081113168 " style="color: rgb(148, 206, 101);"/><polyline fill="none" stroke="#94ce65" stroke-width="12" stroke-linejoin="round" stroke-dashoffset="" fill-rule="nonzero" marker-start="" marker-mid="" marker-end="" id="svg_59" points="159.99999650374616,108.10581752605043 159.99999650374616,108.10581752605043 159.99999650374616,108.8465582537092 159.25925577608734,110.3280397090268 157.77777432076977,111.80952116434436 156.2962928654522,114.7724840749795 154.07407068247585,116.2539655302971 151.1111077718407,119.21692844093224 150.37036704418188,119.95766916859104 " style="color: rgb(148, 206, 101);"/><polyline fill="none" stroke="#94ce65" stroke-width="12" stroke-linejoin="round" stroke-dashoffset="" fill-rule="nonzero" marker-start="" marker-mid="" marker-end="" id="svg_60" points="176.29629251223946,119.21692844093224 176.29629251223946,119.21692844093224 176.29629251223946,119.21692844093224 177.03703323989828,119.21692844093224 176.29629251223946,119.21692844093224 174.81481105692188,120.69840989624984 171.85184814628673,122.92063207922618 168.88888523565157,125.14285426220255 165.18518159735765,127.36507644517891 162.2222186867225,130.32803935581407 " style="color: rgb(148, 206, 101);"/><polyline fill="none" stroke="#94ce65" stroke-width="12" stroke-linejoin="round" stroke-dashoffset="" fill-rule="nonzero" marker-start="" marker-mid="" marker-end="" id="svg_61" points="96.2962939250903,134.03174299410804 96.2962939250903,133.29100226644925 96.2962939250903,133.29100226644925 97.03703465274909,133.29100226644925 99.25925683572545,133.29100226644925 100.74073829104303,133.29100226644925 102.2222197463606,133.29100226644925 103.7037012016782,133.29100226644925 " style="color: rgb(148, 206, 101);"/><polyline fill="none" stroke="#94ce65" stroke-width="12" stroke-linejoin="round" stroke-dashoffset="" fill-rule="nonzero" marker-start="" marker-mid="" marker-end="" id="svg_62" points="94.81481246977272,145.14285390898985 95.5555531974315,145.14285390898985 95.5555531974315,145.14285390898985 96.2962939250903,145.14285390898985 97.03703465274909,145.14285390898985 99.99999756338423,145.14285390898985 101.48147901870182,145.14285390898985 106.66666411231334,144.4021131813311 108.88888629528971,143.6613724536723 109.6296270229485,142.9206317260135 " style="color: rgb(148, 206, 101);"/><polyline fill="none" stroke="#94ce65" stroke-width="12" stroke-linejoin="round" stroke-dashoffset="" fill-rule="nonzero" marker-start="" marker-mid="" marker-end="" id="svg_63" points="97.77777538040786,131.80952081113168 99.25925683572545,131.80952081113168 99.99999756338423,132.55026153879047 103.7037012016782,133.29100226644925 105.92592338465457,134.77248372176683 108.88888629528971,136.2539651770844 111.85184920592486,137.735446632402 113.33333066124244,138.47618736006078 113.33333066124244,138.47618736006078 " style="color: rgb(148, 206, 101);" class=""/><polyline fill="none" stroke="#94ce65" stroke-width="12" stroke-linejoin="round" stroke-dashoffset="" fill-rule="nonzero" marker-start="" marker-mid="" marker-end="" id="svg_64" points="159.25925577608734,180.69840883661172 157.77777432076977,180.69840883661172 157.037033593111,179.21692738129414 155.55555213779343,176.99470519831777 152.59258922715827,174.03174228768262 151.85184849949945,171.06877937704746 149.62962631652312,168.8465571940711 148.8888855888643,167.36507573875352 148.14814486120554,166.62433501109473 " style="color: rgb(148, 206, 101);"/><polyline fill="none" stroke="#94ce65" stroke-width="12" stroke-linejoin="round" stroke-dashoffset="" fill-rule="nonzero" marker-start="" marker-mid="" marker-end="" id="svg_65" points="138.51851540164125,174.7724830153414 138.51851540164125,172.55026083236504 138.51851540164125,172.55026083236504 138.51851540164125,171.80952010470625 138.51851540164125,170.32803864938867 138.51851540164125,167.36507573875352 138.51851540164125,165.88359428343594 139.25925612930007,159.95766846216563 139.99999685695883,156.25396482387168 140.74073758461765,152.55026118557774 140.74073758461765,150.32803900260137 140.74073758461765,149.58729827494258 " style="color: rgb(148, 206, 101);" class=""/><polyline fill="none" stroke="#94ce65" stroke-width="12" stroke-linejoin="round" stroke-dashoffset="" fill-rule="nonzero" marker-start="" marker-mid="" marker-end="" id="svg_66" points="134.07407103568852,158.47618700684805 133.3333303080297,156.99470555153047 133.3333303080297,156.25396482387168 132.59258958037094,155.5132240962129 131.85184885271212,154.7724833685541 131.11110812505336,153.29100191323653 129.62962666973579,152.55026118557774 128.88888594207697,151.06877973026016 128.88888594207697,151.06877973026016 " style="color: rgb(148, 206, 101);"/><polyline fill="none" stroke="#94ce65" stroke-width="12" stroke-linejoin="round" stroke-dashoffset="" fill-rule="nonzero" marker-start="" marker-mid="" marker-end="" id="svg_67" points="125.18518230378304,149.58729827494258 124.44444157612426,148.8465575472838 124.44444157612426,148.105816819625 124.44444157612426,147.36507609196622 122.2222193931479,145.14285390898985 120.7407379378303,143.6613724536723 120.7407379378303,143.6613724536723 119.99999721017153,142.9206317260135 119.99999721017153,142.9206317260135 119.25925648251273,142.9206317260135 " style="color: rgb(148, 206, 101);"/><polyline fill="none" stroke="#94ce65" stroke-width="12" stroke-linejoin="round" stroke-dashoffset="" fill-rule="nonzero" marker-start="" marker-mid="" marker-end="" id="svg_68" points="156.2962928654522,135.51322444942562 155.55555213779343,135.51322444942562 155.55555213779343,135.51322444942562 154.8148114101346,135.51322444942562 154.8148114101346,135.51322444942562 154.07407068247585,135.51322444942562 153.33332995481703,135.51322444942562 153.33332995481703,135.51322444942562 152.59258922715827,135.51322444942562 152.59258922715827,136.2539651770844 " style="color: rgb(148, 206, 101);"/><polyline fill="none" stroke="#94ce65" stroke-width="12" stroke-linejoin="round" stroke-dashoffset="" fill-rule="nonzero" marker-start="" marker-mid="" marker-end="" id="svg_69" points="152.59258922715827,126.62433571752013 151.85184849949945,126.62433571752013 151.85184849949945,125.88359498986135 151.85184849949945,125.88359498986135 151.85184849949945,125.14285426220255 151.85184849949945,124.40211353454376 151.85184849949945,123.66137280688498 151.85184849949945,123.66137280688498 151.85184849949945,122.92063207922618 " style="color: rgb(148, 206, 101);"/><polyline fill="none" stroke="#94ce65" stroke-width="12" stroke-linejoin="round" stroke-dashoffset="" fill-rule="nonzero" marker-start="" marker-mid="" marker-end="" id="svg_70" points="152.59258922715827,119.21692844093224 151.85184849949945,119.95766916859104 151.1111077718407,120.69840989624984 151.1111077718407,122.92063207922618 149.62962631652312,124.40211353454376 148.8888855888643,127.36507644517891 148.14814486120554,128.8465579004965 147.40740413354672,130.32803935581407 " style="color: rgb(148, 206, 101);"/><polyline fill="none" stroke="#94ce65" stroke-width="12" stroke-linejoin="round" stroke-dashoffset="" fill-rule="nonzero" marker-start="" marker-mid="" marker-end="" id="svg_71" points="165.92592232501642,136.2539651770844 165.92592232501642,136.2539651770844 165.18518159735765,136.2539651770844 165.18518159735765,136.2539651770844 163.70370014204008,136.2539651770844 161.48147795906374,136.2539651770844 159.25925577608734,136.2539651770844 156.2962928654522,136.2539651770844 155.55555213779343,136.2539651770844 " style="color: rgb(148, 206, 101);"/><polyline fill="none" stroke="#94ce65" stroke-width="12" stroke-linejoin="round" stroke-dashoffset="" fill-rule="nonzero" marker-start="" marker-mid="" marker-end="" id="svg_56" points="138.51851540164125,189.5872975685172 137.7777746739825,188.8465568408584 137.03703394632367,187.36507538554082 136.2962932186649,186.62433465788203 136.2962932186649,185.14285320256445 135.5555524910061,182.1798902919293 134.81481176334728,176.25396447065899 134.81481176334728,173.29100156002383 134.81481176334728,173.29100156002383 135.5555524910061,173.29100156002383 " style="color: rgb(148, 206, 101);" class=""/><path fill="#eaf2c1" fill-opacity="1" stroke="none" stroke-opacity="1" stroke-width="22" stroke-dasharray="none" stroke-linejoin="round" stroke-linecap="butt" stroke-dashoffset="" fill-rule="nonzero" opacity="1" marker-start="" marker-mid="" marker-end="" d="M112.85185414552689,176.09259343147278 C112.85185414552689,173.6064055861689 117.99826298530587,171.59259343147278 124.35185414552689,171.59259343147278 C130.7054453057479,171.59259343147278 135.8518541455269,173.6064055861689 135.8518541455269,176.09259343147278 C135.8518541455269,178.57878127677665 130.7054453057479,180.59259343147278 124.35185414552689,180.59259343147278 C117.99826298530587,180.59259343147278 112.85185414552689,178.57878127677665 112.85185414552689,176.09259343147278 z" class="" transform="rotate(-57.66835403442383 124.35185241699214,176.09259033203125) " id="svg_29"/><polyline fill="none" stroke="#000000" stroke-width="22" stroke-linejoin="round" stroke-dashoffset="" fill-rule="nonzero" marker-start="" marker-mid="" marker-end="" id="svg_72" points="112.59258993358364,137.735446632402 112.59258993358364,137.735446632402 " style="color: rgb(148, 206, 101);"/><polyline fill="none" stroke="#94ce65" stroke-width="12" stroke-linejoin="round" stroke-dashoffset="" fill-rule="nonzero" marker-start="" marker-mid="" marker-end="" id="svg_73" points="88.19047396242411,142.70899151811096 88.19047396242411,142.70899151811096 88.19047396242411,141.96825079045217 88.19047396242411,141.22751006279339 88.19047396242411,140.4867693351346 88.19047396242411,139.00528787981702 88.19047396242411,137.52380642449944 88.19047396242411,136.78306569684065 88.19047396242411,136.04232496918186 87.44973323476532,135.30158424152307 87.44973323476532,135.30158424152307 87.44973323476532,134.56084351386428 86.70899250710653,133.8201027862055 86.70899250710653,133.0793620585467 85.96825177944774,131.59788060322913 85.22751105178895,130.85713987557037 85.22751105178895,130.85713987557037 85.22751105178895,129.3756584202528 84.48677032413016,129.3756584202528 84.48677032413016,127.8941769649352 83.74602959647137,127.15343623727642 83.74602959647137,126.41269550961762 83.74602959647137,126.41269550961762 83.74602959647137,125.67195478195883 83.00528886881258,124.19047332664125 83.00528886881258,123.44973259898246 83.00528886881258,122.70899187132369 82.2645481411538,121.96825114366489 82.2645481411538,121.96825114366489 82.2645481411538,121.2275104160061 82.2645481411538,121.2275104160061 82.2645481411538,120.48676968834732 81.523807413495,119.00528823302972 81.523807413495,118.26454750537094 80.78306668583622,117.52380677771215 80.78306668583622,116.78306605005335 80.78306668583622,116.04232532239456 80.78306668583622,115.30158459473576 80.78306668583622,114.56084386707698 80.78306668583622,114.56084386707698 80.04232595817743,113.8201031394182 80.04232595817743,113.8201031394182 80.04232595817743,113.8201031394182 80.04232595817743,113.07936241175939 80.04232595817743,112.33862168410062 80.04232595817743,111.59788095644183 80.04232595817743,110.85714022878302 80.04232595817743,110.11639950112425 80.04232595817743,109.37565877346546 80.04232595817743,108.63491804580669 80.04232595817743,108.63491804580669 80.04232595817743,107.89417731814791 80.04232595817743,107.15343659048911 80.04232595817743,107.15343659048911 80.78306668583622,106.41269586283032 80.78306668583622,105.67195513517154 80.78306668583622,105.67195513517154 80.78306668583622,104.93121440751274 80.78306668583622,104.93121440751274 80.78306668583622,104.19047367985395 80.78306668583622,103.44973295219518 80.78306668583622,103.44973295219518 81.523807413495,102.70899222453637 81.523807413495,101.96825149687757 81.523807413495,101.2275107692188 82.2645481411538,101.2275107692188 82.2645481411538,100.48677004156 83.00528886881258,99.00528858624243 83.74602959647137,99.00528858624243 83.74602959647137,98.26454785858364 84.48677032413016,97.52380713092484 84.48677032413016,96.78306640326606 85.22751105178895,96.78306640326606 85.22751105178895,96.04232567560727 85.96825177944774,95.30158494794847 85.96825177944774,95.30158494794847 85.96825177944774,95.30158494794847 85.96825177944774,94.5608442202897 86.70899250710653,94.5608442202897 86.70899250710653,94.5608442202897 87.44973323476532,93.8201034926309 88.19047396242411,93.8201034926309 88.9312146900829,93.07936276497212 89.67195541774169,92.33862203731333 90.41269614540047,91.59788130965454 90.41269614540047,91.59788130965454 91.15343687305926,91.59788130965454 91.89417760071805,90.85714058199575 91.89417760071805,90.85714058199575 92.63491832837684,90.11639985433696 92.63491832837684,90.11639985433696 93.37565905603563,90.11639985433696 94.11639978369442,90.11639985433696 94.85714051135321,90.11639985433696 95.597881239012,89.37565912667817 95.597881239012,89.37565912667817 96.33862196667077,89.37565912667817 96.33862196667077,88.63491839901938 97.07936269432957,88.63491839901938 97.07936269432957,88.63491839901938 97.07936269432957,88.63491839901938 97.82010342198836,88.63491839901938 97.82010342198836,88.63491839901938 98.56084414964714,87.8941776713606 100.04232560496473,87.1534369437018 101.52380706028231,86.41269621604302 102.2645477879411,86.41269621604302 102.2645477879411,85.67195548838423 103.00528851559989,85.67195548838423 103.00528851559989,85.67195548838423 103.74602924325868,85.67195548838423 103.74602924325868,85.67195548838423 104.48676997091748,85.67195548838423 105.96825142623504,85.67195548838423 107.44973288155262,85.67195548838423 108.93121433687021,85.67195548838423 110.41269579218778,85.67195548838423 111.15343651984655,85.67195548838423 111.89417724750535,85.67195548838423 111.89417724750535,85.67195548838423 112.63491797516414,85.67195548838423 112.63491797516414,85.67195548838423 112.63491797516414,85.67195548838423 113.37565870282292,85.67195548838423 114.85714015814051,85.67195548838423 115.59788088579928,85.67195548838423 116.33862161345809,85.67195548838423 117.07936234111688,85.67195548838423 117.82010306877565,85.67195548838423 117.82010306877565,85.67195548838423 118.56084379643445,86.41269621604302 119.30158452409324,86.41269621604302 120.04232525175203,86.41269621604302 120.04232525175203,86.41269621604302 120.04232525175203,86.41269621604302 120.78306597941082,86.41269621604302 121.52380670706962,86.41269621604302 122.2645474347284,86.41269621604302 123.00528816238719,86.41269621604302 123.74602889004599,87.1534369437018 124.48676961770477,87.1534369437018 124.48676961770477,87.1534369437018 125.22751034536354,87.1534369437018 125.22751034536354,87.1534369437018 126.7089918006811,87.1534369437018 127.44973252833988,87.8941776713606 128.19047325599868,87.8941776713606 128.93121398365747,87.8941776713606 129.67195471131626,87.8941776713606 130.41269543897505,88.63491839901938 130.41269543897505,88.63491839901938 131.15343616663384,89.37565912667817 131.89417689429263,89.37565912667817 132.63491762195142,89.37565912667817 134.85713980492778,90.11639985433696 135.59788053258657,90.11639985433696 136.33862126024536,90.11639985433696 137.07936198790415,90.11639985433696 137.07936198790415,90.11639985433696 137.82010271556294,90.11639985433696 137.82010271556294,90.11639985433696 138.56084344322173,90.85714058199575 139.30158417088052,90.85714058199575 140.0423248985393,90.85714058199575 141.52380635385688,90.85714058199575 142.26454708151567,91.59788130965454 143.74602853683328,91.59788130965454 144.48676926449204,91.59788130965454 145.22750999215086,91.59788130965454 146.70899144746843,91.59788130965454 147.4497321751272,91.59788130965454 148.190472902786,91.59788130965454 148.190472902786,92.33862203731333 149.6719543581036,92.33862203731333 149.6719543581036,93.07936276497212 150.41269508576235,93.07936276497212 151.15343581342117,93.07936276497212 151.89417654107993,93.07936276497212 151.89417654107993,93.8201034926309 152.63491726873875,93.8201034926309 154.11639872405632,94.5608442202897 154.85713945171508,95.30158494794847 155.5978801793739,96.04232567560727 156.33862090703266,96.04232567560727 157.07936163469148,96.78306640326606 157.82010236235024,97.52380713092484 158.56084309000906,97.52380713092484 159.30158381766782,97.52380713092484 160.04232454532664,99.00528858624243 160.7830652729854,99.00528858624243 160.7830652729854,99.7460293139012 161.5238060006442,100.48677004156 162.26454672830297,100.48677004156 163.0052874559618,100.48677004156 163.0052874559618,101.2275107692188 163.74602818362055,101.2275107692188 164.48676891127937,101.96825149687757 165.96825036659695,101.96825149687757 166.7089910942557,101.96825149687757 168.1904725495733,102.70899222453637 169.67195400489086,103.44973295219518 171.15343546020844,104.19047367985395 171.8941761878672,104.19047367985395 173.37565764318478,104.93121440751274 174.1163983708436,105.67195513517154 174.85713909850236,105.67195513517154 175.59787982616118,105.67195513517154 175.59787982616118,105.67195513517154 177.07936128147875,106.41269586283032 178.56084273679633,106.41269586283032 179.3015834644551,107.15343659048911 179.3015834644551,107.15343659048911 180.0423241921139,107.89417731814791 180.78306491977267,108.63491804580669 182.26454637509025,109.37565877346546 183.74602783040783,110.11639950112425 184.48676855806664,110.85714022878302 186.70899074104298,111.59788095644183 186.70899074104298,112.33862168410062 187.4497314687018,113.07936241175939 188.93121292401938,113.8201031394182 189.6719536516781,114.56084386707698 191.15343510699572,114.56084386707698 191.15343510699572,115.30158459473576 191.89417583465456,116.04232532239456 191.89417583465456,116.78306605005335 192.6349165623133,117.52380677771215 192.6349165623133,118.26454750537094 193.3756572899721,118.26454750537094 193.3756572899721,119.74602896068852 194.11639801763084,119.74602896068852 194.11639801763084,120.48676968834732 194.8571387452897,121.2275104160061 194.8571387452897,122.70899187132369 195.59787947294845,123.44973259898246 195.59787947294845,124.93121405430006 196.3386202006073,125.67195478195883 196.3386202006073,125.67195478195883 196.3386202006073,126.41269550961762 197.07936092826603,127.15343623727642 197.07936092826603,127.8941769649352 197.82010165592484,128.634917692594 197.82010165592484,129.3756584202528 198.56084238358358,129.3756584202528 198.56084238358358,130.11639914791158 198.56084238358358,130.85713987557037 198.56084238358358,130.85713987557037 198.56084238358358,130.85713987557037 199.30158311124242,131.59788060322913 199.30158311124242,132.33862133088792 199.30158311124242,133.0793620585467 200.04232383890118,133.8201027862055 200.04232383890118,134.56084351386428 200.78306456656003,135.30158424152307 201.52380529421876,136.04232496918186 202.26454602187758,137.52380642449944 203.0052867495363,137.52380642449944 203.0052867495363,137.52380642449944 203.0052867495363,138.26454715215823 203.0052867495363,139.00528787981702 203.0052867495363,139.00528787981702 203.74602747719516,140.4867693351346 204.48676820485392,141.22751006279339 204.48676820485392,141.22751006279339 205.2275089325127,141.96825079045217 205.2275089325127,142.70899151811096 205.2275089325127,144.19047297342854 205.2275089325127,144.93121370108733 205.96824966017152,145.67195442874612 205.96824966017152,147.1534358840637 206.7089903878303,147.8941766117225 206.7089903878303,148.63491733938127 206.7089903878303,149.37565806704006 206.7089903878303,150.11639879469885 206.7089903878303,151.59788025001643 206.7089903878303,153.079361705334 206.7089903878303,153.8201024329928 207.44973111548907,154.5608431606516 207.44973111548907,156.04232461596916 207.44973111548907,156.78306534362795 207.44973111548907,158.26454679894553 207.44973111548907,159.7460282542631 207.44973111548907,160.4867689819219 207.44973111548907,161.2275097095807 207.44973111548907,162.70899116489826 207.44973111548907,164.19047262021584 207.44973111548907,164.93121334787463 207.44973111548907,165.67195407553342 207.44973111548907,165.67195407553342 207.44973111548907,167.153435530851 207.44973111548907,167.8941762585098 207.44973111548907,168.63491698616858 207.44973111548907,169.37565771382737 207.44973111548907,170.11639844148615 207.44973111548907,171.59787989680373 207.44973111548907,172.33862062446252 207.44973111548907,173.0793613521213 206.7089903878303,173.8201020797801 205.96824966017152,175.30158353509768 205.2275089325127,176.04232426275647 205.2275089325127,176.78306499041526 204.48676820485392,176.78306499041526 204.48676820485392,176.78306499041526 204.48676820485392,176.78306499041526 203.74602747719516,176.78306499041526 203.74602747719516,177.52380571807404 203.0052867495363,178.26454644573283 202.26454602187758,179.00528717339162 201.52380529421876,179.00528717339162 200.78306456656003,179.7460279010504 200.04232383890118,179.7460279010504 199.30158311124242,180.4867686287092 199.30158311124242,180.4867686287092 198.56084238358358,180.4867686287092 197.82010165592484,180.4867686287092 196.3386202006073,181.227509356368 195.59787947294845,181.227509356368 195.59787947294845,181.96825008402678 194.8571387452897,181.96825008402678 194.11639801763084,181.96825008402678 192.6349165623133,182.70899081168557 191.89417583465456,183.44973153934436 191.15343510699572,183.44973153934436 189.6719536516781,184.19047226700314 188.19047219636056,184.93121299466193 186.70899074104298,184.93121299466193 185.96825001338422,185.67195372232072 184.48676855806664,185.67195372232072 183.74602783040783,186.4126944499795 183.00528710274907,186.4126944499795 181.5238056474315,187.1534351776383 180.78306491977267,187.1534351776383 179.3015834644551,187.8941759052971 177.8201020091375,188.63491663295588 175.59787982616118,189.37565736061467 174.85713909850236,189.37565736061467 173.37565764318478,190.11639808827348 172.63491691552602,190.11639808827348 172.63491691552602,190.85713881593222 171.8941761878672,190.85713881593222 171.8941761878672,190.85713881593222 170.41269473254968,191.59787954359103 168.9312132772321,192.33862027124982 167.44973182191453,192.33862027124982 165.96825036659695,192.33862027124982 165.22750963893813,192.33862027124982 163.74602818362055,193.0793609989086 163.0052874559618,193.8201017265674 162.26454672830297,193.8201017265674 160.7830652729854,193.8201017265674 160.04232454532664,194.56084245422622 160.04232454532664,194.56084245422622 159.30158381766782,194.56084245422622 157.82010236235024,195.30158318188495 156.33862090703266,195.30158318188495 154.85713945171508,196.04232390954377 154.11639872405632,196.04232390954377 153.3756579963975,196.78306463720256 151.89417654107993,196.78306463720256 151.15343581342117,196.78306463720256 150.41269508576235,196.78306463720256 148.93121363044477,196.78306463720256 148.190472902786,197.52380536486135 146.70899144746843,197.52380536486135 145.96825071980962,197.52380536486135 143.74602853683328,198.26454609252013 143.00528780917446,198.26454609252013 141.52380635385688,198.26454609252013 140.0423248985393,199.00528682017895 138.56084344322173,199.00528682017895 137.07936198790415,199.74602754783768 135.59788053258657,199.74602754783768 134.116399077269,199.74602754783768 133.3756583496102,199.74602754783768 132.63491762195142,199.74602754783768 131.89417689429263,199.74602754783768 130.41269543897505,199.74602754783768 128.19047325599868,199.74602754783768 126.7089918006811,199.74602754783768 125.22751034536354,199.74602754783768 123.74602889004599,199.74602754783768 122.2645474347284,199.74602754783768 120.78306597941082,199.00528682017895 120.04232525175203,199.00528682017895 120.04232525175203,199.00528682017895 119.30158452409324,199.00528682017895 117.82010306877565,199.00528682017895 116.33862161345809,198.26454609252013 113.37565870282292,196.78306463720256 111.89417724750535,196.78306463720256 109.67195506452899,195.30158318188495 106.70899215389385,194.56084245422622 105.96825142623504,193.8201017265674 104.48676997091748,193.0793609989086 103.74602924325868,192.33862027124982 103.00528851559989,192.33862027124982 102.2645477879411,191.59787954359103 101.52380706028231,190.85713881593222 100.7830663326235,190.85713881593222 100.7830663326235,190.11639808827348 100.04232560496473,189.37565736061467 98.56084414964714,188.63491663295588 97.82010342198836,187.8941759052971 97.07936269432957,187.1534351776383 96.33862196667077,186.4126944499795 95.597881239012,185.67195372232072 94.85714051135321,184.93121299466193 94.11639978369442,184.19047226700314 92.63491832837684,182.70899081168557 92.63491832837684,181.96825008402678 91.89417760071805,181.227509356368 91.15343687305926,180.4867686287092 90.41269614540047,179.7460279010504 88.9312146900829,178.26454644573283 88.9312146900829,176.78306499041526 88.9312146900829,176.78306499041526 88.19047396242411,176.04232426275647 87.44973323476532,174.5608428074389 87.44973323476532,173.0793613521213 86.70899250710653,172.33862062446252 86.70899250710653,170.85713916914494 85.96825177944774,169.37565771382737 85.96825177944774,168.63491698616858 85.96825177944774,167.8941762585098 85.96825177944774,166.4126948031922 85.96825177944774,165.67195407553342 85.22751105178895,164.93121334787463 85.22751105178895,162.70899116489826 85.22751105178895,161.96825043723948 84.48677032413016,161.2275097095807 84.48677032413016,159.7460282542631 84.48677032413016,159.00528752660432 84.48677032413016,157.52380607128674 84.48677032413016,156.78306534362795 84.48677032413016,155.30158388831038 84.48677032413016,153.8201024329928 84.48677032413016,153.079361705334 84.48677032413016,151.59788025001643 85.22751105178895,148.63491733938127 85.22751105178895,147.1534358840637 85.22751105178895,146.4126951564049 85.22751105178895,145.67195442874612 85.96825177944774,144.93121370108733 85.96825177944774,144.19047297342854 85.96825177944774,143.44973224576975 85.96825177944774,141.96825079045217 85.96825177944774,141.22751006279339 86.70899250710653,140.4867693351346 86.70899250710653,139.00528787981702 86.70899250710653,138.26454715215823 87.44973323476532,137.52380642449944 87.44973323476532,137.52380642449944 87.44973323476532,137.52380642449944 87.44973323476532,136.78306569684065 " style="color: rgb(224, 242, 198);"/></g></svg>