<svg xmlns="http://www.w3.org/2000/svg" xmlns:se="http://svg-edit.googlecode.com" xmlns:xlink="http://www.w3.org/1999/xlink" xmlns:dc="http://purl.org/dc/elements/1.1/" xmlns:cc="http://creativecommons.org/ns#" xmlns:rdf="http://www.w3.org/1999/02/22-rdf-syntax-ns#" xmlns:inkscape="http://www.inkscape.org/namespaces/inkscape" width="300" height="300" style="">                                    <title>my vector image</title>                                    <!-- Created with Vector Paint - http://www.vectorpaint.yaks.com/ https://chrome.google.com/webstore/detail/hnbpdiengicdefcjecjbnjnoifekhgdo -->                                    <rect id="backgroundrect" width="100%" height="100%" x="0" y="0" fill="#FFFFFF" stroke="none" class="" style="" opacity="0"/>                                <g class="currentLayer" style=""><title>Layer 1</title><path fill="none" fill-opacity="1" stroke="#808000" stroke-opacity="1" stroke-width="38" stroke-dasharray="none" stroke-linejoin="round" stroke-linecap="butt" stroke-dashoffset="" fill-rule="nonzero" opacity="1" marker-start="" marker-mid="" marker-end="" d="M92.99999881786641,142.9999982789653 C92.99999881786641,118.32228284171589 113.73480481541175,98.33333333754388 139.33333073830727,98.33333333754388 C164.93185666120274,98.33333333754388 185.6666626587481,118.32228284171589 185.6666626587481,142.9999982789653 C185.6666626587481,167.67771371621473 164.93185666120274,187.66666322038674 139.33333073830727,187.66666322038674 C113.73480481541175,187.66666322038674 92.99999881786641,167.67771371621473 92.99999881786641,142.9999982789653 z" id="svg_9" class=""/><polyline fill="none" stroke="#9b9b1b" stroke-width="31" stroke-linejoin="round" stroke-dashoffset="" fill-rule="nonzero" marker-start="" marker-mid="" marker-end="" id="svg_1" points="118.84590908242171,112.43710592736079 118.84590908242171,112.43710592736079 119.30284607036538,112.43710592736079 120.2167126774898,111.52292246343131 121.58751627255788,111.06584546899239 122.50137551091939,110.15167674258873 124.32910135640532,109.6945923793869 125.24296796352974,108.78042365298325 126.15684193941706,108.32333928978142 127.07068644025276,107.86624755781668 127.52765290324805,107.86624755781668 127.98455304737718,107.86624755781668 128.44147529779502,107.86624755781668 128.8984343920274,107.86624755781668 129.81229363038892,107.40917056337776 130.72616760627625,106.95210093770174 131.64002684463776,106.95210093770174 132.09696383258142,106.4950018369741 133.4677600588866,106.03792484253518 134.83855628519177,106.03792484253518 135.75241552355328,105.58084047933335 137.12321174985846,105.58084047933335 137.12321174985846,105.58084047933335 137.5801340002763,105.58084047933335 138.9509449641073,105.12376348489443 139.40789668957677,104.66667175292969 140.3217706654641,104.66667175292969 140.77869291588195,104.66667175292969 142.14950387971294,104.66667175292969 142.60641139260497,104.66667175292969 142.60641139260497,104.66667175292969 143.06334838054863,104.66667175292969 143.97722235643596,104.66667175292969 144.8910963323233,104.66667175292969 146.26189255862846,104.66667175292969 146.26189255862846,104.66667175292969 146.7188000715205,104.66667175292969 148.08961103535148,104.66667175292969 148.08961103535148,104.66667175292969 149.46040726165666,104.66667175292969 149.91734424960032,105.12376348489443 150.37426650001817,105.12376348489443 150.83121822548765,105.12376348489443 151.2881404759055,105.58084047933335 151.74507746384916,105.58084047933335 151.74507746384916,105.58084047933335 151.74507746384916,106.03792484253518 152.201999714267,106.03792484253518 152.65893670221067,106.03792484253518 153.11588842768015,106.03792484253518 153.57279594057218,106.03792484253518 154.48669939151114,106.95210093770174 155.40054389234683,106.95210093770174 156.31440313070834,107.40917056337776 157.2282918441215,107.86624755781668 157.2282918441215,107.86624755781668 157.68519935701352,107.86624755781668 158.142151082483,108.32333928978142 158.59907333290084,108.78042365298325 159.0560103208445,108.78042365298325 159.0560103208445,108.78042365298325 159.51291783373654,109.23750801618507 159.96988429673183,109.6945923793869 160.88372879756753,109.6945923793869 160.88372879756753,109.6945923793869 161.79760277345486,110.15167674258873 162.25453976139852,110.60875373702766 162.71147674934218,111.06584546899239 163.16839899976003,111.52292246343131 163.6253359877037,111.52292246343131 164.08228771317317,111.52292246343131 164.5391952260652,112.43710592736079 164.5391952260652,112.8941755530368 164.99613221400887,113.35126728500154 165.90999145237038,113.80835164820337 166.36691370278822,114.72250563708121 166.8238654282577,115.17960473780886 167.28078767867555,115.17960473780886 167.7377099290934,115.63668910101069 168.19466165456288,116.55085782741435 168.19466165456288,116.55085782741435 168.6515691674549,117.00792745309036 169.1085208929244,117.00792745309036 169.56547261839387,117.465026553818 170.02239486881172,118.37918791145876 170.02239486881172,118.37918791145876 170.93626884469904,118.83626490589768 171.3931910951169,119.75044836982715 171.3931910951169,120.20752536426608 171.85014282058637,120.6646097274679 172.30707980853003,121.12169409066973 173.22095378441736,122.03585544831049 173.6778760348352,122.49295454903813 173.6778760348352,122.95003154347705 174.13479828525305,122.95003154347705 174.13479828525305,123.86420026988071 174.5917205356709,124.32127726431963 175.04867226114038,124.32127726431963 175.04867226114038,125.23544599072329 175.5055797740324,126.14960734836404 175.9625314995019,126.6067211866175 176.41943901239392,127.52088991302116 176.41943901239392,127.97794480117136 176.8763907378634,128.4350291643732 177.33331298828125,129.34921262830267 177.33331298828125,129.8062969915045 177.33331298828125,130.26338135470633 177.33331298828125,130.72046571790816 177.33331298828125,131.634619706786 177.33331298828125,131.634619706786 177.33331298828125,132.54878843318966 177.33331298828125,133.46297189711913 177.33331298828125,133.92004152279515 177.33331298828125,134.37712588599697 177.33331298828125,135.29127987487482 177.33331298828125,135.29127987487482 177.33331298828125,136.2054780763301 177.33331298828125,136.6625329644803 177.33331298828125,137.11964680273377 177.33331298828125,138.0338007916116 177.33331298828125,138.94796951801527 177.33331298828125,139.40503914369128 177.33331298828125,140.31922260762076 177.33331298828125,140.7763217083484 176.8763907378634,141.69046095970043 176.8763907378634,142.6046444236299 176.8763907378634,142.6046444236299 176.8763907378634,143.06174352435755 176.41943901239392,143.51878367498193 176.41943901239392,143.9758975132354 176.41943901239392,144.43298187643722 175.9625314995019,144.89008097716487 175.9625314995019,145.34715060284088 175.9625314995019,145.8042202285169 175.9625314995019,146.26130459171873 175.5055797740324,146.26130459171873 175.5055797740324,146.71840369244637 175.5055797740324,147.63257241885003 175.5055797740324,149.91797949733336 175.5055797740324,150.83216296126284 175.04867226114038,152.2034013133425 174.5917205356709,154.48882312935166 174.13479828525305,155.40302133080695 173.6778760348352,156.31714584463316 173.6778760348352,156.7742449453608 173.22095378441736,157.23132930856264 172.76398732142206,158.6025676606423 172.30707980853003,159.51675112457178 171.85014282058637,160.88798947665146 171.3931910951169,162.25925730378276 170.02239486881172,164.54464964474028 170.02239486881172,165.00176348299374 169.1085208929244,166.37301657259923 168.6515691674549,166.83008619827524 168.19466165456288,167.28717056147707 168.19466165456288,167.74426966220472 167.7377099290934,168.20133928788073 166.8238654282577,168.65843838860837 166.36691370278822,169.57259237748622 166.36691370278822,170.02969147821386 164.99613221400887,170.02969147821386 164.5391952260652,171.40091509276772 163.6253359877037,171.85802893102118 162.71147674934218,172.3150985566972 162.25453976139852,173.68635164630268 161.340680523037,173.68635164630268 159.96988429673183,174.1434360095045 159.0560103208445,175.05757526085654 157.68519935701352,175.51468909911 156.31440313070834,176.42887256303948 154.94362164192898,177.34302655191732 154.02973292851584,177.34302655191732 152.201999714267,177.34302655191732 149.91734424960032,177.80009617759333 149.91734424960032,178.25719527832098 148.08961103535148,178.7142796415228 147.17575179698997,178.7142796415228 146.7188000715205,178.7142796415228 146.26189255862846,178.7142796415228 146.26189255862846,178.7142796415228 145.34803332026695,178.7142796415228 144.4341446068538,178.7142796415228 143.06334838054863,178.7142796415228 142.60641139260497,178.7142796415228 141.69255215424346,178.7142796415228 140.3217706654641,178.7142796415228 139.40789668957677,178.7142796415228 138.49400797616363,178.7142796415228 137.12321174985846,178.7142796415228 136.6662894994406,178.7142796415228 135.75241552355328,178.7142796415228 135.29550801066125,178.7142796415228 134.83855628519177,178.7142796415228 134.38164877229974,178.7142796415228 133.01083780846875,178.7142796415228 132.09696383258142,178.7142796415228 130.72616760627625,178.7142796415228 129.81229363038892,178.7142796415228 127.98455304737718,178.25719527832098 127.07068644025276,178.25719527832098 126.61376418983491,178.25719527832098 126.15684193941706,178.25719527832098 126.15684193941706,178.25719527832098 126.15684193941706,177.80009617759333 125.24296796352974,177.80009617759333 123.87217173722456,177.34302655191732 122.50137551091939,176.8859421887155 121.13058665337712,176.8859421887155 120.2167126774898,176.42887256303948 119.75976832078322,175.97177346231183 118.84590908242171,175.51468909911 117.9320498440602,175.05757526085654 117.01818323693578,174.60052037270634 116.56126098651794,173.68635164630268 116.10431662981136,173.68635164630268 115.19045739144985,173.22926728310085 114.27657604679962,171.85802893102118 113.36271680843811,171.85802893102118 112.90579455802026,170.48674636636406 111.99192058213293,170.02969147821386 111.53498359418927,169.57259237748622 111.07805397500852,168.65843838860837 110.16417999912119,167.74426966220472 109.70724301117752,167.28717056147707 109.25032076075968,166.37301657259923 108.79338377281601,165.9159469469232 108.33645415363526,165.45883310866975 107.8795245344545,164.54464964474028 107.42259491527375,164.54464964474028 106.96565792733008,163.63051039338825 106.50872830814933,162.71632692945877 106.05179132020567,162.71632692945877 106.05179132020567,161.3450885773791 105.13791734431834,160.43090511344963 104.22405810595683,159.51675112457178 104.22405810595683,159.05968149889577 103.76712848677607,158.1455127724921 102.85326187965165,156.31714584463316 102.39632489170799,155.40302133080695 102.39632489170799,154.03173876614983 102.39632489170799,152.2034013133425 101.93939527252724,151.28924732446467 101.93939527252724,149.91797949733336 101.93939527252724,149.46090987165735 101.93939527252724,147.63257241885003 101.93939527252724,147.17550279317402 101.93939527252724,145.34715060284088 101.93939527252724,144.43298187643722 101.93939527252724,143.9758975132354 101.93939527252724,143.51878367498193 101.93939527252724,142.6046444236299 101.93939527252724,141.69046095970043 101.93939527252724,141.23339133402442 101.93939527252724,140.31922260762076 101.93939527252724,138.94796951801527 101.93939527252724,138.94796951801527 101.93939527252724,138.0338007916116 101.93939527252724,136.6625329644803 102.39632489170799,135.29127987487482 102.39632489170799,134.37712588599697 102.85326187965165,133.46297189711913 102.85326187965165,132.54878843318966 103.31019149883241,131.634619706786 103.76712848677607,131.17753534358417 103.76712848677607,130.72046571790816 103.76712848677607,129.8062969915045 103.76712848677607,129.8062969915045 104.22405810595683,129.8062969915045 104.22405810595683,129.34921262830267 104.22405810595683,128.89211352757502 104.68098035637468,127.97794480117136 105.13791734431834,127.97794480117136 105.13791734431834,127.0637760747677 105.59486170102491,127.0637760747677 105.59486170102491,126.6067211866175 105.59486170102491,126.14960734836404 106.05179132020567,126.14960734836404 106.05179132020567,126.14960734836404 106.50872830814933,125.69253772268803 106.50872830814933,125.23544599072329 106.96565792733008,125.23544599072329 106.96565792733008,124.77837636504728 107.42259491527375,124.77837636504728 107.42259491527375,124.32127726431963 107.42259491527375,124.32127726431963 107.8795245344545,123.86420026988071 107.8795245344545,123.40711590667888 108.33645415363526,122.95003154347705 108.33645415363526,122.49295454903813 108.79338377281601,122.49295454903813 109.25032076075968,122.49295454903813 109.25032076075968,122.03585544831049 109.25032076075968,121.57877845387156 109.70724301117752,121.57877845387156 109.70724301117752,121.12169409066973 110.16417999912119,120.6646097274679 110.16417999912119,120.6646097274679 110.62111698706485,120.6646097274679 111.07805397500852,120.20752536426608 111.07805397500852,119.75044836982715 111.53498359418927,119.29335663786242 111.53498359418927,119.29335663786242 111.53498359418927,118.83626490589768 111.99192058213293,118.83626490589768 112.4488649388395,118.37918791145876 112.90579455802026,117.92210354825693 113.36271680843811,117.92210354825693 113.36271680843811,117.92210354825693 113.36271680843811,117.465026553818 113.81965379638177,117.00792745309036 114.73351303474328,117.00792745309036 114.73351303474328,116.55085782741435 115.19045739144985,116.55085782741435 115.19045739144985,116.09377346421252 115.64738701063061,115.17960473780886 116.10431662981136,115.17960473780886 116.56126098651794,115.17960473780886 116.56126098651794,114.72250563708121 117.01818323693578,114.72250563708121 117.01818323693578,114.2654360114052 117.01818323693578,113.80835164820337 117.47512022487945,113.80835164820337 117.47512022487945,113.35126728500154 117.9320498440602,113.35126728500154 118.38897946324096,113.35126728500154 118.38897946324096,113.35126728500154 118.84590908242171,113.35126728500154 118.84590908242171,112.8941755530368 118.84590908242171,112.8941755530368 119.30284607036538,112.8941755530368 119.75976832078322,112.43710592736079 120.2167126774898,111.98001419539605 120.2167126774898,111.52292246343131 120.67365703419637,111.52292246343131 120.67365703419637,111.52292246343131 121.13058665337712,111.52292246343131 121.58751627255788,111.52292246343131 121.58751627255788,111.06584546899239 " style="color: rgb(155, 155, 27);" class=""/></g></svg>