<svg xmlns="http://www.w3.org/2000/svg" xmlns:se="http://svg-edit.googlecode.com" xmlns:xlink="http://www.w3.org/1999/xlink" xmlns:dc="http://purl.org/dc/elements/1.1/" xmlns:cc="http://creativecommons.org/ns#" xmlns:rdf="http://www.w3.org/1999/02/22-rdf-syntax-ns#" xmlns:inkscape="http://www.inkscape.org/namespaces/inkscape" width="300" height="300" style="">                                    <title>my vector image</title>                                    <!-- Created with Vector Paint - http://www.vectorpaint.yaks.com/ https://chrome.google.com/webstore/detail/hnbpdiengicdefcjecjbnjnoifekhgdo -->                                    <rect id="backgroundrect" width="100%" height="100%" x="0" y="0" fill="#FFFFFF" stroke="none" class="" style="" opacity="0"/>                                <g class="currentLayer" style=""><title>Layer 1</title><polyline fill="#96e542" stroke="#cbe27f" stroke-width="3" stroke-linejoin="round" stroke-dashoffset="" fill-rule="nonzero" marker-start="" marker-mid="" marker-end="" id="svg_1" points="140.4188232421875,173.9575907588005 140.13064575195312,173.9575907588005 139.84246826171875,173.9575907588005 139.5542755126953,173.9575907588005 139.26608276367188,174.28524273633957 138.4015350341797,174.28524273633957 138.4015350341797,174.28524273633957 138.11334228515625,174.28524273633957 137.82516479492188,174.61289471387863 137.24880981445312,174.61289471387863 136.9606170654297,174.61289471387863 136.0960693359375,174.61289471387863 135.51968383789062,174.9405466914177 134.65513610839844,174.9405466914177 133.79058837890625,174.9405466914177 132.926025390625,174.9405466914177 132.63784790039062,174.9405466914177 132.63784790039062,174.9405466914177 132.34967041015625,174.9405466914177 131.77328491210938,174.9405466914177 131.485107421875,175.26819866895676 130.33236694335938,175.26819866895676 129.75601196289062,175.26819866895676 128.89144897460938,175.26819866895676 128.0269012451172,175.26819866895676 127.16233825683594,175.26819866895676 126.87416076660156,175.26819866895676 126.58596801757812,175.26819866895676 126.29779052734375,175.26819866895676 126.00961303710938,175.26819866895676 125.72142028808594,175.26819866895676 125.4332275390625,175.26819866895676 124.56867980957031,175.26819866895676 123.9923095703125,175.26819866895676 123.41594696044922,174.9405466914177 122.8395767211914,174.61289471387863 122.5513916015625,174.61289471387863 122.2632064819336,174.61289471387863 122.2632064819336,174.28524273633957 121.97502136230469,173.9575907588005 121.39865112304688,173.9575907588005 120.53409576416016,173.62993878126144 119.38136291503906,172.97463482618332 118.22862243652344,172.64698284864426 117.36407470703125,172.3193308711052 117.07588195800781,172.3193308711052 116.49951934814453,171.99167889356613 115.92314910888672,171.336374938488 115.3467788696289,170.68107098340988 114.19403839111328,170.02576702833176 113.04130554199219,169.37046307325363 113.04130554199219,169.04281109571457 112.75312042236328,168.7151591181755 112.17675018310547,168.7151591181755 111.88856506347656,168.38750714063644 111.31219482421875,167.73221844434738 110.73583221435547,167.40455120801926 110.44764709472656,167.0768992304802 109.87126922607422,166.7492625117302 109.58309173583984,166.42159527540207 109.58309173583984,166.093943297863 108.71853637695312,165.43865460157394 108.14216613769531,164.78335064649582 107.27761840820312,163.80039471387863 106.98943328857422,163.47274273633957 106.41305541992188,162.16213482618332 106.1248779296875,161.5068308711052 105.8366928100586,160.19622296094894 105.26032257080078,158.55796307325363 104.68395233154297,156.91970318555832 104.10758972167969,155.281443297863 103.81939697265625,152.98789471387863 103.81939697265625,152.33257550001144 103.53121185302734,150.36666363477707 103.24303436279297,149.05607098340988 102.95484924316406,148.0731150507927 102.95484924316406,147.74546307325363 102.95484924316406,146.76250714063644 102.66666412353516,146.43485516309738 102.66666412353516,145.4518992304802 102.66666412353516,144.79659527540207 102.66666412353516,143.81363934278488 102.66666412353516,142.50303143262863 102.66666412353516,141.19243878126144 102.66666412353516,140.86477154493332 102.66666412353516,139.22652691602707 102.95484924316406,138.57120770215988 103.24303436279297,137.2606150507927 103.53121185302734,135.95000714063644 103.53121185302734,134.96705120801926 103.81939697265625,133.98409527540207 103.81939697265625,133.32879132032394 104.3957748413086,132.0181834101677 104.97213745117188,130.37993878126144 105.54850769042969,129.06931561231613 105.8366928100586,128.08636730909348 106.1248779296875,127.10341137647629 106.70124053955078,126.1204554438591 107.27761840820312,124.48220318555832 108.14216613769531,123.49924725294113 108.43035125732422,122.51629132032394 109.00672149658203,121.53333538770676 109.87126922607422,120.2227274775505 110.73583221435547,118.91211956739426 111.60037994384766,117.60151928663254 113.04130554199219,115.3079554438591 114.19403839111328,113.01439160108566 115.63496398925781,111.04847973585129 116.49951934814453,109.4102274775505 117.65225219726562,108.42727154493332 117.65225219726562,107.7719675898552 118.80499267578125,106.789011657238 119.66954040527344,105.80605572462082 120.53409576416016,104.16780346632004 121.39865112304688,102.52954357862473 123.12775421142578,100.56363171339035 124.28050231933594,98.92537945508957 125.72142028808594,96.30416363477707 126.87416076660156,94.33825939893723 128.31507873535156,92.69999951124191 129.17962646484375,90.73408764600754 130.33236694335938,89.42348736524582 130.9087371826172,87.7852274775505 131.485107421875,87.12992352247238 132.0614776611328,86.1469675898552 132.63784790039062,85.81931561231613 132.926025390625,85.164011657238 133.79058837890625,83.85341137647629 134.65513610839844,82.8704554438591 135.51968383789062,81.88749951124191 136.0960693359375,80.90454357862473 137.24880981445312,79.59393566846848 138.4015350341797,77.9556834101677 139.5542755126953,75.98977154493332 139.84246826171875,75.66211956739426 140.70701599121094,74.351511657238 141.2833709716797,74.02385967969894 141.8597412109375,73.69621533155441 141.8597412109375,73.04090374708176 142.43612670898438,73.04090374708176 143.3006591796875,72.0579554438591 144.16522216796875,71.73030346632004 144.4534149169922,70.74734753370285 145.8943328857422,70.09204357862473 146.75888061523438,69.10908764600754 148.77618408203125,67.1431834101677 149.92892456054688,66.1602274775505 150.50527954101562,65.50492352247238 151.6580352783203,65.17727154493332 152.23439025878906,64.5219675898552 152.23439025878906,64.5219675898552 152.81076049804688,64.19431561231613 153.0989532470703,64.19431561231613 153.3871307373047,63.86666363477707 153.9635009765625,63.86666363477707 154.25167846679688,63.86666363477707 155.4044189453125,63.86666363477707 155.9807891845703,63.86666363477707 157.13351440429688,63.86666363477707 157.99807739257812,63.86666363477707 158.57444763183594,63.86666363477707 159.15081787109375,63.86666363477707 159.72718811035156,63.86666363477707 160.30355834960938,63.86666363477707 161.16812133789062,64.19431561231613 161.74447631835938,64.19431561231613 162.60903930664062,64.84961956739426 162.897216796875,65.17727154493332 163.76177978515625,65.17727154493332 164.62632751464844,65.83257550001144 165.20269775390625,66.1602274775505 166.06724548339844,66.48787945508957 166.9318084716797,66.48787945508957 168.0845489501953,67.1431834101677 168.66090393066406,67.79848736524582 169.23727416992188,67.79848736524582 169.8136444091797,68.45378369092941 170.67820739746094,69.10908764600754 171.54275512695312,69.76439160108566 172.4073028564453,70.74734753370285 173.84823608398438,71.73030346632004 175.0009765625,73.04090374708176 175.2891387939453,73.69621533155441 176.44187927246094,74.67916363477707 177.3064422607422,75.3344675898552 178.17098999023438,76.64507550001144 178.7473602294922,77.30037945508957 179.9001007080078,78.28332775831223 181.05284118652344,79.59393566846848 181.9174041748047,80.90454357862473 183.07012939453125,82.21515148878098 184.51104736328125,84.18105572462082 185.66378784179688,86.47461956739426 186.8165283203125,87.45757550001144 187.6810760498047,88.7681834101677 188.54562377929688,90.07878369092941 189.12200927734375,91.38939160108566 189.6983642578125,92.37234753370285 190.56292724609375,93.35530346632004 191.427490234375,94.66590374708176 191.71566772460938,95.64885967969894 192.58021545410156,96.63181561231613 193.15658569335938,97.94242352247238 193.7329559326172,99.25303143262863 194.309326171875,100.56363171339035 194.8856964111328,101.8742396235466 195.750244140625,103.18484753370285 196.03842163085938,104.4954554438591 196.61480712890625,105.80605572462082 197.191162109375,107.11666363477707 197.47935485839844,108.42727154493332 198.05572509765625,110.3931834101677 198.632080078125,113.01439160108566 199.49664306640625,114.98030346632004 200.07301330566406,116.94620770215988 200.64938354492188,118.58447521924973 200.64938354492188,118.91211956739426 200.64938354492188,120.2227274775505 200.93756103515625,121.2056834101677 201.2257537841797,123.17158764600754 201.8021240234375,125.46515148878098 201.8021240234375,127.10341137647629 202.09030151367188,128.08636730909348 202.3784942626953,129.39698284864426 202.3784942626953,130.70757550001144 202.3784942626953,132.0181834101677 202.6666717529297,133.656443297863 202.6666717529297,134.96705120801926 202.6666717529297,135.95000714063644 202.6666717529297,138.898874938488 202.6666717529297,140.86477154493332 202.6666717529297,142.50303143262863 202.6666717529297,144.14129132032394 202.6666717529297,145.12424725294113 202.6666717529297,146.43485516309738 202.3784942626953,148.0731150507927 202.09030151367188,149.711374938488 201.8021240234375,151.34961956739426 201.8021240234375,152.6602274775505 201.2257537841797,153.97083538770676 201.2257537841797,154.29848736524582 200.64938354492188,155.60909527540207 200.64938354492188,155.60909527540207 200.64938354492188,156.2643992304802 200.36119079589844,156.91970318555832 199.7848358154297,157.57500714063644 199.49664306640625,158.23031109571457 198.9202880859375,159.54091900587082 198.34390258789062,160.523874938488 198.05572509765625,161.5068308711052 197.191162109375,162.16213482618332 196.03842163085938,164.12803143262863 195.1738739013672,165.11098736524582 194.59750366210938,166.093943297863 194.02113342285156,167.0768992304802 193.7329559326172,167.40455120801926 192.868408203125,168.05985516309738 192.58021545410156,168.7151591181755 192.00384521484375,169.37046307325363 191.427490234375,170.02576702833176 190.56292724609375,170.35341900587082 189.6983642578125,171.336374938488 188.8338165283203,172.3193308711052 187.3928985595703,173.30228680372238 186.8165283203125,173.62993878126144 185.3756103515625,174.28524273633957 183.93467712402344,174.9405466914177 182.7819366455078,175.26819866895676 181.62921142578125,175.59585064649582 180.47647094726562,176.25115460157394 178.7473602294922,176.578806579113 176.44187927246094,177.23411053419113 175.2891387939453,177.5617625117302 172.98367309570312,177.8893992304802 171.2545623779297,178.21706646680832 168.66090393066406,178.87235516309738 166.35543823242188,179.2000223994255 164.9145050048828,179.2000223994255 163.76177978515625,179.2000223994255 162.897216796875,179.2000223994255 162.60903930664062,179.2000223994255 161.74447631835938,179.2000223994255 161.16812133789062,179.2000223994255 160.30355834960938,179.2000223994255 159.72718811035156,179.2000223994255 158.57444763183594,179.2000223994255 156.8453369140625,179.2000223994255 154.8280487060547,179.2000223994255 153.9635009765625,179.2000223994255 151.9462127685547,178.54471844434738 150.79347229003906,178.21706646680832 149.92892456054688,178.21706646680832 149.06436157226562,178.21706646680832 148.4879913330078,177.8893992304802 147.62344360351562,177.8893992304802 147.33526611328125,177.5617625117302 146.75888061523438,177.5617625117302 146.470703125,177.23411053419113 146.18252563476562,177.23411053419113 145.60614013671875,176.906443297863 145.31796264648438,176.578806579113 145.02978515625,176.578806579113 144.74160766601562,176.578806579113 144.4534149169922,176.578806579113 144.4534149169922,176.578806579113 144.16522216796875,176.578806579113 144.16522216796875,176.25115460157394 143.87704467773438,176.25115460157394 143.3006591796875,175.92348736524582 143.0124969482422,175.59585064649582 142.43612670898438,175.26819866895676 142.14793395996094,175.26819866895676 141.8597412109375,175.26819866895676 141.57156372070312,175.26819866895676 141.2833709716797,175.26819866895676 141.2833709716797,174.9405466914177 140.9951934814453,174.9405466914177 140.70701599121094,174.9405466914177 140.70701599121094,174.61289471387863 140.4188232421875,174.61289471387863 140.13064575195312,174.61289471387863 139.84246826171875,174.61289471387863 139.5542755126953,174.61289471387863 139.5542755126953,174.28524273633957 139.5542755126953,174.28524273633957 139.26608276367188,174.28524273633957 138.9779052734375,174.28524273633957 138.68972778320312,174.28524273633957 138.4015350341797,174.28524273633957 138.4015350341797,174.28524273633957 138.11334228515625,174.28524273633957 " style="color: rgb(8, 211, 22);" class="selected" fill-opacity="1" stroke-opacity="1"/><polyline fill="none" stroke="#dae266" stroke-width="4" stroke-linejoin="round" stroke-dashoffset="" fill-rule="nonzero" marker-start="" marker-mid="" marker-end="" id="svg_2" points="136.51161938784873,180.09301347929875 136.51161938784873,180.09301347929875 136.51161938784873,180.09301347929875 136.51161938784873,181.48836225461463 136.51161938784873,182.41859477149188 136.51161938784873,183.34882728836914 136.51161938784873,184.27905980524645 136.51161938784873,185.2092923221237 136.51161938784873,185.67440858056233 136.51161938784873,186.13952483900096 136.04650312941004,187.0697573558782 136.04650312941004,187.53487361431684 136.04650312941004,187.53487361431684 136.04650312941004,187.99998987275546 136.04650312941004,188.4651061311941 135.58138687097141,189.39533864807134 135.58138687097141,189.86045490650997 135.1162706125328,190.79068742338728 135.1162706125328,191.2558036818259 134.65115435409416,191.2558036818259 134.65115435409416,192.18603619870316 134.65115435409416,193.11626871558042 134.18603809565553,194.04650123245767 134.18603809565553,194.97673374933493 134.18603809565553,194.97673374933493 133.7209218372169,195.44185000777355 133.7209218372169,195.90696626621218 133.7209218372169,196.3720825246508 133.7209218372169,196.8371987830895 133.25580557877828,197.76743129996674 132.79068932033965,198.697663816844 132.79068932033965,200.09301259215988 132.32557306190103,200.5581288505985 132.32557306190103,201.9534776259144 132.32557306190103,202.8837101427917 131.8604568034624,203.81394265966895 131.39534054502377,204.7441751765462 130.93022428658514,205.20929143498483 130.93022428658514,205.67440769342346 130.93022428658514,206.1395239518621 130.93022428658514,206.1395239518621 131.39534054502377,206.1395239518621 131.39534054502377,205.67440769342346 132.32557306190103,204.7441751765462 132.32557306190103,204.27905891810758 132.32557306190103,203.34882640123033 132.79068932033965,202.41859388435302 133.25580557877828,201.9534776259144 133.7209218372169,201.02324510903713 133.7209218372169,200.5581288505985 134.18603809565553,200.5581288505985 134.18603809565553,199.16278007528263 134.18603809565553,197.76743129996674 134.65115435409416,196.8371987830895 134.65115435409416,194.97673374933493 135.1162706125328,193.58138497401904 135.1162706125328,193.11626871558042 135.58138687097141,191.72091994026454 136.04650312941004,191.2558036818259 136.04650312941004,190.32557116494866 136.04650312941004,189.39533864807134 136.04650312941004,188.4651061311941 136.04650312941004,187.53487361431684 136.51161938784873,187.0697573558782 136.97673564628735,186.13952483900096 136.97673564628735,185.67440858056233 137.44185190472598,185.2092923221237 137.9069681631646,183.81394354680782 137.9069681631646,181.95347851305326 138.37208442160323,181.95347851305326 138.83720068004186,181.023245996176 138.83720068004186,180.55812973773737 138.83720068004186,180.09301347929875 139.3023169384805,180.09301347929875 139.3023169384805,179.62789722086012 139.3023169384805,179.1627809624215 139.76743319691911,178.69766470398287 139.76743319691911,178.23254844554424 139.76743319691911,178.69766470398287 139.76743319691911,179.1627809624215 138.83720068004186,180.09301347929875 138.83720068004186,180.55812973773737 138.83720068004186,181.023245996176 138.37208442160323,181.023245996176 138.37208442160323,181.48836225461463 137.9069681631646,181.95347851305326 137.9069681631646,181.95347851305326 137.9069681631646,182.41859477149188 137.9069681631646,182.8837110299305 137.44185190472598,183.34882728836914 137.44185190472598,183.81394354680782 136.97673564628735,184.27905980524645 136.51161938784873,184.74417606368507 136.51161938784873,185.2092923221237 136.04650312941004,185.67440858056233 136.04650312941004,185.67440858056233 136.04650312941004,186.13952483900096 136.04650312941004,186.60464109743958 136.04650312941004,187.0697573558782 136.04650312941004,187.53487361431684 136.04650312941004,187.99998987275546 136.04650312941004,188.4651061311941 136.04650312941004,188.93022238963272 136.04650312941004,189.39533864807134 136.04650312941004,189.39533864807134 135.58138687097141,190.32557116494866 135.58138687097141,191.2558036818259 135.1162706125328,191.2558036818259 135.1162706125328,191.72091994026454 135.1162706125328,192.6511524571418 134.65115435409416,194.04650123245767 134.18603809565553,194.97673374933493 134.18603809565553,195.90696626621218 133.7209218372169,196.8371987830895 133.25580557877828,198.697663816844 132.79068932033965,198.697663816844 132.32557306190103,199.62789633372125 132.32557306190103,200.09301259215988 132.32557306190103,200.5581288505985 132.32557306190103,200.5581288505985 132.32557306190103,201.02324510903713 132.32557306190103,201.48836136747576 132.32557306190103,202.41859388435302 131.8604568034624,203.34882640123033 131.39534054502377,204.27905891810758 131.39534054502377,204.7441751765462 131.39534054502377,205.20929143498483 131.39534054502377,205.67440769342346 131.39534054502377,206.1395239518621 131.39534054502377,205.67440769342346 131.39534054502377,205.20929143498483 131.39534054502377,204.27905891810758 132.32557306190103,202.8837101427917 132.32557306190103,201.48836136747576 132.79068932033965,200.5581288505985 133.25580557877828,198.697663816844 133.7209218372169,196.8371987830895 134.18603809565553,195.90696626621218 134.18603809565553,194.97673374933493 134.65115435409416,193.58138497401904 135.1162706125328,191.72091994026454 135.58138687097141,190.79068742338728 136.04650312941004,189.86045490650997 136.51161938784873,188.4651061311941 136.51161938784873,187.53487361431684 136.51161938784873,187.53487361431684 136.97673564628735,186.60464109743958 136.97673564628735,185.67440858056233 137.44185190472598,185.67440858056233 137.44185190472598,185.2092923221237 137.44185190472598,184.74417606368507 137.9069681631646,184.27905980524645 137.9069681631646,183.81394354680782 137.9069681631646,183.34882728836914 137.9069681631646,182.8837110299305 137.9069681631646,182.41859477149188 137.9069681631646,181.95347851305326 137.9069681631646,181.95347851305326 137.9069681631646,181.48836225461463 137.9069681631646,181.023245996176 137.9069681631646,180.55812973773737 137.9069681631646,180.09301347929875 137.9069681631646,180.09301347929875 137.9069681631646,179.62789722086012 137.9069681631646,179.1627809624215 137.9069681631646,178.69766470398287 137.9069681631646,178.23254844554424 " style="color: rgb(218, 226, 102);" class=""/><polyline fill="none" stroke="#dae266" stroke-width="2" stroke-linejoin="round" stroke-dashoffset="" fill-rule="nonzero" marker-start="" marker-mid="" marker-end="" id="svg_3" points="137.9069681631646,179.62789722086012 137.9069681631646,179.62789722086012 137.9069681631646,179.1627809624215 137.9069681631646,177.7674321871056 139.3023169384805,175.90696715335105 139.76743319691911,174.04650211959654 140.23254945535774,172.65115334428066 141.62789823067362,170.32557205208747 142.55813074755088,168.93022327677159 143.4883632644282,167.06975824301708 143.4883632644282,166.13952572613982 144.41859578130544,165.20929320926257 144.88371203974407,164.27906069238526 145.3488282981827,162.88371191706938 145.3488282981827,161.95347940019212 145.3488282981827,161.4883631417535 146.74417707349858,159.627898107999 147.2092933319372,158.23254933268305 147.2092933319372,156.83720055736717 147.2092933319372,155.90696804048991 147.2092933319372,154.51161926517403 147.67440959037583,153.11627048985815 148.13952584881446,152.1860379729809 148.13952584881446,151.72092171454221 148.60464210725308,150.32557293922633 148.60464210725308,149.39534042234908 149.06975836569177,145.67441035484 149.99999088256902,144.27906157952413 150.46510714100765,141.953480287331 150.93022339944628,141.02324777045374 151.3953396578849,139.16278273669917 152.32557217476216,136.83720144450604 152.79068843320078,134.97673641075153 152.79068843320078,132.65115511855834 153.72092095007804,130.79069008480383 154.18603720851667,128.4651087926107 154.6511534669553,126.60464375885616 155.5813859838326,124.74417872510165 156.04650224227123,122.41859743290847 156.04650224227123,121.02324865759257 156.04650224227123,120.55813239915396 156.51161850070986,119.16278362383804 156.51161850070986,118.69766736539943 156.51161850070986,118.2325511069608 156.51161850070986,117.30231859008354 156.97673475914848,116.83720233164489 156.97673475914848,115.90696981476763 156.97673475914848,114.97673729789038 156.97673475914848,114.51162103945175 156.97673475914848,114.04650478101313 156.97673475914848,113.58138852257447 156.97673475914848,113.11627226413584 156.97673475914848,113.11627226413584 156.97673475914848,112.65115600569722 157.4418510175871,111.72092348881996 157.4418510175871,111.25580723038134 157.4418510175871,110.79069097194271 157.90696727602574,109.3953421966268 158.37208353446437,109.3953421966268 158.37208353446437,108.93022593818817 158.37208353446437,108.46510967974955 " style="color: rgb(218, 226, 102);"/><polyline fill="none" stroke="#dae266" stroke-width="2" stroke-linejoin="round" stroke-dashoffset="" fill-rule="nonzero" marker-start="" marker-mid="" marker-end="" id="svg_4" points="138.37208442160323,178.69766470398287 138.83720068004186,178.23254844554424 139.3023169384805,178.23254844554424 139.3023169384805,177.7674321871056 139.76743319691911,177.30231592866693 139.76743319691911,176.37208341178967 139.76743319691911,175.90696715335105 140.69766571379637,174.9767346364738 141.162781972235,174.51161837803517 141.162781972235,173.5813858611579 141.62789823067362,172.65115334428066 141.62789823067362,172.65115334428066 141.62789823067362,171.7209208274034 141.62789823067362,171.25580456896478 142.09301448911225,171.25580456896478 142.09301448911225,170.7906883105261 142.55813074755088,170.7906883105261 143.02324700598956,168.93022327677159 143.4883632644282,168.46510701833296 143.4883632644282,167.99999075989433 143.4883632644282,168.93022327677159 143.4883632644282,168.93022327677159 143.4883632644282,169.86045579364884 142.55813074755088,170.7906883105261 142.09301448911225,171.7209208274034 141.62789823067362,173.11626960271929 141.162781972235,174.51161837803517 140.23254945535774,175.90696715335105 140.23254945535774,176.37208341178967 139.76743319691911,177.30231592866693 139.3023169384805,178.23254844554424 139.3023169384805,178.23254844554424 139.3023169384805,179.1627809624215 138.83720068004186,179.62789722086012 138.83720068004186,180.09301347929875 138.37208442160323,180.09301347929875 138.37208442160323,180.55812973773737 138.37208442160323,181.023245996176 138.37208442160323,180.55812973773737 138.37208442160323,180.09301347929875 138.83720068004186,179.62789722086012 138.83720068004186,178.69766470398287 139.3023169384805,178.23254844554424 139.76743319691911,177.7674321871056 139.76743319691911,176.37208341178967 139.76743319691911,176.37208341178967 140.23254945535774,175.44185089491242 140.23254945535774,174.9767346364738 141.162781972235,174.04650211959654 141.162781972235,172.65115334428066 141.62789823067362,172.18603708584203 142.09301448911225,171.25580456896478 142.09301448911225,170.7906883105261 142.55813074755088,170.7906883105261 143.02324700598956,169.86045579364884 143.4883632644282,168.93022327677159 143.4883632644282,168.93022327677159 143.4883632644282,168.46510701833296 143.4883632644282,167.99999075989433 143.95347952286681,167.99999075989433 143.95347952286681,167.5348745014557 143.95347952286681,167.06975824301708 143.95347952286681,167.06975824301708 143.95347952286681,166.60464198457845 143.95347952286681,166.13952572613982 144.41859578130544,166.13952572613982 144.41859578130544,165.6744094677012 144.41859578130544,165.20929320926257 144.88371203974407,165.20929320926257 145.3488282981827,164.74417695082388 145.3488282981827,164.27906069238526 145.3488282981827,163.81394443394663 145.3488282981827,163.348828175508 145.3488282981827,163.348828175508 145.3488282981827,162.88371191706938 145.3488282981827,162.41859565863075 145.3488282981827,161.95347940019212 145.81394455662132,161.95347940019212 " style="color: rgb(218, 226, 102);"/><polyline fill="none" stroke="#dae266" stroke-linejoin="round" stroke-dashoffset="" fill-rule="nonzero" marker-start="" marker-mid="" marker-end="" id="svg_5" points="136.51161938784873,180.09301347929875 136.51161938784873,180.09301347929875 136.04650312941004,180.09301347929875 136.04650312941004,180.09301347929875 136.04650312941004,179.62789722086012 135.58138687097141,178.69766470398287 135.1162706125328,178.23254844554424 133.7209218372169,176.37208341178967 133.25580557877828,175.44185089491242 132.79068932033965,174.51161837803517 131.8604568034624,173.11626960271929 130.93022428658514,171.7209208274034 129.9999917697079,169.86045579364884 128.60464299439195,168.46510701833296 126.74417796063743,166.13952572613982 125.81394544376019,165.20929320926257 124.88371292688292,163.81394443394663 124.41859666844431,162.88371191706938 122.55813163468974,160.09301436643761 121.16278285937386,158.69766559112173 119.767434084058,156.37208429892854 118.83720156718073,154.97673552361266 117.90696905030347,153.11627048985815 117.44185279186485,151.72092171454221 116.51162027498754,150.32557293922633 115.58138775811028,148.93022416391045 115.58138775811028,147.9999916470332 115.58138775811028,147.53487538859457 115.11627149967165,147.06975913015594 115.11627149967165,146.60464287171732 115.11627149967165,146.60464287171732 114.65115524123303,146.1395266132787 " style="color: rgb(218, 226, 102);"/><polyline fill="none" stroke="#dae266" stroke-linejoin="round" stroke-dashoffset="" fill-rule="nonzero" marker-start="" marker-mid="" marker-end="" id="svg_6" points="138.37208442160323,178.69766470398287 139.76743319691911,178.69766470398287 140.69766571379637,178.23254844554424 143.02324700598956,178.23254844554424 144.41859578130544,177.7674321871056 146.74417707349858,176.8371996702283 148.60464210725308,175.90696715335105 150.93022339944628,175.90696715335105 154.18603720851667,174.51161837803517 156.97673475914848,173.5813858611579 160.23254856821887,172.65115334428066 162.09301360197344,172.18603708584203 165.34882741104383,169.86045579364884 166.7441761863597,168.93022327677159 168.60464122011427,167.99999075989433 171.39533877074604,165.6744094677012 175.58138509669374,164.27906069238526 178.83719890576413,162.88371191706938 182.5581289732732,161.02324688331487 184.88371026546633,159.627898107999 188.6046403329754,157.3023168158058 191.39533788360717,155.90696804048991 193.25580291736168,155.4418517820513 195.11626795111624,154.97673552361266 196.51161672643212,154.51161926517403 " style="color: rgb(218, 226, 102);"/><polyline fill="none" stroke="#dae266" stroke-linejoin="round" stroke-dashoffset="" fill-rule="nonzero" marker-start="" marker-mid="" marker-end="" id="svg_7" points="141.62789823067362,168.93022327677159 141.62789823067362,167.99999075989433 141.162781972235,167.5348745014557 140.69766571379637,166.60464198457845 139.76743319691911,165.6744094677012 139.76743319691911,164.74417695082388 138.83720068004186,163.348828175508 137.9069681631646,161.4883631417535 136.51161938784873,159.16278184956036 135.1162706125328,155.90696804048991 134.18603809565553,153.58138674829678 132.79068932033965,152.1860379729809 132.32557306190103,150.32557293922633 131.8604568034624,149.8604566807877 130.93022428658514,148.93022416391045 130.46510802814652,147.53487538859457 129.9999917697079,146.1395266132787 129.06975925283058,145.20929409640138 128.60464299439195,144.74417783796275 128.60464299439195,143.8139453210855 128.60464299439195,143.34882906264687 128.13952673595332,142.88371280420824 128.13952673595332,142.41859654576962 127.6744104775147,141.953480287331 127.6744104775147,141.02324777045374 127.20929421907609,141.02324777045374 127.20929421907609,141.02324777045374 126.74417796063743,141.02324777045374 126.74417796063743,140.09301525357648 126.74417796063743,139.16278273669917 125.81394544376019,138.69766647826054 125.34882918532158,137.7674339613833 124.88371292688292,137.30231770294466 124.88371292688292,136.83720144450604 123.95348041000568,135.90696892762878 123.95348041000568,135.44185266919015 " style="color: rgb(218, 226, 102);"/><polyline fill="none" stroke="#dae266" stroke-linejoin="round" stroke-dashoffset="" fill-rule="nonzero" marker-start="" marker-mid="" marker-end="" id="svg_8" points="145.3488282981827,160.09301436643761 145.81394455662132,159.627898107999 147.2092933319372,159.16278184956036 149.06975836569177,158.69766559112173 150.93022339944628,158.23254933268305 152.32557217476216,157.76743307424442 152.79068843320078,157.3023168158058 154.18603720851667,156.37208429892854 156.04650224227123,155.4418517820513 158.37208353446437,153.58138674829678 161.62789734353476,151.72092171454221 163.95347863572795,150.32557293922633 166.7441761863597,148.93022416391045 169.53487373699153,147.9999916470332 169.99998999543016,147.53487538859457 170.46510625386878,146.60464287171732 171.39533877074604,146.60464287171732 171.39533877074604,146.1395266132787 172.3255712876233,146.1395266132787 172.79068754606192,145.67441035484 173.25580380450054,145.67441035484 174.1860363213778,144.74417783796275 175.1162688382551,144.74417783796275 176.511617613571,143.8139453210855 177.90696638888687,142.88371280420824 178.83719890576413,142.41859654576962 179.30231516420275,141.953480287331 179.76743142264138,141.48836402889236 180.23254768108,141.48836402889236 180.69766393951863,141.48836402889236 " style="color: rgb(218, 226, 102);"/><polyline fill="none" stroke="#dae266" stroke-linejoin="round" stroke-dashoffset="" fill-rule="nonzero" marker-start="" marker-mid="" marker-end="" id="svg_9" points="149.06975836569177,143.8139453210855 148.60464210725308,143.8139453210855 148.60464210725308,143.34882906264687 148.13952584881446,142.88371280420824 147.2092933319372,142.41859654576962 145.81394455662132,140.5581315120151 144.41859578130544,138.23255021982192 141.62789823067362,132.65115511855834 138.83720068004186,128.93022505104932 137.44185190472598,126.1395275004175 136.04650312941004,124.74417872510165 135.58138687097141,123.81394620822438 134.65115435409416,122.88371369134708 134.65115435409416,122.41859743290847 134.18603809565553,122.41859743290847 134.18603809565553,122.41859743290847 133.7209218372169,121.48836491603123 133.7209218372169,121.02324865759257 133.25580557877828,120.55813239915396 132.32557306190103,119.16278362383804 132.32557306190103,118.2325511069608 132.32557306190103,117.76743484852217 132.32557306190103,117.30231859008354 131.8604568034624,116.83720233164489 131.8604568034624,116.83720233164489 131.39534054502377,116.83720233164489 " style="color: rgb(218, 226, 102);"/><polyline fill="none" stroke="#dae266" stroke-linejoin="round" stroke-dashoffset="" fill-rule="nonzero" marker-start="" marker-mid="" marker-end="" id="svg_10" points="150.93022339944628,140.09301525357648 151.86045591632353,140.09301525357648 152.79068843320078,139.62789899513785 153.2558046916394,139.16278273669917 155.5813859838326,138.69766647826054 157.90696727602574,137.30231770294466 160.23254856821887,135.90696892762878 162.09301360197344,135.44185266919015 163.95347863572795,133.58138763543565 165.34882741104383,133.58138763543565 165.81394366948246,133.11627137699702 166.7441761863597,132.65115511855834 167.20929244479834,132.1860388601197 167.67440870323696,131.72092260168108 168.60464122011427,131.72092260168108 169.53487373699153,130.79069008480383 171.39533877074604,129.86045756792657 171.39533877074604,129.39534130948795 172.79068754606192,128.4651087926107 173.25580380450054,127.99999253417204 173.72092006293917,127.99999253417204 174.1860363213778,127.99999253417204 174.65115257981648,127.53487627573342 175.1162688382551,127.0697600172948 175.58138509669374,126.60464375885616 176.97673387200962,126.1395275004175 177.44185013044824,125.67441124197889 178.3720826473255,124.74417872510165 " style="color: rgb(218, 226, 102);"/><polyline fill="none" stroke="#dae266" stroke-linejoin="round" stroke-dashoffset="" fill-rule="nonzero" marker-start="" marker-mid="" marker-end="" id="svg_11" points="154.18603720851667,122.41859743290847 153.72092095007804,121.95348117446984 153.2558046916394,121.02324865759257 152.79068843320078,120.0930161407153 151.86045591632353,117.76743484852217 150.93022339944628,115.90696981476763 149.99999088256902,114.04650478101313 149.5348746241304,113.11627226413584 149.06975836569177,112.65115600569722 148.60464210725308,111.72092348881996 148.60464210725308,111.25580723038134 148.60464210725308,111.25580723038134 147.67440959037583,110.32557471350405 147.67440959037583,109.3953421966268 147.2092933319372,109.3953421966268 147.2092933319372,109.3953421966268 147.2092933319372,109.3953421966268 146.74417707349858,108.93022593818817 146.74417707349858,108.46510967974955 146.27906081505995,107.99999342131092 145.81394455662132,107.99999342131092 145.81394455662132,107.53487716287226 145.81394455662132,107.53487716287226 145.3488282981827,107.06976090443364 145.3488282981827,106.60464464599501 145.3488282981827,106.13952838755638 145.3488282981827,105.67441212911775 " style="color: rgb(218, 226, 102);"/><polyline fill="none" stroke="#dae266" stroke-linejoin="round" stroke-dashoffset="" fill-rule="nonzero" marker-start="" marker-mid="" marker-end="" id="svg_12" points="155.5813859838326,120.55813239915396 156.04650224227123,120.55813239915396 156.51161850070986,120.0930161407153 158.37208353446437,119.6278998822767 159.76743230978025,118.69766736539943 161.16278108509613,118.2325511069608 163.95347863572795,116.37208607320626 164.8837111526052,115.44185355632901 166.7441761863597,114.51162103945175 168.13952496167565,113.58138852257447 168.60464122011427,113.11627226413584 169.0697574785529,113.11627226413584 169.53487373699153,113.11627226413584 169.53487373699153,113.11627226413584 169.99998999543016,113.11627226413584 170.46510625386878,112.65115600569722 171.39533877074604,112.65115600569722 " style="color: rgb(218, 226, 102);"/><polyline fill="none" stroke="#dae266" stroke-linejoin="round" stroke-dashoffset="" fill-rule="nonzero" marker-start="" marker-mid="" marker-end="" id="svg_13" points="155.11626972539392,112.18603974725859 155.11626972539392,111.72092348881996 " style="color: rgb(218, 226, 102);"/><polyline fill="none" stroke="#dae266" stroke-linejoin="round" stroke-dashoffset="" fill-rule="nonzero" marker-start="" marker-mid="" marker-end="" id="svg_14" points="156.51161850070986,109.3953421966268 156.51161850070986,109.3953421966268 156.51161850070986,108.93022593818817 156.97673475914848,108.46510967974955 157.90696727602574,107.53487716287226 157.90696727602574,107.06976090443364 158.837199792903,104.7441796122405 159.76743230978025,102.88371457848596 159.76743230978025,101.95348206160871 159.76743230978025,101.48836580317008 160.23254856821887,100.09301702785417 160.23254856821887,99.62790076941555 160.23254856821887,99.16278451097692 160.23254856821887,97.76743573566102 160.23254856821887,97.3023194772224 160.23254856821887,96.37208696034513 160.23254856821887,95.9069707019065 160.23254856821887,95.44185444346786 160.23254856821887,94.5116219265906 160.23254856821887,94.04650566815197 160.23254856821887,93.58138940971334 160.23254856821887,93.11627315127471 160.23254856821887,93.58138940971334 160.23254856821887,94.04650566815197 160.23254856821887,95.44185444346786 160.23254856821887,96.37208696034513 159.76743230978025,97.3023194772224 158.837199792903,98.23255199409965 158.837199792903,98.69766825253828 158.837199792903,99.16278451097692 158.837199792903,100.09301702785417 158.837199792903,100.55813328629282 158.37208353446437,101.48836580317008 158.37208353446437,102.41859832004734 158.37208353446437,102.88371457848596 158.37208353446437,103.81394709536322 158.37208353446437,104.27906335380185 158.37208353446437,104.7441796122405 158.37208353446437,105.67441212911775 158.37208353446437,105.67441212911775 158.37208353446437,106.13952838755638 158.37208353446437,107.06976090443364 158.37208353446437,107.53487716287226 158.37208353446437,107.53487716287226 158.37208353446437,107.99999342131092 157.90696727602574,108.46510967974955 157.90696727602574,108.93022593818817 157.90696727602574,109.3953421966268 157.90696727602574,109.3953421966268 157.90696727602574,109.86045845506543 157.90696727602574,110.32557471350405 157.90696727602574,110.79069097194271 157.90696727602574,111.25580723038134 157.4418510175871,111.25580723038134 157.4418510175871,111.72092348881996 157.4418510175871,111.25580723038134 157.4418510175871,110.79069097194271 157.4418510175871,110.32557471350405 157.90696727602574,109.3953421966268 158.37208353446437,107.99999342131092 158.37208353446437,107.53487716287226 158.37208353446437,106.60464464599501 158.37208353446437,105.67441212911775 158.37208353446437,104.7441796122405 158.37208353446437,104.27906335380185 158.837199792903,103.81394709536322 158.837199792903,103.34883083692459 159.30231605134162,102.41859832004734 159.30231605134162,101.95348206160871 159.30231605134162,101.48836580317008 159.30231605134162,101.02324954473143 159.30231605134162,100.09301702785417 159.30231605134162,99.62790076941555 159.30231605134162,99.16278451097692 159.30231605134162,98.69766825253828 159.30231605134162,98.23255199409965 159.30231605134162,98.23255199409965 159.30231605134162,97.76743573566102 159.30231605134162,97.3023194772224 159.30231605134162,96.83720321878376 159.30231605134162,96.37208696034513 159.30231605134162,96.37208696034513 159.30231605134162,96.37208696034513 159.30231605134162,96.83720321878376 159.30231605134162,97.76743573566102 159.30231605134162,98.23255199409965 159.30231605134162,99.16278451097692 159.30231605134162,99.62790076941555 159.30231605134162,100.55813328629282 158.837199792903,101.02324954473143 158.837199792903,101.95348206160871 158.37208353446437,102.41859832004734 158.37208353446437,103.81394709536322 158.37208353446437,103.81394709536322 158.37208353446437,104.7441796122405 158.37208353446437,105.20929587067913 158.37208353446437,105.67441212911775 157.90696727602574,105.67441212911775 157.90696727602574,106.60464464599501 157.4418510175871,106.60464464599501 157.4418510175871,107.53487716287226 157.4418510175871,108.46510967974955 157.4418510175871,108.93022593818817 157.4418510175871,109.3953421966268 157.4418510175871,109.86045845506543 156.97673475914848,110.32557471350405 156.97673475914848,111.25580723038134 156.97673475914848,111.25580723038134 156.51161850070986,112.18603974725859 156.51161850070986,112.65115600569722 156.51161850070986,113.11627226413584 156.51161850070986,113.11627226413584 156.51161850070986,113.58138852257447 156.51161850070986,114.04650478101313 " style="color: rgb(218, 226, 102);"/><polyline fill="none" stroke="#dae266" stroke-linejoin="round" stroke-dashoffset="" fill-rule="nonzero" marker-start="" marker-mid="" marker-end="" id="svg_15" points="153.2558046916394,121.02324865759257 153.2558046916394,121.48836491603123 153.72092095007804,121.95348117446984 154.18603720851667,122.41859743290847 154.18603720851667,122.41859743290847 154.6511534669553,122.41859743290847 154.6511534669553,122.88371369134708 154.6511534669553,123.34882994978574 154.6511534669553,123.34882994978574 154.6511534669553,122.88371369134708 154.18603720851667,122.41859743290847 153.72092095007804,122.41859743290847 153.2558046916394,122.41859743290847 152.79068843320078,122.41859743290847 152.79068843320078,122.41859743290847 152.79068843320078,121.95348117446984 152.79068843320078,121.95348117446984 152.79068843320078,122.41859743290847 153.2558046916394,122.41859743290847 153.72092095007804,122.41859743290847 153.72092095007804,122.88371369134708 154.18603720851667,122.88371369134708 154.18603720851667,123.34882994978574 " style="color: rgb(218, 226, 102);"/><polyline fill="none" stroke="#dae266" stroke-linejoin="round" stroke-dashoffset="" fill-rule="nonzero" marker-start="" marker-mid="" marker-end="" id="svg_16" points="159.18918391174,96.97296993509538 159.18918391174,96.43242940152105 159.18918391174,95.35134833437239 159.18918391174,94.81080780079806 159.18918391174,94.27026726722373 159.18918391174,92.64864566650074 159.18918391174,91.56756459935208 159.18918391174,90.48648353220342 159.18918391174,89.40540246505476 159.18918391174,87.78378086433177 159.18918391174,86.70269979718312 159.18918391174,85.62161873003446 159.18918391174,83.45945659573714 159.18918391174,81.29729446143983 158.64864337816567,80.21621339429117 158.10810284459137,78.05405125999386 157.567562311017,76.9729701928452 157.567562311017,75.89188912569654 157.567562311017,75.3513485921222 157.567562311017,75.3513485921222 157.567562311017,74.81080805854788 157.567562311017,74.81080805854788 157.567562311017,74.27026752497353 157.567562311017,73.72972699139922 " style="color: rgb(218, 226, 102);"/></g></svg>