<svg xmlns="http://www.w3.org/2000/svg" xmlns:se="http://svg-edit.googlecode.com" xmlns:xlink="http://www.w3.org/1999/xlink" xmlns:dc="http://purl.org/dc/elements/1.1/" xmlns:cc="http://creativecommons.org/ns#" xmlns:rdf="http://www.w3.org/1999/02/22-rdf-syntax-ns#" xmlns:inkscape="http://www.inkscape.org/namespaces/inkscape" width="300" height="300" style="">                                    <title>my vector image</title>                                    <!-- Created with Vector Paint - http://www.vectorpaint.yaks.com/ https://chrome.google.com/webstore/detail/hnbpdiengicdefcjecjbnjnoifekhgdo -->                                    <rect id="backgroundrect" width="100%" height="100%" x="0" y="0" fill="#FFFFFF" stroke="none" class="" style="" opacity="0"/>                                <g class="currentLayer" style=""><title>Layer 1</title><polyline fill="none" stroke="#f2691a" stroke-width="12" stroke-linejoin="round" stroke-dashoffset="" fill-rule="nonzero" marker-start="" marker-mid="" marker-end="" id="svg_4" points="85.33332883318263,21.33333154519397 83.99999549984932,21.33333154519397 79.99999549984932,21.33333154519397 77.33332883318263,22.666664878527314 75.33332883318263,22.666664878527314 73.99999549984932,23.33333154519397 71.33332883318263,23.999998211860657 69.33332883318263,25.33333154519397 67.99999549984932,25.33333154519397 66.66666216651595,25.999998211860657 65.99999549984932,25.999998211860657 64.66666216651595,27.33333154519397 63.333328833182634,27.999998211860657 62.66666216651595,27.999998211860657 61.333328833182634,28.666664878527314 59.99999549984932,29.33333154519397 58.66666216651595,29.999998211860657 56.66666216651595,30.666664878527314 55.99999549984932,30.666664878527314 55.333328833182634,31.33333154519397 55.333328833182634,31.999998211860657 54.66666216651595,31.999998211860657 54.66666216651595,32.666664878527314 53.333328833182634,33.33333154519397 52.66666216651595,33.99999821186066 50.66666216651595,34.666664878527314 49.99999549984932,35.99999821186066 49.333328833182634,35.99999821186066 47.99999549984932,37.33333154519397 46.66666216651595,37.99999821186066 45.99999549984932,38.666664878527314 44.66666216651595,39.33333154519397 43.99999549984932,40.666664878527314 42.66666216651595,41.33333154519397 41.99999549984932,42.666664878527314 40.66666216651595,43.33333154519397 39.99999549984932,44.666664878527314 39.333328833182634,45.99999821186066 37.99999549984932,46.666664878527314 36.66666216651595,48.666664878527314 36.66666216651595,49.33333154519397 35.333328833182634,50.666664878527314 34.66666216651595,51.99999821186066 33.99999549984932,53.99999821186066 31.99999549984932,55.99999821186066 31.333328833182634,57.33333154519397 31.333328833182634,58.666664878527314 31.333328833182634,59.33333154519397 30.66666216651595,59.99999821186066 30.66666216651595,61.33333154519397 29.333328833182634,62.666664878527314 28.66666216651595,63.33333154519397 28.66666216651595,65.33333154519397 27.333328833182634,66.66666487852731 27.333328833182634,67.33333154519397 26.66666216651595,67.99999821186066 25.99999549984932,69.33333154519397 25.99999549984932,70.66666487852731 25.333328833182634,70.66666487852731 24.66666216651595,72.66666487852731 24.66666216651595,73.99999821186066 23.99999549984932,75.33333154519397 23.333328833182634,75.99999821186066 23.333328833182634,76.66666487852731 23.333328833182634,77.33333154519397 23.333328833182634,78.66666487852731 23.333328833182634,79.33333154519397 23.333328833182634,80.66666487852731 23.333328833182634,81.99999821186066 22.66666216651595,83.33333154519397 21.99999549984932,83.99999821186066 21.99999549984932,83.99999821186066 21.99999549984932,84.66666487852731 21.99999549984932,85.33333154519397 21.99999549984932,86.66666487852733 21.333328833182634,86.66666487852733 21.333328833182634,88.66666487852733 21.333328833182634,89.33333154519397 21.333328833182634,89.33333154519397 21.333328833182634,89.99999821186066 21.333328833182634,90.66666487852733 21.333328833182634,91.99999821186066 21.333328833182634,93.33333154519397 21.333328833182634,94.66666487852733 21.333328833182634,95.33333154519397 21.333328833182634,95.99999821186066 21.333328833182634,96.66666487852733 21.333328833182634,97.33333154519397 21.333328833182634,97.33333154519397 21.333328833182634,97.99999821186066 21.333328833182634,98.66666487852733 21.333328833182634,99.33333154519397 21.333328833182634,99.99999821186066 21.333328833182634,100.66666487852733 21.333328833182634,102.66666487852733 21.99999549984932,102.66666487852733 21.99999549984932,103.99999821186066 21.99999549984932,104.66666487852733 21.99999549984932,105.33333154519397 21.99999549984932,104.66666487852733 21.99999549984932,102.66666487852733 21.99999549984932,102.66666487852733 21.99999549984932,100.66666487852733 22.66666216651595,99.99999821186066 23.333328833182634,97.33333154519397 23.333328833182634,95.99999821186066 23.333328833182634,94.66666487852733 23.99999549984932,91.33333154519397 24.66666216651595,87.99999821186066 25.333328833182634,86.66666487852733 25.333328833182634,84.66666487852731 25.99999549984932,83.99999821186066 25.99999549984932,82.66666487852731 25.99999549984932,81.33333154519397 25.99999549984932,79.33333154519397 26.66666216651595,77.33333154519397 27.99999549984932,75.99999821186066 28.66666216651595,74.66666487852731 28.66666216651595,72.66666487852731 28.66666216651595,70.66666487852731 30.66666216651595,67.99999821186066 31.333328833182634,65.99999821186066 31.333328833182634,64.66666487852731 31.99999549984932,62.666664878527314 32.66666216651595,62.666664878527314 33.333328833182634,60.666664878527314 33.333328833182634,59.99999821186066 33.99999549984932,58.666664878527314 35.99999549984932,55.99999821186066 36.66666216651595,53.99999821186066 37.99999549984932,51.99999821186066 40.66666216651595,47.33333154519397 41.333328833182634,46.666664878527314 41.99999549984932,43.99999821186066 44.66666216651595,42.666664878527314 45.333328833182634,40.666664878527314 47.333328833182634,38.666664878527314 47.333328833182634,38.666664878527314 49.333328833182634,36.666664878527314 49.99999549984932,35.99999821186066 50.66666216651595,34.666664878527314 51.99999549984932,33.99999821186066 52.66666216651595,33.33333154519397 53.333328833182634,32.666664878527314 55.333328833182634,31.33333154519397 55.333328833182634,30.666664878527314 55.99999549984932,30.666664878527314 56.66666216651595,29.999998211860657 57.99999549984932,29.33333154519397 58.66666216651595,27.999998211860657 59.99999549984932,27.999998211860657 60.66666216651595,26.666664878527314 62.66666216651595,25.999998211860657 63.333328833182634,25.33333154519397 64.66666216651595,24.666664878527314 65.99999549984932,24.666664878527314 65.99999549984932,23.999998211860657 66.66666216651595,23.999998211860657 67.99999549984932,23.999998211860657 68.66666216651595,23.33333154519397 71.33332883318263,23.33333154519397 71.99999549984932,22.666664878527314 72.66666216651595,22.666664878527314 73.33332883318263,22.666664878527314 73.99999549984932,22.666664878527314 74.66666216651595,22.666664878527314 77.33332883318263,22.666664878527314 79.33332883318263,21.999998211860657 80.66666216651595,21.33333154519397 81.99999549984932,21.33333154519397 81.99999549984932,20.666664878527314 82.66666216651595,20.666664878527314 83.33332883318263,20.666664878527314 83.99999549984932,20.666664878527314 84.66666216651595,20.666664878527314 84.66666216651595,20.666664878527314 85.33332883318263,20.666664878527314 85.99999549984932,20.666664878527314 86.66666216651595,19.999998211860657 87.33332883318263,19.999998211860657 87.99999549984932,19.999998211860657 88.66666216651595,19.999998211860657 89.33332883318263,19.999998211860657 89.99999549984932,19.33333154519397 89.99999549984932,19.33333154519397 90.66666216651595,19.33333154519397 91.33332883318263,19.33333154519397 92.66666216651595,19.33333154519397 93.99999549984932,19.33333154519397 95.33332883318263,18.666664878527314 96.66666216651595,18.666664878527314 97.99999549984932,17.999998211860657 97.99999549984932,17.999998211860657 98.66666216651595,17.999998211860657 99.99999549984932,17.999998211860657 100.66666216651595,17.999998211860657 102.66666216651595,17.33333154519397 103.33332883318263,17.33333154519397 105.33332883318263,17.33333154519397 105.99999549984932,17.33333154519397 106.66666216651595,17.33333154519397 108.66666216651595,17.33333154519397 109.99999549984932,16.666664878527314 111.33332883318263,16.666664878527314 111.99999549984932,16.666664878527314 112.66666216651595,16.666664878527314 113.33332883318263,16.666664878527314 113.99999549984932,16.666664878527314 114.66666216651595,16.666664878527314 115.99999549984932,17.33333154519397 116.66666216651595,17.33333154519397 117.99999549984932,17.33333154519397 119.99999549984932,17.33333154519397 121.33332883318263,17.999998211860657 121.99999549984932,17.999998211860657 121.99999549984932,17.999998211860657 123.33332883318263,18.666664878527314 123.99999549984932,18.666664878527314 124.66666216651595,18.666664878527314 124.66666216651595,18.666664878527314 125.33332883318263,18.666664878527314 125.99999549984932,18.666664878527314 126.66666216651595,19.33333154519397 127.33332883318263,19.33333154519397 127.99999549984932,19.999998211860657 128.66666216651595,19.999998211860657 129.33332883318263,19.999998211860657 " style="color: rgb(204, 104, 42);" class="selected" stroke-opacity="1"/><polyline fill="none" stroke="#f2691a" stroke-width="12" stroke-linejoin="round" stroke-dashoffset="" fill-rule="nonzero" marker-start="" marker-mid="" marker-end="" id="svg_1" points="49.99999549984932,179.99999821186066 49.99999549984932,179.99999821186066 49.333328833182634,179.99999821186066 48.66666216651595,179.99999821186066 47.99999549984932,179.333331545194 47.333328833182634,177.99999821186066 46.66666216651595,177.333331545194 44.66666216651595,175.99999821186066 43.99999549984932,175.333331545194 41.99999549984932,173.333331545194 41.333328833182634,172.66666487852729 40.66666216651595,171.333331545194 39.333328833182634,170.66666487852729 39.333328833182634,169.99999821186066 38.66666216651595,168.66666487852729 37.333328833182634,167.33333154519397 36.66666216651595,165.99999821186066 35.99999549984932,164.66666487852729 34.66666216651595,161.99999821186066 33.333328833182634,160.66666487852729 31.333328833182634,157.99999821186066 31.333328833182634,156.66666487852729 29.99999549984932,153.33333154519397 28.66666216651595,149.33333154519397 27.99999549984932,147.33333154519397 27.333328833182634,145.99999821186066 27.333328833182634,144.66666487852729 27.333328833182634,142.66666487852729 26.66666216651595,140.66666487852729 25.99999549984932,139.33333154519397 25.99999549984932,137.33333154519397 25.333328833182634,136.66666487852729 25.333328833182634,135.33333154519397 24.66666216651595,133.99999821186066 23.99999549984932,131.99999821186066 23.333328833182634,129.33333154519397 23.333328833182634,127.99999821186066 23.333328833182634,127.33333154519397 23.333328833182634,125.99999821186066 23.333328833182634,123.99999821186066 23.333328833182634,123.33333154519397 22.66666216651595,121.99999821186066 22.66666216651595,120.66666487852733 22.66666216651595,119.99999821186066 22.66666216651595,119.33333154519397 22.66666216651595,118.66666487852733 22.66666216651595,118.66666487852733 21.99999549984932,117.99999821186066 21.99999549984932,117.33333154519397 21.99999549984932,116.66666487852733 21.333328833182634,115.99999821186066 21.333328833182634,114.66666487852733 21.333328833182634,113.33333154519397 20.66666216651595,110.66666487852733 20.66666216651595,109.99999821186066 20.66666216651595,108.66666487852733 20.66666216651595,107.99999821186066 20.66666216651595,107.99999821186066 20.66666216651595,107.33333154519397 20.66666216651595,106.66666487852733 20.66666216651595,105.99999821186066 20.66666216651595,105.33333154519397 20.66666216651595,105.33333154519397 20.66666216651595,103.99999821186066 20.66666216651595,103.33333154519397 20.66666216651595,101.99999821186066 20.66666216651595,97.99999821186066 21.333328833182634,95.99999821186066 21.333328833182634,93.99999821186066 22.66666216651595,89.99999821186066 22.66666216651595,88.66666487852733 23.333328833182634,86.66666487852733 23.99999549984932,84.66666487852731 23.99999549984932,83.99999821186066 25.333328833182634,81.99999821186066 25.99999549984932,81.33333154519397 25.99999549984932,79.99999821186066 26.66666216651595,78.66666487852731 27.99999549984932,77.33333154519397 28.66666216651595,75.33333154519397 30.66666216651595,73.33333154519397 31.333328833182634,70.66666487852731 32.66666216651595,68.66666487852731 33.99999549984932,66.66666487852731 33.99999549984932,65.33333154519397 35.333328833182634,62.666664878527314 36.66666216651595,60.666664878527314 36.66666216651595,59.99999821186066 37.99999549984932,59.33333154519397 37.99999549984932,58.666664878527314 38.66666216651595,57.99999821186066 39.99999549984932,56.666664878527314 41.99999549984932,54.666664878527314 43.99999549984932,53.33333154519397 46.66666216651595,51.33333154519397 47.333328833182634,49.99999821186066 49.333328833182634,49.33333154519397 50.66666216651595,47.33333154519397 52.66666216651595,46.666664878527314 54.66666216651595,44.666664878527314 55.99999549984932,41.99999821186066 59.99999549984932,39.33333154519397 61.333328833182634,37.99999821186066 63.333328833182634,37.33333154519397 63.99999549984932,35.99999821186066 64.66666216651595,35.99999821186066 65.99999549984932,35.99999821186066 66.66666216651595,35.33333154519397 68.66666216651595,33.99999821186066 71.99999549984932,33.33333154519397 75.33332883318263,32.666664878527314 77.99999549984932,30.666664878527314 81.99999549984932,29.33333154519397 84.66666216651595,27.999998211860657 85.99999549984932,27.999998211860657 87.33332883318263,27.999998211860657 89.99999549984932,26.666664878527314 91.99999549984932,25.999998211860657 93.33332883318263,25.33333154519397 94.66666216651595,25.33333154519397 95.33332883318263,25.33333154519397 96.66666216651595,25.33333154519397 97.33332883318263,25.33333154519397 100.66666216651595,23.33333154519397 103.33332883318263,22.666664878527314 104.66666216651595,22.666664878527314 105.99999549984932,22.666664878527314 105.99999549984932,22.666664878527314 107.33332883318263,21.999998211860657 107.99999549984932,21.999998211860657 108.66666216651595,21.999998211860657 108.66666216651595,21.999998211860657 109.33332883318263,21.33333154519397 110.66666216651595,21.33333154519397 111.33332883318263,21.33333154519397 113.99999549984932,21.33333154519397 115.33332883318263,20.666664878527314 119.33332883318263,19.999998211860657 121.99999549984932,19.999998211860657 124.66666216651595,19.33333154519397 125.33332883318263,19.33333154519397 125.99999549984932,18.666664878527314 126.66666216651595,18.666664878527314 127.33332883318263,18.666664878527314 128.66666216651595,18.666664878527314 129.33332883318263,18.666664878527314 129.99999549984932,18.666664878527314 131.33332883318263,19.33333154519397 132.66666216651595,19.33333154519397 133.33332883318263,19.999998211860657 134.66666216651595,19.999998211860657 135.99999549984932,20.666664878527314 136.66666216651595,20.666664878527314 137.99999549984932,21.999998211860657 138.66666216651595,22.666664878527314 139.99999549984932,22.666664878527314 140.66666216651595,23.33333154519397 142.66666216651595,23.999998211860657 143.33332883318263,24.666664878527314 143.99999549984932,25.33333154519397 145.33332883318263,25.33333154519397 145.99999549984932,25.999998211860657 146.66666216651595,26.666664878527314 146.66666216651595,27.33333154519397 147.99999549984932,27.999998211860657 147.99999549984932,27.999998211860657 148.66666216651595,29.33333154519397 149.33332883318263,29.999998211860657 150.66666216651595,30.666664878527314 151.33332883318263,31.33333154519397 151.33332883318263,31.33333154519397 151.99999549984932,32.666664878527314 151.99999549984932,33.33333154519397 152.66666216651595,33.33333154519397 153.33332883318263,33.99999821186066 153.99999549984932,34.666664878527314 153.99999549984932,35.33333154519397 154.66666216651595,35.99999821186066 154.66666216651595,35.99999821186066 155.33332883318263,35.99999821186066 155.33332883318263,36.666664878527314 155.99999549984932,36.666664878527314 156.66666216651595,36.666664878527314 156.66666216651595,36.666664878527314 157.33332883318263,35.99999821186066 159.33332883318263,35.99999821186066 161.99999549984932,34.666664878527314 164.66666216651595,33.33333154519397 169.99999549984932,31.999998211860657 172.66666216651595,30.666664878527314 174.66666216651595,30.666664878527314 176.66666216651595,29.33333154519397 177.99999549984932,28.666664878527314 177.99999549984932,28.666664878527314 178.66666216651595,27.999998211860657 179.33332883318266,27.999998211860657 180.66666216651595,27.999998211860657 181.33332883318266,27.999998211860657 181.99999549984932,27.999998211860657 183.33332883318266,27.33333154519397 183.99999549984932,27.33333154519397 187.33332883318266,25.999998211860657 191.99999549984932,25.33333154519397 195.33332883318266,24.666664878527314 197.99999549984932,24.666664878527314 199.33332883318266,23.999998211860657 199.33332883318266,23.999998211860657 199.99999549984932,23.999998211860657 201.99999549984932,23.999998211860657 203.33332883318266,23.999998211860657 204.66666216651595,23.999998211860657 207.33332883318266,23.999998211860657 207.99999549984932,24.666664878527314 208.66666216651595,24.666664878527314 209.99999549984932,24.666664878527314 209.99999549984932,25.33333154519397 211.33332883318258,25.33333154519397 212.66666216651595,25.33333154519397 214.66666216651595,25.33333154519397 215.33332883318258,25.33333154519397 217.33332883318258,26.666664878527314 217.99999549984932,27.33333154519397 219.99999549984932,27.33333154519397 222.66666216651595,27.999998211860657 223.99999549984932,28.666664878527314 225.99999549984932,29.33333154519397 226.66666216651595,29.33333154519397 227.99999549984932,29.999998211860657 228.66666216651595,30.666664878527314 229.33332883318258,30.666664878527314 229.33332883318258,30.666664878527314 230.66666216651595,30.666664878527314 231.33332883318258,31.33333154519397 231.99999549984932,31.999998211860657 233.33332883318258,31.999998211860657 233.99999549984932,32.666664878527314 235.33332883318258,33.33333154519397 237.99999549984932,33.99999821186066 239.33332883318258,33.99999821186066 241.33332883318258,34.666664878527314 241.99999549984932,34.666664878527314 243.33332883318258,35.33333154519397 243.99999549984932,35.99999821186066 244.66666216651595,35.99999821186066 247.33332883318258,37.33333154519397 248.66666216651595,37.99999821186066 249.99999549984932,38.666664878527314 251.33332883318258,39.33333154519397 252.66666216651595,39.99999821186066 253.33332883318258,40.666664878527314 254.66666216651595,41.33333154519397 255.33332883318258,41.99999821186066 256.66666216651595,43.33333154519397 258.66666216651595,44.666664878527314 259.9999954998493,45.99999821186066 261.3333288331826,46.666664878527314 262.66666216651595,47.99999821186066 263.3333288331826,48.666664878527314 263.9999954998493,49.99999821186066 265.3333288331826,50.666664878527314 265.9999954998493,51.99999821186066 266.66666216651595,51.99999821186066 267.9999954998493,52.666664878527314 268.66666216651595,54.666664878527314 269.3333288331826,54.666664878527314 270.66666216651595,55.99999821186066 271.3333288331826,57.33333154519397 272.66666216651595,58.666664878527314 273.9999954998493,60.666664878527314 274.66666216651595,61.99999821186066 275.9999954998493,63.33333154519397 276.66666216651595,65.33333154519397 277.3333288331826,65.99999821186066 277.9999954998493,66.66666487852731 278.66666216651595,67.99999821186066 279.3333288331826,69.33333154519397 279.3333288331826,70.66666487852731 279.3333288331826,71.33333154519397 279.9999954998493,72.66666487852731 281.3333288331826,74.66666487852731 281.3333288331826,75.99999821186066 281.3333288331826,76.66666487852731 281.3333288331826,77.99999821186066 281.9999954998493,79.99999821186066 281.9999954998493,81.33333154519397 282.66666216651595,81.99999821186066 282.66666216651595,83.33333154519397 282.66666216651595,83.99999821186066 282.66666216651595,84.66666487852731 283.3333288331826,85.99999821186066 283.3333288331826,86.66666487852733 283.3333288331826,88.66666487852733 284.66666216651595,91.33333154519397 284.66666216651595,91.99999821186066 284.66666216651595,94.66666487852733 285.3333288331826,96.66666487852733 285.3333288331826,97.33333154519397 285.3333288331826,97.99999821186066 285.9999954998493,99.99999821186066 285.9999954998493,99.99999821186066 286.66666216651595,101.33333154519397 286.66666216651595,102.66666487852733 286.66666216651595,102.66666487852733 286.66666216651595,105.33333154519397 287.3333288331826,105.99999821186066 287.3333288331826,107.99999821186066 287.3333288331826,109.99999821186066 287.3333288331826,111.33333154519397 287.3333288331826,113.33333154519397 287.3333288331826,114.66666487852733 287.3333288331826,115.99999821186066 287.3333288331826,118.66666487852733 287.3333288331826,119.99999821186066 287.3333288331826,121.33333154519397 287.3333288331826,123.99999821186066 287.3333288331826,125.99999821186066 287.3333288331826,127.99999821186066 287.3333288331826,129.33333154519397 287.3333288331826,131.33333154519397 287.3333288331826,132.6666648785273 286.66666216651595,134.6666648785273 285.9999954998493,136.66666487852729 285.3333288331826,138.66666487852729 285.3333288331826,139.99999821186066 284.66666216651595,142.66666487852729 284.66666216651595,144.66666487852729 283.3333288331826,145.99999821186066 281.9999954998493,147.99999821186066 281.9999954998493,149.99999821186066 279.3333288331826,153.33333154519397 279.3333288331826,155.33333154519397 277.9999954998493,156.66666487852729 277.3333288331826,157.99999821186066 276.66666216651595,158.66666487852729 274.66666216651595,161.33333154519397 273.9999954998493,162.66666487852729 271.9999954998493,163.99999821186066 270.66666216651595,166.66666487852729 268.66666216651595,168.66666487852729 268.66666216651595,169.33333154519397 267.3333288331826,169.99999821186066 266.66666216651595,170.66666487852729 265.9999954998493,171.333331545194 265.9999954998493,171.99999821186066 264.66666216651595,171.99999821186066 264.66666216651595,173.333331545194 263.3333288331826,173.99999821186066 262.66666216651595,174.66666487852729 261.3333288331826,175.333331545194 259.9999954998493,176.66666487852729 257.9999954998493,177.99999821186066 257.3333288331826,178.66666487852729 255.33332883318258,179.99999821186066 255.33332883318258,179.99999821186066 254.66666216651595,180.66666487852729 253.99999549984932,181.333331545194 253.33332883318258,181.333331545194 253.33332883318258,181.99999821186066 252.66666216651595,181.99999821186066 252.66666216651595,182.66666487852729 251.99999549984932,182.66666487852729 251.33332883318258,183.333331545194 250.66666216651595,183.99999821186066 249.99999549984932,184.66666487852729 249.99999549984932,184.66666487852729 249.33332883318258,185.333331545194 248.66666216651595,185.333331545194 247.99999549984932,185.333331545194 247.99999549984932,185.333331545194 247.33332883318258,185.333331545194 246.66666216651595,185.99999821186066 246.66666216651595,186.66666487852729 245.99999549984932,186.66666487852729 245.33332883318258,186.66666487852729 245.33332883318258,187.333331545194 243.99999549984932,187.99999821186066 243.33332883318258,187.99999821186066 241.99999549984932,188.66666487852729 241.33332883318258,189.99999821186066 239.99999549984932,190.66666487852729 239.33332883318258,191.333331545194 237.99999549984932,191.99999821186066 236.66666216651595,192.66666487852729 236.66666216651595,193.333331545194 234.66666216651595,193.333331545194 233.99999549984932,193.99999821186066 233.99999549984932,193.99999821186066 233.99999549984932,194.66666487852729 233.33332883318258,194.66666487852729 231.33332883318258,194.66666487852729 231.33332883318258,194.66666487852729 230.66666216651595,194.66666487852729 229.99999549984932,195.333331545194 229.33332883318258,195.333331545194 228.66666216651595,195.333331545194 228.66666216651595,195.333331545194 227.99999549984932,195.333331545194 227.33332883318258,195.333331545194 226.66666216651595,195.333331545194 225.99999549984932,195.333331545194 225.99999549984932,195.99999821186066 225.99999549984932,195.99999821186066 225.33332883318258,195.99999821186066 224.66666216651595,195.99999821186066 223.99999549984932,195.99999821186066 223.99999549984932,195.99999821186066 223.99999549984932,196.66666487852729 223.99999549984932,197.333331545194 223.99999549984932,197.99999821186066 223.99999549984932,198.66666487852729 223.99999549984932,198.66666487852729 224.66666216651595,198.66666487852729 224.66666216651595,199.333331545194 224.66666216651595,199.99999821186066 224.66666216651595,201.333331545194 224.66666216651595,204.66666487852729 223.33332883318258,206.66666487852729 223.33332883318258,207.333331545194 223.33332883318258,208.66666487852729 223.33332883318258,209.333331545194 223.33332883318258,209.99999821186066 221.99999549984932,211.99999821186066 221.99999549984932,213.333331545194 221.33332883318258,215.333331545194 220.66666216651595,216.66666487852729 219.33332883318258,217.99999821186066 218.66666216651595,219.99999821186066 217.99999549984932,221.99999821186066 217.99999549984932,222.66666487852729 217.33332883318258,223.99999821186066 215.99999549984932,225.333331545194 215.99999549984932,225.99999821186066 215.33332883318258,226.66666487852729 215.33332883318258,227.99999821186066 215.33332883318258,227.99999821186066 214.66666216651595,228.66666487852729 213.33332883318258,229.99999821186066 212.66666216651595,230.66666487852729 211.99999549984932,232.66666487852729 211.33332883318258,233.333331545194 209.99999549984932,234.66666487852729 208.66666216651595,235.99999821186066 207.33332883318266,237.333331545194 206.66666216651595,238.66666487852729 204.66666216651595,240.66666487852729 202.66666216651595,241.99999821186066 201.33332883318266,243.99999821186066 199.33332883318266,244.66666487852729 198.66666216651595,246.66666487852729 197.33332883318266,246.66666487852729 196.66666216651595,248.66666487852729 195.33332883318266,249.333331545194 193.99999549984932,249.99999821186066 193.33332883318266,251.333331545194 191.33332883318266,251.99999821186066 190.66666216651595,252.66666487852729 189.33332883318266,253.333331545194 188.66666216651595,254.66666487852729 187.33332883318266,254.66666487852729 185.99999549984932,255.333331545194 184.66666216651595,256.6666648785273 183.33332883318266,257.33333154519397 182.66666216651595,257.99999821186066 180.66666216651595,259.33333154519397 179.33332883318266,259.99999821186066 177.99999549984932,259.99999821186066 177.33332883318266,260.6666648785273 175.99999549984932,261.99999821186066 173.33332883318266,262.6666648785273 171.99999549984932,263.33333154519397 169.33332883318263,264.6666648785273 167.33332883318263,265.33333154519397 165.33332883318263,265.33333154519397 162.66666216651595,266.6666648785273 159.99999549984932,267.99999821186066 156.66666216651595,269.33333154519397 153.99999549984932,269.99999821186066 151.99999549984932,269.99999821186066 150.66666216651595,269.99999821186066 148.66666216651595,270.6666648785273 145.99999549984932,271.33333154519397 143.33332883318263,271.99999821186066 140.66666216651595,273.33333154519397 137.33332883318263,273.33333154519397 133.99999549984932,274.6666648785273 129.99999549984932,274.6666648785273 129.33332883318263,274.6666648785273 127.33332883318263,275.33333154519397 127.33332883318263,275.99999821186066 125.33332883318263,275.99999821186066 123.33332883318263,275.99999821186066 121.33332883318263,276.6666648785273 119.33332883318263,277.33333154519397 116.66666216651595,277.33333154519397 113.99999549984932,277.33333154519397 112.66666216651595,277.33333154519397 111.33332883318263,277.33333154519397 107.99999549984932,277.33333154519397 105.33332883318263,277.99999821186066 102.66666216651595,277.99999821186066 99.33332883318263,277.99999821186066 97.33332883318263,277.99999821186066 95.99999549984932,277.99999821186066 95.33332883318263,277.99999821186066 94.66666216651595,277.33333154519397 92.66666216651595,276.6666648785273 89.99999549984932,275.99999821186066 88.66666216651595,275.99999821186066 85.33332883318263,275.33333154519397 83.33332883318263,275.33333154519397 80.66666216651595,273.99999821186066 79.33332883318263,273.99999821186066 76.66666216651595,273.33333154519397 75.33332883318263,272.6666648785273 73.99999549984932,271.99999821186066 73.99999549984932,271.33333154519397 73.33332883318263,270.6666648785273 71.99999549984932,270.6666648785273 71.33332883318263,269.99999821186066 69.99999549984932,269.33333154519397 68.66666216651595,267.99999821186066 66.66666216651595,267.33333154519397 63.99999549984932,265.33333154519397 62.66666216651595,265.33333154519397 61.333328833182634,264.6666648785273 60.66666216651595,263.33333154519397 58.66666216651595,262.6666648785273 57.99999549984932,261.33333154519397 57.333328833182634,259.99999821186066 55.99999549984932,259.99999821186066 55.333328833182634,258.6666648785273 54.66666216651595,257.33333154519397 53.99999549984932,256.6666648785273 52.66666216651595,255.333331545194 51.333328833182634,252.66666487852729 50.66666216651595,251.99999821186066 49.99999549984932,250.66666487852729 47.99999549984932,248.66666487852729 47.99999549984932,247.99999821186066 47.333328833182634,246.66666487852729 46.66666216651595,245.99999821186066 45.99999549984932,243.99999821186066 44.66666216651595,242.66666487852729 43.99999549984932,240.66666487852729 43.333328833182634,238.66666487852729 42.66666216651595,238.66666487852729 41.99999549984932,235.99999821186066 41.99999549984932,234.66666487852729 41.333328833182634,232.66666487852729 40.66666216651595,230.66666487852729 39.99999549984932,228.66666487852729 39.99999549984932,227.99999821186066 39.99999549984932,225.99999821186066 39.99999549984932,225.333331545194 39.99999549984932,224.66666487852729 39.99999549984932,222.66666487852729 39.99999549984932,219.99999821186066 39.99999549984932,217.333331545194 39.99999549984932,215.333331545194 39.99999549984932,211.99999821186066 39.99999549984932,210.66666487852729 39.99999549984932,209.333331545194 39.99999549984932,207.99999821186066 39.99999549984932,206.66666487852729 39.99999549984932,205.99999821186066 39.99999549984932,204.66666487852729 39.99999549984932,203.99999821186066 39.99999549984932,202.66666487852729 39.99999549984932,201.333331545194 39.99999549984932,199.333331545194 39.99999549984932,197.99999821186066 39.99999549984932,195.333331545194 39.99999549984932,193.333331545194 39.99999549984932,191.99999821186066 39.99999549984932,190.66666487852729 39.99999549984932,189.333331545194 39.99999549984932,188.66666487852729 39.99999549984932,187.99999821186066 39.99999549984932,187.99999821186066 39.99999549984932,187.333331545194 40.66666216651595,185.99999821186066 40.66666216651595,185.333331545194 40.66666216651595,185.333331545194 41.333328833182634,183.99999821186066 41.333328833182634,183.333331545194 41.99999549984932,182.66666487852729 41.99999549984932,182.66666487852729 41.99999549984932,181.99999821186066 42.66666216651595,180.66666487852729 43.333328833182634,180.66666487852729 43.333328833182634,179.99999821186066 43.333328833182634,179.99999821186066 43.99999549984932,179.333331545194 43.99999549984932,178.66666487852729 44.66666216651595,178.66666487852729 44.66666216651595,177.99999821186066 44.66666216651595,177.333331545194 44.66666216651595,177.333331545194 45.333328833182634,177.333331545194 45.333328833182634,176.66666487852729 45.99999549984932,176.66666487852729 45.99999549984932,175.99999821186066 46.66666216651595,175.99999821186066 47.333328833182634,175.99999821186066 47.333328833182634,175.333331545194 " style="color: rgb(155, 155, 27);" class="" stroke-opacity="1"/><polyline fill="none" stroke="#ff8a2b" stroke-width="12" stroke-linejoin="round" stroke-dashoffset="" fill-rule="nonzero" marker-start="" marker-mid="" marker-end="" id="svg_2" points="47.99999549984932,170.66666487852729 47.99999549984932,170.66666487852729 47.99999549984932,169.99999821186066 47.99999549984932,169.33333154519397 47.333328833182634,168.66666487852729 47.333328833182634,167.33333154519397 47.333328833182634,166.66666487852729 46.66666216651595,165.99999821186066 45.99999549984932,165.33333154519397 45.99999549984932,164.66666487852729 45.333328833182634,163.99999821186066 44.66666216651595,163.99999821186066 44.66666216651595,163.33333154519397 44.66666216651595,163.33333154519397 43.333328833182634,161.33333154519397 43.333328833182634,161.33333154519397 42.66666216651595,160.66666487852729 41.99999549984932,159.99999821186066 41.99999549984932,159.33333154519397 41.99999549984932,159.33333154519397 41.99999549984932,158.66666487852729 41.333328833182634,158.66666487852729 41.333328833182634,157.99999821186066 40.66666216651595,156.66666487852729 39.99999549984932,156.66666487852729 39.333328833182634,155.99999821186066 39.333328833182634,155.33333154519397 39.333328833182634,154.66666487852729 39.333328833182634,153.33333154519397 38.66666216651595,153.33333154519397 37.99999549984932,152.66666487852729 37.99999549984932,151.99999821186066 37.99999549984932,151.33333154519397 37.333328833182634,150.66666487852729 37.333328833182634,149.33333154519397 36.66666216651595,147.99999821186066 36.66666216651595,146.66666487852729 36.66666216651595,146.66666487852729 36.66666216651595,145.33333154519397 35.99999549984932,145.33333154519397 35.333328833182634,143.99999821186066 35.333328833182634,142.66666487852729 34.66666216651595,142.66666487852729 33.99999549984932,140.66666487852729 33.99999549984932,139.99999821186066 33.99999549984932,139.99999821186066 33.99999549984932,139.33333154519397 33.99999549984932,137.33333154519397 33.99999549984932,134.6666648785273 33.99999549984932,134.6666648785273 33.333328833182634,132.6666648785273 33.333328833182634,131.99999821186066 32.66666216651595,131.33333154519397 31.99999549984932,130.6666648785273 31.99999549984932,129.33333154519397 31.99999549984932,128.6666648785273 31.99999549984932,127.99999821186066 31.99999549984932,127.33333154519397 31.99999549984932,126.66666487852733 31.333328833182634,125.99999821186066 31.333328833182634,123.99999821186066 31.333328833182634,122.66666487852733 30.66666216651595,120.66666487852733 30.66666216651595,118.66666487852733 30.66666216651595,117.33333154519397 30.66666216651595,115.99999821186066 30.66666216651595,115.33333154519397 29.99999549984932,113.99999821186066 29.99999549984932,113.33333154519397 29.99999549984932,112.66666487852733 29.333328833182634,111.33333154519397 29.333328833182634,110.66666487852733 29.333328833182634,110.66666487852733 29.333328833182634,109.99999821186066 29.333328833182634,109.33333154519397 29.333328833182634,108.66666487852733 29.333328833182634,107.99999821186066 29.333328833182634,107.33333154519397 29.333328833182634,105.99999821186066 29.333328833182634,105.33333154519397 29.333328833182634,103.99999821186066 29.333328833182634,101.33333154519397 29.333328833182634,99.99999821186066 29.333328833182634,97.33333154519397 29.333328833182634,93.33333154519397 29.333328833182634,90.66666487852733 29.333328833182634,88.66666487852733 29.99999549984932,86.66666487852733 29.99999549984932,83.99999821186066 29.99999549984932,83.99999821186066 30.66666216651595,83.33333154519397 30.66666216651595,82.66666487852731 30.66666216651595,81.99999821186066 30.66666216651595,81.33333154519397 30.66666216651595,81.33333154519397 31.333328833182634,80.66666487852731 31.333328833182634,79.99999821186066 31.333328833182634,79.33333154519397 31.333328833182634,78.66666487852731 31.333328833182634,77.99999821186066 31.99999549984932,75.99999821186066 32.66666216651595,74.66666487852731 33.333328833182634,73.33333154519397 33.99999549984932,71.33333154519397 33.99999549984932,70.66666487852731 33.99999549984932,69.33333154519397 34.66666216651595,67.99999821186066 35.333328833182634,67.33333154519397 35.333328833182634,66.66666487852731 35.333328833182634,65.99999821186066 35.99999549984932,65.99999821186066 35.99999549984932,65.33333154519397 36.66666216651595,65.33333154519397 36.66666216651595,65.33333154519397 36.66666216651595,63.99999821186066 37.99999549984932,63.33333154519397 39.333328833182634,61.99999821186066 40.66666216651595,61.33333154519397 40.66666216651595,59.99999821186066 41.333328833182634,59.99999821186066 41.99999549984932,59.99999821186066 41.99999549984932,59.99999821186066 43.333328833182634,59.33333154519397 45.333328833182634,57.33333154519397 47.333328833182634,55.99999821186066 49.99999549984932,54.666664878527314 54.66666216651595,51.99999821186066 55.99999549984932,51.33333154519397 56.66666216651595,49.99999821186066 57.333328833182634,49.99999821186066 57.99999549984932,49.99999821186066 57.99999549984932,49.99999821186066 58.66666216651595,49.33333154519397 59.99999549984932,49.33333154519397 60.66666216651595,48.666664878527314 61.99999549984932,47.99999821186066 63.99999549984932,46.666664878527314 65.99999549984932,45.99999821186066 66.66666216651595,45.33333154519397 67.33332883318263,45.33333154519397 68.66666216651595,43.99999821186066 68.66666216651595,43.99999821186066 69.99999549984932,43.99999821186066 70.66666216651595,43.33333154519397 70.66666216651595,42.666664878527314 71.33332883318263,42.666664878527314 71.33332883318263,42.666664878527314 72.66666216651595,41.33333154519397 73.99999549984932,41.33333154519397 75.99999549984932,40.666664878527314 77.99999549984932,39.33333154519397 79.33332883318263,38.666664878527314 80.66666216651595,38.666664878527314 81.99999549984932,37.99999821186066 81.99999549984932,37.99999821186066 82.66666216651595,37.33333154519397 83.33332883318263,37.33333154519397 84.66666216651595,36.666664878527314 87.33332883318263,35.33333154519397 89.33332883318263,34.666664878527314 91.33332883318263,33.33333154519397 91.99999549984932,33.33333154519397 92.66666216651595,32.666664878527314 93.33332883318263,32.666664878527314 93.99999549984932,32.666664878527314 95.33332883318263,32.666664878527314 97.33332883318263,32.666664878527314 98.66666216651595,32.666664878527314 100.66666216651595,32.666664878527314 101.99999549984932,32.666664878527314 103.33332883318263,31.999998211860657 104.66666216651595,31.999998211860657 105.99999549984932,31.999998211860657 108.66666216651595,31.999998211860657 111.33332883318263,31.33333154519397 115.99999549984932,30.666664878527314 118.66666216651595,29.999998211860657 121.99999549984932,29.999998211860657 123.33332883318263,29.33333154519397 124.66666216651595,29.33333154519397 125.33332883318263,29.33333154519397 126.66666216651595,29.33333154519397 127.33332883318263,29.33333154519397 127.33332883318263,29.33333154519397 127.33332883318263,28.666664878527314 127.99999549984932,28.666664878527314 128.66666216651595,28.666664878527314 129.33332883318263,28.666664878527314 129.99999549984932,29.33333154519397 131.33332883318263,29.999998211860657 131.99999549984932,30.666664878527314 132.66666216651595,30.666664878527314 133.99999549984932,30.666664878527314 135.33332883318263,31.999998211860657 135.99999549984932,31.999998211860657 137.33332883318263,32.666664878527314 137.99999549984932,33.33333154519397 138.66666216651595,33.33333154519397 139.33332883318263,33.33333154519397 139.99999549984932,33.33333154519397 139.99999549984932,33.99999821186066 140.66666216651595,34.666664878527314 141.99999549984932,35.33333154519397 143.33332883318263,35.99999821186066 144.66666216651595,36.666664878527314 145.99999549984932,37.99999821186066 147.33332883318263,38.666664878527314 147.99999549984932,38.666664878527314 148.66666216651595,38.666664878527314 148.66666216651595,38.666664878527314 149.99999549984932,39.33333154519397 151.33332883318263,39.99999821186066 155.33332883318263,40.666664878527314 156.66666216651595,40.666664878527314 159.33332883318263,40.666664878527314 160.66666216651595,40.666664878527314 161.99999549984932,40.666664878527314 161.99999549984932,40.666664878527314 163.33332883318263,40.666664878527314 163.99999549984932,40.666664878527314 164.66666216651595,40.666664878527314 167.33332883318263,39.99999821186066 171.99999549984932,38.666664878527314 173.99999549984932,37.33333154519397 175.33332883318266,37.33333154519397 176.66666216651595,37.33333154519397 176.66666216651595,36.666664878527314 177.33332883318266,36.666664878527314 177.99999549984932,36.666664878527314 177.99999549984932,35.99999821186066 179.33332883318266,35.99999821186066 179.99999549984932,35.99999821186066 180.66666216651595,35.99999821186066 180.66666216651595,35.33333154519397 181.33332883318266,35.33333154519397 181.99999549984932,35.33333154519397 182.66666216651595,35.33333154519397 183.33332883318266,34.666664878527314 185.33332883318266,34.666664878527314 187.99999549984932,33.99999821186066 189.33332883318266,33.99999821186066 190.66666216651595,33.99999821186066 191.33332883318266,33.99999821186066 191.99999549984932,33.99999821186066 193.33332883318266,33.99999821186066 193.99999549984932,33.99999821186066 195.99999549984932,33.33333154519397 197.33332883318266,33.33333154519397 199.33332883318266,33.33333154519397 201.99999549984932,33.33333154519397 203.33332883318266,33.33333154519397 204.66666216651595,33.33333154519397 205.33332883318266,33.33333154519397 205.99999549984932,33.33333154519397 206.66666216651595,33.33333154519397 207.33332883318266,33.33333154519397 207.99999549984932,33.33333154519397 209.99999549984932,33.33333154519397 211.33332883318258,33.33333154519397 212.66666216651595,33.99999821186066 213.99999549984932,33.99999821186066 215.33332883318258,34.666664878527314 215.99999549984932,34.666664878527314 216.66666216651595,34.666664878527314 217.33332883318258,34.666664878527314 217.99999549984932,35.33333154519397 218.66666216651595,35.33333154519397 219.33332883318258,35.33333154519397 220.66666216651595,35.99999821186066 221.33332883318258,35.99999821186066 222.66666216651595,35.99999821186066 223.33332883318258,35.99999821186066 223.33332883318258,35.99999821186066 223.99999549984932,35.99999821186066 223.99999549984932,36.666664878527314 225.33332883318258,37.33333154519397 225.99999549984932,37.99999821186066 226.66666216651595,38.666664878527314 228.66666216651595,38.666664878527314 228.66666216651595,39.33333154519397 230.66666216651595,40.666664878527314 231.33332883318258,40.666664878527314 231.33332883318258,41.33333154519397 232.66666216651595,41.33333154519397 232.66666216651595,41.99999821186066 233.99999549984932,41.99999821186066 233.99999549984932,43.33333154519397 235.33332883318258,43.33333154519397 235.99999549984932,43.99999821186066 236.66666216651595,44.666664878527314 238.66666216651595,44.666664878527314 238.66666216651595,45.33333154519397 239.99999549984932,46.666664878527314 240.66666216651595,46.666664878527314 241.33332883318258,46.666664878527314 241.33332883318258,47.33333154519397 241.99999549984932,47.33333154519397 241.99999549984932,47.33333154519397 242.66666216651595,47.33333154519397 243.33332883318258,48.666664878527314 243.99999549984932,49.33333154519397 244.66666216651595,49.33333154519397 245.99999549984932,49.99999821186066 247.33332883318258,51.33333154519397 248.66666216651595,51.99999821186066 249.99999549984932,52.666664878527314 249.99999549984932,53.33333154519397 251.33332883318258,53.33333154519397 251.99999549984932,54.666664878527314 252.66666216651595,54.666664878527314 252.66666216651595,55.33333154519397 253.99999549984932,55.99999821186066 255.33332883318258,56.666664878527314 255.33332883318258,57.33333154519397 257.3333288331826,57.99999821186066 257.9999954998493,58.666664878527314 259.9999954998493,59.99999821186066 260.66666216651595,60.666664878527314 261.3333288331826,61.99999821186066 263.3333288331826,62.666664878527314 263.3333288331826,63.33333154519397 263.9999954998493,63.99999821186066 265.3333288331826,64.66666487852731 265.9999954998493,65.33333154519397 266.66666216651595,65.99999821186066 267.9999954998493,66.66666487852731 268.66666216651595,67.33333154519397 269.3333288331826,67.99999821186066 269.9999954998493,68.66666487852731 270.66666216651595,68.66666487852731 270.66666216651595,69.33333154519397 271.3333288331826,69.99999821186066 271.9999954998493,70.66666487852731 272.66666216651595,71.33333154519397 273.3333288331826,73.33333154519397 273.9999954998493,73.33333154519397 275.3333288331826,75.33333154519397 275.9999954998493,75.99999821186066 276.66666216651595,77.33333154519397 276.66666216651595,77.99999821186066 276.66666216651595,78.66666487852731 277.3333288331826,79.33333154519397 277.9999954998493,81.33333154519397 277.9999954998493,81.33333154519397 279.3333288331826,81.99999821186066 279.3333288331826,83.99999821186066 279.3333288331826,84.66666487852731 279.3333288331826,85.99999821186066 279.9999954998493,87.33333154519397 280.66666216651595,89.99999821186066 281.3333288331826,91.99999821186066 281.3333288331826,93.33333154519397 281.9999954998493,94.66666487852733 281.9999954998493,96.66666487852733 281.9999954998493,97.33333154519397 281.9999954998493,98.66666487852733 282.66666216651595,99.99999821186066 282.66666216651595,101.99999821186066 283.3333288331826,103.33333154519397 283.9999954998493,105.99999821186066 283.9999954998493,107.99999821186066 283.9999954998493,110.66666487852733 283.9999954998493,111.33333154519397 283.9999954998493,113.33333154519397 284.66666216651595,115.99999821186066 284.66666216651595,117.33333154519397 284.66666216651595,118.66666487852733 284.66666216651595,119.99999821186066 284.66666216651595,121.33333154519397 284.66666216651595,123.33333154519397 284.66666216651595,125.33333154519397 284.66666216651595,127.99999821186066 283.9999954998493,129.33333154519397 283.9999954998493,131.99999821186066 283.3333288331826,132.6666648785273 283.3333288331826,133.99999821186066 282.66666216651595,134.6666648785273 282.66666216651595,135.99999821186066 281.9999954998493,136.66666487852729 281.9999954998493,137.33333154519397 281.9999954998493,138.66666487852729 281.3333288331826,139.99999821186066 281.3333288331826,141.33333154519397 279.9999954998493,143.33333154519397 279.3333288331826,145.33333154519397 279.3333288331826,145.99999821186066 277.9999954998493,147.33333154519397 277.3333288331826,147.99999821186066 277.3333288331826,147.99999821186066 277.3333288331826,149.33333154519397 276.66666216651595,150.66666487852729 275.9999954998493,151.33333154519397 275.3333288331826,153.33333154519397 274.66666216651595,153.33333154519397 274.66666216651595,153.33333154519397 274.66666216651595,153.99999821186066 273.9999954998493,153.99999821186066 273.9999954998493,154.66666487852729 273.9999954998493,155.99999821186066 273.9999954998493,155.99999821186066 272.66666216651595,156.66666487852729 271.3333288331826,158.66666487852729 271.3333288331826,158.66666487852729 269.9999954998493,159.99999821186066 268.66666216651595,161.33333154519397 268.66666216651595,161.33333154519397 267.9999954998493,162.66666487852729 265.9999954998493,163.33333154519397 265.3333288331826,164.66666487852729 263.3333288331826,165.99999821186066 262.66666216651595,166.66666487852729 261.3333288331826,167.99999821186066 258.66666216651595,169.33333154519397 257.9999954998493,170.66666487852729 256.66666216651595,170.66666487852729 255.99999549984932,171.333331545194 255.33332883318258,171.99999821186066 254.66666216651595,171.99999821186066 252.66666216651595,172.66666487852729 251.33332883318258,173.99999821186066 249.99999549984932,173.99999821186066 247.99999549984932,174.66666487852729 247.33332883318258,175.333331545194 245.99999549984932,175.99999821186066 244.66666216651595,176.66666487852729 243.33332883318258,177.333331545194 241.99999549984932,177.333331545194 241.33332883318258,177.99999821186066 239.99999549984932,178.66666487852729 239.33332883318258,179.333331545194 239.33332883318258,179.333331545194 238.66666216651595,179.333331545194 237.99999549984932,179.333331545194 237.33332883318258,179.99999821186066 235.99999549984932,179.99999821186066 233.99999549984932,179.99999821186066 232.66666216651595,180.66666487852729 231.33332883318258,181.333331545194 227.99999549984932,181.99999821186066 226.66666216651595,181.99999821186066 225.99999549984932,182.66666487852729 225.99999549984932,182.66666487852729 225.33332883318258,182.66666487852729 224.66666216651595,182.66666487852729 223.33332883318258,182.66666487852729 222.66666216651595,182.66666487852729 220.66666216651595,183.99999821186066 219.99999549984932,183.99999821186066 218.66666216651595,183.99999821186066 217.99999549984932,184.66666487852729 217.99999549984932,185.333331545194 217.99999549984932,185.333331545194 217.99999549984932,185.333331545194 217.33332883318258,185.99999821186066 217.33332883318258,186.66666487852729 217.33332883318258,187.333331545194 217.33332883318258,187.99999821186066 217.33332883318258,187.99999821186066 217.33332883318258,189.99999821186066 216.66666216651595,191.333331545194 216.66666216651595,192.66666487852729 215.99999549984932,193.333331545194 215.99999549984932,195.333331545194 215.33332883318258,195.333331545194 215.33332883318258,197.99999821186066 215.33332883318258,198.66666487852729 215.33332883318258,199.99999821186066 215.33332883318258,200.66666487852729 215.33332883318258,201.333331545194 215.33332883318258,203.333331545194 215.33332883318258,203.99999821186066 215.33332883318258,204.66666487852729 215.33332883318258,205.333331545194 215.33332883318258,206.66666487852729 215.33332883318258,208.66666487852729 214.66666216651595,209.99999821186066 213.99999549984932,211.333331545194 213.99999549984932,211.99999821186066 213.33332883318258,212.66666487852729 213.33332883318258,213.333331545194 213.33332883318258,214.66666487852729 212.66666216651595,215.99999821186066 211.99999549984932,217.99999821186066 211.99999549984932,218.66666487852729 211.99999549984932,219.99999821186066 211.33332883318258,219.99999821186066 210.66666216651595,220.66666487852729 209.99999549984932,221.333331545194 209.99999549984932,221.99999821186066 209.99999549984932,222.66666487852729 209.33332883318266,223.333331545194 209.33332883318266,223.99999821186066 207.33332883318266,225.333331545194 207.33332883318266,225.99999821186066 207.33332883318266,226.66666487852729 206.66666216651595,227.333331545194 205.99999549984932,227.99999821186066 205.33332883318266,227.99999821186066 204.66666216651595,228.66666487852729 203.99999549984932,229.99999821186066 203.99999549984932,230.66666487852729 202.66666216651595,231.333331545194 201.99999549984932,231.333331545194 201.99999549984932,232.66666487852729 201.33332883318266,232.66666487852729 201.33332883318266,233.333331545194 200.66666216651595,233.333331545194 199.99999549984932,233.99999821186066 199.33332883318266,234.66666487852729 199.33332883318266,235.333331545194 198.66666216651595,235.99999821186066 196.66666216651595,236.66666487852729 196.66666216651595,237.333331545194 195.33332883318266,238.66666487852729 193.99999549984932,238.66666487852729 193.33332883318266,239.333331545194 191.99999549984932,239.99999821186066 191.33332883318266,241.333331545194 189.99999549984932,241.333331545194 188.66666216651595,241.99999821186066 187.99999549984932,243.333331545194 186.66666216651595,243.99999821186066 185.99999549984932,243.99999821186066 185.33332883318266,244.66666487852729 183.99999549984932,245.333331545194 183.33332883318266,245.333331545194 182.66666216651595,246.66666487852729 180.66666216651595,246.66666487852729 178.66666216651595,247.99999821186066 177.99999549984932,249.333331545194 175.99999549984932,249.99999821186066 175.33332883318266,250.66666487852729 173.99999549984932,251.333331545194 172.66666216651595,251.99999821186066 172.66666216651595,251.99999821186066 171.33332883318266,252.66666487852729 169.99999549984932,253.333331545194 169.99999549984932,253.99999821186066 168.66666216651595,254.66666487852729 167.99999549984932,254.66666487852729 167.33332883318263,254.66666487852729 166.66666216651595,255.333331545194 165.99999549984932,255.333331545194 165.99999549984932,255.99999821186066 164.66666216651595,256.6666648785273 161.99999549984932,257.33333154519397 159.33332883318263,257.99999821186066 156.66666216651595,259.33333154519397 155.33332883318263,259.99999821186066 153.99999549984932,259.99999821186066 153.33332883318263,259.99999821186066 152.66666216651595,259.99999821186066 151.99999549984932,260.6666648785273 151.33332883318263,261.33333154519397 150.66666216651595,261.33333154519397 149.99999549984932,261.33333154519397 149.33332883318263,261.99999821186066 147.99999549984932,261.99999821186066 147.33332883318263,261.99999821186066 145.99999549984932,261.99999821186066 145.99999549984932,261.99999821186066 145.33332883318263,262.6666648785273 143.33332883318263,262.6666648785273 141.33332883318263,262.6666648785273 139.99999549984932,263.33333154519397 137.99999549984932,263.33333154519397 136.66666216651595,263.99999821186066 134.66666216651595,263.99999821186066 132.66666216651595,264.6666648785273 132.66666216651595,264.6666648785273 131.99999549984932,264.6666648785273 131.33332883318263,264.6666648785273 130.66666216651595,264.6666648785273 129.99999549984932,264.6666648785273 128.66666216651595,265.33333154519397 127.33332883318263,265.33333154519397 125.99999549984932,265.99999821186066 123.99999549984932,266.6666648785273 121.99999549984932,266.6666648785273 120.66666216651595,266.6666648785273 119.99999549984932,267.33333154519397 119.33332883318263,267.33333154519397 118.66666216651595,267.99999821186066 117.99999549984932,267.99999821186066 117.33332883318263,267.99999821186066 116.66666216651595,267.99999821186066 116.66666216651595,267.99999821186066 115.99999549984932,267.99999821186066 114.66666216651595,267.99999821186066 113.99999549984932,267.99999821186066 111.99999549984932,267.99999821186066 110.66666216651595,267.99999821186066 109.33332883318263,267.99999821186066 108.66666216651595,267.99999821186066 107.99999549984932,267.99999821186066 107.33332883318263,267.99999821186066 105.99999549984932,267.99999821186066 104.66666216651595,267.99999821186066 103.33332883318263,267.99999821186066 101.99999549984932,267.99999821186066 100.66666216651595,267.33333154519397 100.66666216651595,267.33333154519397 99.99999549984932,267.33333154519397 99.33332883318263,267.33333154519397 98.66666216651595,267.33333154519397 97.99999549984932,267.33333154519397 96.66666216651595,267.33333154519397 94.66666216651595,267.33333154519397 92.66666216651595,267.33333154519397 90.66666216651595,266.6666648785273 89.99999549984932,266.6666648785273 89.33332883318263,266.6666648785273 88.66666216651595,266.6666648785273 87.99999549984932,265.99999821186066 86.66666216651595,265.33333154519397 85.33332883318263,265.33333154519397 84.66666216651595,265.33333154519397 82.66666216651595,265.33333154519397 81.99999549984932,265.33333154519397 81.99999549984932,264.6666648785273 81.33332883318263,264.6666648785273 80.66666216651595,264.6666648785273 80.66666216651595,263.99999821186066 79.99999549984932,263.99999821186066 79.33332883318263,262.6666648785273 78.66666216651595,262.6666648785273 77.99999549984932,262.6666648785273 77.33332883318263,261.99999821186066 76.66666216651595,261.99999821186066 75.99999549984932,261.33333154519397 75.33332883318263,260.6666648785273 73.33332883318263,259.99999821186066 71.99999549984932,259.33333154519397 71.33332883318263,258.6666648785273 71.33332883318263,258.6666648785273 70.66666216651595,257.99999821186066 69.99999549984932,257.33333154519397 68.66666216651595,257.33333154519397 68.66666216651595,255.99999821186066 67.33332883318263,255.333331545194 66.66666216651595,254.66666487852729 65.99999549984932,253.99999821186066 65.99999549984932,253.333331545194 65.33332883318263,252.66666487852729 64.66666216651595,251.99999821186066 64.66666216651595,251.99999821186066 63.99999549984932,251.333331545194 63.333328833182634,250.66666487852729 63.333328833182634,249.99999821186066 62.66666216651595,249.333331545194 62.66666216651595,249.333331545194 61.99999549984932,249.333331545194 61.99999549984932,247.99999821186066 61.333328833182634,247.333331545194 60.66666216651595,246.66666487852729 60.66666216651595,245.333331545194 58.66666216651595,243.99999821186066 57.99999549984932,243.333331545194 57.333328833182634,241.99999821186066 56.66666216651595,241.333331545194 55.333328833182634,239.333331545194 54.66666216651595,238.66666487852729 53.99999549984932,237.99999821186066 53.333328833182634,237.99999821186066 53.333328833182634,237.333331545194 52.66666216651595,237.333331545194 52.66666216651595,236.66666487852729 52.66666216651595,235.99999821186066 52.66666216651595,235.99999821186066 52.66666216651595,235.333331545194 52.66666216651595,234.66666487852729 52.66666216651595,233.333331545194 52.66666216651595,231.99999821186066 52.66666216651595,230.66666487852729 52.66666216651595,229.99999821186066 52.66666216651595,228.66666487852729 52.66666216651595,227.99999821186066 52.66666216651595,227.333331545194 52.66666216651595,225.99999821186066 52.66666216651595,225.333331545194 52.66666216651595,223.99999821186066 52.66666216651595,221.99999821186066 52.66666216651595,219.333331545194 52.66666216651595,217.99999821186066 52.66666216651595,217.333331545194 52.66666216651595,216.66666487852729 52.66666216651595,215.99999821186066 52.66666216651595,215.333331545194 52.66666216651595,214.66666487852729 51.99999549984932,214.66666487852729 51.99999549984932,213.333331545194 51.333328833182634,211.99999821186066 51.333328833182634,211.333331545194 51.333328833182634,209.99999821186066 51.333328833182634,209.333331545194 51.333328833182634,209.333331545194 50.66666216651595,208.66666487852729 50.66666216651595,206.66666487852729 50.66666216651595,205.99999821186066 50.66666216651595,205.333331545194 50.66666216651595,203.99999821186066 50.66666216651595,203.333331545194 50.66666216651595,201.99999821186066 50.66666216651595,200.66666487852729 50.66666216651595,198.66666487852729 50.66666216651595,195.99999821186066 50.66666216651595,194.66666487852729 50.66666216651595,193.333331545194 50.66666216651595,193.333331545194 50.66666216651595,191.333331545194 50.66666216651595,189.99999821186066 50.66666216651595,188.66666487852729 51.333328833182634,187.99999821186066 51.99999549984932,186.66666487852729 51.99999549984932,185.333331545194 52.66666216651595,185.333331545194 52.66666216651595,184.66666487852729 52.66666216651595,183.99999821186066 52.66666216651595,182.66666487852729 52.66666216651595,182.66666487852729 52.66666216651595,181.99999821186066 52.66666216651595,181.99999821186066 52.66666216651595,181.333331545194 52.66666216651595,179.99999821186066 52.66666216651595,179.99999821186066 52.66666216651595,179.333331545194 52.66666216651595,178.66666487852729 52.66666216651595,177.99999821186066 52.66666216651595,177.333331545194 53.333328833182634,176.66666487852729 53.333328833182634,175.99999821186066 53.333328833182634,175.333331545194 53.333328833182634,174.66666487852729 53.333328833182634,173.99999821186066 53.333328833182634,173.333331545194 53.333328833182634,172.66666487852729 53.333328833182634,171.99999821186066 53.333328833182634,171.99999821186066 53.333328833182634,171.333331545194 52.66666216651595,169.99999821186066 52.66666216651595,169.99999821186066 51.99999549984932,169.33333154519397 51.99999549984932,169.33333154519397 51.333328833182634,169.33333154519397 50.66666216651595,169.33333154519397 49.99999549984932,168.66666487852729 49.99999549984932,167.99999821186066 49.333328833182634,167.99999821186066 48.66666216651595,167.99999821186066 47.99999549984932,167.33333154519397 47.333328833182634,167.33333154519397 47.333328833182634,166.66666487852729 47.333328833182634,166.66666487852729 46.66666216651595,166.66666487852729 45.99999549984932,166.66666487852729 45.99999549984932,167.33333154519397 45.99999549984932,167.99999821186066 45.99999549984932,168.66666487852729 45.99999549984932,169.33333154519397 45.99999549984932,169.33333154519397 45.99999549984932,169.99999821186066 46.66666216651595,169.99999821186066 46.66666216651595,170.66666487852729 47.333328833182634,170.66666487852729 47.333328833182634,171.333331545194 47.333328833182634,171.333331545194 47.333328833182634,171.99999821186066 47.99999549984932,171.99999821186066 47.99999549984932,172.66666487852729 48.66666216651595,172.66666487852729 48.66666216651595,173.333331545194 49.333328833182634,173.99999821186066 49.99999549984932,173.99999821186066 49.99999549984932,174.66666487852729 49.99999549984932,175.333331545194 49.99999549984932,175.99999821186066 49.99999549984932,176.66666487852729 49.99999549984932,176.66666487852729 49.99999549984932,177.333331545194 49.99999549984932,177.99999821186066 49.99999549984932,178.66666487852729 49.99999549984932,179.333331545194 49.99999549984932,179.99999821186066 49.99999549984932,179.99999821186066 49.99999549984932,181.99999821186066 49.99999549984932,182.66666487852729 49.99999549984932,183.99999821186066 49.99999549984932,185.333331545194 49.99999549984932,186.66666487852729 49.99999549984932,187.99999821186066 49.99999549984932,188.66666487852729 49.99999549984932,189.99999821186066 49.99999549984932,190.66666487852729 49.99999549984932,191.333331545194 49.99999549984932,192.66666487852729 49.99999549984932,193.333331545194 49.333328833182634,195.99999821186066 49.333328833182634,197.333331545194 48.66666216651595,197.99999821186066 48.66666216651595,199.99999821186066 48.66666216651595,201.333331545194 47.99999549984932,203.333331545194 47.333328833182634,204.66666487852729 47.333328833182634,206.66666487852729 47.333328833182634,207.333331545194 47.333328833182634,207.99999821186066 47.333328833182634,209.333331545194 46.66666216651595,210.66666487852729 46.66666216651595,211.99999821186066 46.66666216651595,211.99999821186066 46.66666216651595,212.66666487852729 46.66666216651595,213.99999821186066 46.66666216651595,214.66666487852729 46.66666216651595,214.66666487852729 46.66666216651595,215.99999821186066 46.66666216651595,216.66666487852729 46.66666216651595,217.333331545194 46.66666216651595,217.99999821186066 46.66666216651595,219.333331545194 46.66666216651595,220.66666487852729 46.66666216651595,221.99999821186066 47.333328833182634,222.66666487852729 47.333328833182634,223.333331545194 47.333328833182634,223.99999821186066 47.333328833182634,225.333331545194 47.333328833182634,226.66666487852729 47.333328833182634,227.99999821186066 47.333328833182634,228.66666487852729 47.333328833182634,229.333331545194 47.99999549984932,230.66666487852729 48.66666216651595,231.333331545194 48.66666216651595,232.66666487852729 49.333328833182634,233.333331545194 49.333328833182634,235.333331545194 49.99999549984932,235.99999821186066 49.99999549984932,236.66666487852729 50.66666216651595,236.66666487852729 50.66666216651595,237.99999821186066 51.333328833182634,238.66666487852729 51.333328833182634,238.66666487852729 51.99999549984932,239.333331545194 52.66666216651595,239.99999821186066 52.66666216651595,240.66666487852729 53.333328833182634,240.66666487852729 53.333328833182634,241.333331545194 53.333328833182634,241.333331545194 53.99999549984932,241.333331545194 53.99999549984932,241.99999821186066 54.66666216651595,241.99999821186066 55.333328833182634,242.66666487852729 55.333328833182634,243.333331545194 55.99999549984932,243.333331545194 55.99999549984932,243.99999821186066 56.66666216651595,243.99999821186066 56.66666216651595,243.99999821186066 57.333328833182634,244.66666487852729 57.99999549984932,244.66666487852729 57.99999549984932,245.333331545194 57.99999549984932,245.333331545194 58.66666216651595,245.333331545194 " style="color: rgb(234, 137, 39);" class="" stroke-opacity="1"/><polyline fill="none" stroke="#ff8a2b" stroke-width="12" stroke-linejoin="round" stroke-dashoffset="" fill-rule="nonzero" marker-start="" marker-mid="" marker-end="" id="svg_3" points="243.99999549984932,179.99999821186066 243.33332883318258,179.99999821186066 242.66666216651595,179.99999821186066 241.99999549984932,180.66666487852729 241.33332883318258,181.333331545194 240.66666216651595,182.66666487852729 239.99999549984932,182.66666487852729 239.33332883318258,182.66666487852729 239.33332883318258,182.66666487852729 238.66666216651595,183.333331545194 237.99999549984932,183.333331545194 237.33332883318258,183.99999821186066 236.66666216651595,183.99999821186066 236.66666216651595,184.66666487852729 235.99999549984932,184.66666487852729 235.33332883318258,185.333331545194 234.66666216651595,185.333331545194 233.99999549984932,185.333331545194 233.99999549984932,185.99999821186066 233.99999549984932,185.99999821186066 233.33332883318258,185.99999821186066 232.66666216651595,185.99999821186066 231.99999549984932,185.99999821186066 231.33332883318258,186.66666487852729 231.33332883318258,186.66666487852729 230.66666216651595,187.333331545194 229.99999549984932,187.333331545194 229.99999549984932,187.99999821186066 229.33332883318258,187.99999821186066 228.66666216651595,187.99999821186066 228.66666216651595,187.99999821186066 227.33332883318258,188.66666487852729 226.66666216651595,188.66666487852729 225.99999549984932,189.333331545194 225.33332883318258,189.99999821186066 224.66666216651595,189.99999821186066 223.99999549984932,189.99999821186066 223.99999549984932,190.66666487852729 223.33332883318258,190.66666487852729 223.33332883318258,190.66666487852729 223.33332883318258,190.66666487852729 223.33332883318258,191.333331545194 222.66666216651595,191.99999821186066 222.66666216651595,192.66666487852729 221.99999549984932,192.66666487852729 221.99999549984932,193.333331545194 221.99999549984932,193.333331545194 221.33332883318258,193.333331545194 221.33332883318258,193.99999821186066 220.66666216651595,193.99999821186066 220.66666216651595,194.66666487852729 220.66666216651595,194.66666487852729 220.66666216651595,195.333331545194 220.66666216651595,195.99999821186066 220.66666216651595,195.333331545194 220.66666216651595,194.66666487852729 220.66666216651595,194.66666487852729 220.66666216651595,193.99999821186066 221.33332883318258,193.333331545194 221.33332883318258,193.333331545194 222.66666216651595,191.99999821186066 223.33332883318258,191.333331545194 223.99999549984932,190.66666487852729 225.33332883318258,190.66666487852729 225.99999549984932,189.99999821186066 225.99999549984932,189.333331545194 226.66666216651595,189.333331545194 227.99999549984932,188.66666487852729 227.99999549984932,187.99999821186066 228.66666216651595,187.99999821186066 228.66666216651595,187.99999821186066 229.33332883318258,187.99999821186066 229.33332883318258,187.99999821186066 229.33332883318258,187.333331545194 229.99999549984932,187.333331545194 230.66666216651595,187.333331545194 230.66666216651595,186.66666487852729 231.33332883318258,186.66666487852729 231.33332883318258,186.66666487852729 231.33332883318258,185.99999821186066 231.99999549984932,185.99999821186066 231.99999549984932,185.333331545194 232.66666216651595,185.333331545194 233.33332883318258,185.333331545194 233.99999549984932,185.333331545194 234.66666216651595,184.66666487852729 234.66666216651595,183.99999821186066 235.99999549984932,183.99999821186066 235.99999549984932,183.333331545194 236.66666216651595,183.333331545194 236.66666216651595,182.66666487852729 236.66666216651595,182.66666487852729 237.33332883318258,182.66666487852729 237.33332883318258,182.66666487852729 237.99999549984932,182.66666487852729 238.66666216651595,181.99999821186066 239.33332883318258,181.99999821186066 239.33332883318258,181.99999821186066 239.99999549984932,181.333331545194 239.99999549984932,180.66666487852729 240.66666216651595,180.66666487852729 241.33332883318258,180.66666487852729 241.33332883318258,179.99999821186066 241.99999549984932,179.99999821186066 241.99999549984932,179.99999821186066 242.66666216651595,179.99999821186066 243.33332883318258,179.99999821186066 243.99999549984932,179.99999821186066 243.99999549984932,179.333331545194 244.66666216651595,179.333331545194 244.66666216651595,179.333331545194 245.33332883318258,179.333331545194 245.99999549984932,178.66666487852729 246.66666216651595,177.99999821186066 246.66666216651595,177.333331545194 247.33332883318258,177.333331545194 247.33332883318258,177.333331545194 247.33332883318258,176.66666487852729 247.99999549984932,176.66666487852729 248.66666216651595,175.99999821186066 " style="color: rgb(234, 137, 39);" class="" stroke-opacity="1"/><polyline fill="none" stroke="#ff8a2b" stroke-width="12" stroke-linejoin="round" stroke-dashoffset="" fill-rule="nonzero" marker-start="" marker-mid="" marker-end="" id="svg_5" points="111.33332883318263,27.33333154519397 111.33332883318263,27.33333154519397 110.66666216651595,27.33333154519397 109.33332883318263,27.33333154519397 108.66666216651595,27.33333154519397 108.66666216651595,27.33333154519397 107.33332883318263,27.33333154519397 105.99999549984932,27.33333154519397 105.33332883318263,27.999998211860657 104.66666216651595,27.999998211860657 103.99999549984932,27.999998211860657 102.66666216651595,27.999998211860657 100.66666216651595,27.999998211860657 99.33332883318263,27.999998211860657 97.33332883318263,28.666664878527314 95.33332883318263,28.666664878527314 94.66666216651595,28.666664878527314 93.99999549984932,28.666664878527314 92.66666216651595,28.666664878527314 92.66666216651595,28.666664878527314 91.99999549984932,28.666664878527314 91.33332883318263,28.666664878527314 91.33332883318263,29.33333154519397 90.66666216651595,29.33333154519397 89.99999549984932,29.33333154519397 89.33332883318263,29.999998211860657 88.66666216651595,29.999998211860657 87.33332883318263,29.999998211860657 87.33332883318263,29.999998211860657 85.99999549984932,30.666664878527314 85.33332883318263,30.666664878527314 84.66666216651595,30.666664878527314 84.66666216651595,30.666664878527314 83.33332883318263,30.666664878527314 82.66666216651595,31.33333154519397 81.99999549984932,31.33333154519397 81.33332883318263,31.33333154519397 80.66666216651595,31.999998211860657 79.99999549984932,31.999998211860657 79.33332883318263,32.666664878527314 77.99999549984932,32.666664878527314 76.66666216651595,32.666664878527314 76.66666216651595,33.33333154519397 75.33332883318263,33.33333154519397 74.66666216651595,33.33333154519397 73.99999549984932,33.99999821186066 73.99999549984932,33.99999821186066 73.33332883318263,33.99999821186066 72.66666216651595,34.666664878527314 71.33332883318263,35.33333154519397 69.99999549984932,35.99999821186066 69.33332883318263,35.99999821186066 68.66666216651595,35.99999821186066 67.99999549984932,35.99999821186066 67.99999549984932,36.666664878527314 67.33332883318263,36.666664878527314 66.66666216651595,36.666664878527314 65.99999549984932,36.666664878527314 65.33332883318263,37.33333154519397 64.66666216651595,37.33333154519397 64.66666216651595,37.99999821186066 63.99999549984932,37.99999821186066 63.99999549984932,38.666664878527314 63.333328833182634,38.666664878527314 62.66666216651595,38.666664878527314 61.333328833182634,38.666664878527314 60.66666216651595,38.666664878527314 60.66666216651595,39.33333154519397 60.66666216651595,39.33333154519397 59.99999549984932,39.99999821186066 58.66666216651595,40.666664878527314 57.99999549984932,40.666664878527314 57.99999549984932,41.33333154519397 57.333328833182634,41.33333154519397 56.66666216651595,41.33333154519397 56.66666216651595,41.33333154519397 55.99999549984932,41.33333154519397 55.99999549984932,41.99999821186066 55.333328833182634,41.99999821186066 55.333328833182634,41.99999821186066 55.333328833182634,42.666664878527314 53.99999549984932,43.33333154519397 53.333328833182634,43.33333154519397 52.66666216651595,43.33333154519397 52.66666216651595,43.99999821186066 52.66666216651595,43.99999821186066 51.333328833182634,44.666664878527314 50.66666216651595,44.666664878527314 49.99999549984932,45.33333154519397 49.333328833182634,45.33333154519397 48.66666216651595,46.666664878527314 47.99999549984932,46.666664878527314 47.333328833182634,46.666664878527314 46.66666216651595,47.33333154519397 45.99999549984932,47.33333154519397 45.333328833182634,47.33333154519397 45.333328833182634,47.99999821186066 44.66666216651595,47.99999821186066 44.66666216651595,48.666664878527314 44.66666216651595,48.666664878527314 43.99999549984932,49.33333154519397 43.99999549984932,49.33333154519397 43.333328833182634,49.99999821186066 42.66666216651595,49.99999821186066 42.66666216651595,50.666664878527314 41.99999549984932,51.33333154519397 41.99999549984932,51.99999821186066 40.66666216651595,51.99999821186066 40.66666216651595,52.666664878527314 39.99999549984932,52.666664878527314 39.99999549984932,53.33333154519397 39.333328833182634,53.33333154519397 39.333328833182634,53.99999821186066 39.333328833182634,53.99999821186066 39.333328833182634,54.666664878527314 38.66666216651595,54.666664878527314 38.66666216651595,55.33333154519397 37.99999549984932,55.33333154519397 37.99999549984932,55.99999821186066 37.333328833182634,56.666664878527314 37.333328833182634,57.33333154519397 37.333328833182634,57.33333154519397 36.66666216651595,57.33333154519397 36.66666216651595,57.99999821186066 36.66666216651595,58.666664878527314 36.66666216651595,59.33333154519397 35.99999549984932,59.99999821186066 35.99999549984932,59.99999821186066 35.99999549984932,60.666664878527314 35.99999549984932,61.33333154519397 35.99999549984932,61.99999821186066 35.99999549984932,62.666664878527314 35.99999549984932,62.666664878527314 35.99999549984932,63.33333154519397 35.99999549984932,63.99999821186066 35.99999549984932,64.66666487852731 " style="color: rgb(234, 137, 39);" class="" stroke-opacity="1"/><polyline fill="none" stroke="#ff8a2b" stroke-width="12" stroke-linejoin="round" stroke-dashoffset="" fill-rule="nonzero" marker-start="" marker-mid="" marker-end="" id="svg_6" points="107.99999549984932,27.33333154519397 108.66666216651595,27.33333154519397 108.66666216651595,27.33333154519397 109.33332883318263,27.33333154519397 109.99999549984932,27.33333154519397 110.66666216651595,26.666664878527314 111.33332883318263,26.666664878527314 111.33332883318263,26.666664878527314 111.99999549984932,26.666664878527314 112.66666216651595,26.666664878527314 113.33332883318263,26.666664878527314 113.99999549984932,26.666664878527314 113.99999549984932,26.666664878527314 114.66666216651595,26.666664878527314 115.33332883318263,26.666664878527314 115.99999549984932,26.666664878527314 116.66666216651595,26.666664878527314 116.66666216651595,26.666664878527314 117.33332883318263,26.666664878527314 117.99999549984932,26.666664878527314 118.66666216651595,26.666664878527314 119.33332883318263,26.666664878527314 119.33332883318263,26.666664878527314 119.33332883318263,27.33333154519397 119.99999549984932,27.33333154519397 120.66666216651595,27.33333154519397 121.33332883318263,27.33333154519397 121.33332883318263,27.999998211860657 121.99999549984932,27.999998211860657 121.99999549984932,27.999998211860657 121.99999549984932,27.999998211860657 " style="color: rgb(234, 137, 39);" class="" stroke-opacity="1"/></g></svg>