<svg xmlns="http://www.w3.org/2000/svg" xmlns:se="http://svg-edit.googlecode.com" xmlns:xlink="http://www.w3.org/1999/xlink" xmlns:dc="http://purl.org/dc/elements/1.1/" xmlns:cc="http://creativecommons.org/ns#" xmlns:rdf="http://www.w3.org/1999/02/22-rdf-syntax-ns#" xmlns:inkscape="http://www.inkscape.org/namespaces/inkscape" width="300" height="300">
                                    <title>my vector image</title>
                                    <!-- Created with Vector Paint - http://www.vectorpaint.yaks.com/ https://chrome.google.com/webstore/detail/hnbpdiengicdefcjecjbnjnoifekhgdo -->
                                    <rect id="backgroundrect" width="100%" height="100%" x="0" y="0" fill="#FFFFFF" stroke="none" class="" style="" opacity="0"/>
                                <g style="" class="currentLayer"><title>Layer 1</title><path fill="none" fill-opacity="1" stroke="#ff6347" stroke-opacity="1" stroke-width="12" stroke-dasharray="none" stroke-linejoin="round" stroke-linecap="butt" stroke-dashoffset="" fill-rule="nonzero" opacity="0" marker-start="" marker-mid="" marker-end="" d="M14,122 C14,73.93370165745856 61.66022099447514,35 120.5,35 C179.33977900552486,35 227,73.93370165745856 227,122 C227,170.06629834254144 179.33977900552486,209 120.5,209 C61.66022099447514,209 14,170.06629834254144 14,122 Z" id="svg_7"/><path fill="#d44e2a" fill-opacity="1" stroke="#ff6347" stroke-opacity="1" stroke-width="12" stroke-dasharray="none" stroke-linejoin="round" stroke-linecap="butt" stroke-dashoffset="" fill-rule="nonzero" opacity="0.01" marker-start="" marker-mid="" marker-end="" d="M7,121.5 C7,87.52209944751381 56.89779005524862,60 118.5,60 C180.1022099447514,60 230,87.52209944751381 230,121.5 C230,155.47790055248618 180.1022099447514,183 118.5,183 C56.89779005524862,183 7,155.47790055248618 7,121.5 Z" id="svg_9"/><path fill="#d44e2a" fill-opacity="1" stroke="#ff6347" stroke-opacity="1" stroke-width="12" stroke-dasharray="none" stroke-linejoin="round" stroke-linecap="butt" stroke-dashoffset="" fill-rule="nonzero" opacity="0.01" marker-start="" marker-mid="" marker-end="" d="M175,166 C175,135.61325966850828 206.32596685082873,111 245,111 C283.6740331491713,111 315,135.61325966850828 315,166 C315,196.38674033149172 283.6740331491713,221 245,221 C206.32596685082873,221 175,196.38674033149172 175,166 Z" id="svg_11"/><path fill="#d44e2a" fill-opacity="1" stroke="#d44e2a" stroke-opacity="1" stroke-width="12" stroke-dasharray="none" stroke-linejoin="round" stroke-linecap="butt" stroke-dashoffset="" fill-rule="nonzero" opacity="" marker-start="" marker-mid="" marker-end="" d="M33.29411697387695,146.32352934784478 C33.29411697387695,83.19385814171297 86.89047419036949,32.05882446474618 153.05881643295288,32.05882446474618 C219.2271586755363,32.05882446474618 272.8235158920288,83.19385814171297 272.8235158920288,146.32352934784478 C272.8235158920288,209.4532005539766 219.2271586755363,260.5882342309434 153.05881643295288,260.5882342309434 C86.89047419036949,260.5882342309434 33.29411697387695,209.4532005539766 33.29411697387695,146.32352934784478 z" id="svg_1" class=""/><path fill="#ffa189" fill-opacity="1" stroke="none" stroke-opacity="1" stroke-width="12" stroke-dasharray="none" stroke-linejoin="round" stroke-linecap="butt" stroke-dashoffset="" fill-rule="nonzero" opacity="" marker-start="" marker-mid="" marker-end="" d="M105,78.5 C105,74.35635359116021 107.68508287292818,71 111,71 C114.31491712707182,71 117,74.35635359116021 117,78.5 C117,82.64364640883979 114.31491712707182,86 111,86 C107.68508287292818,86 105,82.64364640883979 105,78.5 Z" id="svg_2"/><path fill="#ffa189" fill-opacity="1" stroke="none" stroke-opacity="1" stroke-width="12" stroke-dasharray="none" stroke-linejoin="round" stroke-linecap="butt" stroke-dashoffset="" fill-rule="nonzero" opacity="" marker-start="" marker-mid="" marker-end="" d="M156,67.5 C156,62.80386740331492 160.47513812154696,59 166,59 C171.52486187845304,59 176,62.80386740331492 176,67.5 C176,72.19613259668509 171.52486187845304,76 166,76 C160.47513812154696,76 156,72.19613259668509 156,67.5 Z" id="svg_4"/><path fill="#ffa189" fill-opacity="1" stroke="none" stroke-opacity="1" stroke-width="12" stroke-dasharray="none" stroke-linejoin="round" stroke-linecap="butt" stroke-dashoffset="" fill-rule="nonzero" opacity="" marker-start="" marker-mid="" marker-end="" d="M204,129 C204,123.47513812154696 208.02762430939225,119 213,119 C217.97237569060775,119 222,123.47513812154696 222,129 C222,134.52486187845304 217.97237569060775,139 213,139 C208.02762430939225,139 204,134.52486187845304 204,129 Z" id="svg_6"/><path fill="#ffa189" fill-opacity="1" stroke="none" stroke-opacity="1" stroke-width="12" stroke-dasharray="none" stroke-linejoin="round" stroke-linecap="butt" stroke-dashoffset="" fill-rule="nonzero" opacity="" marker-start="" marker-mid="" marker-end="" d="M212,193.5 C212,188.8038674033149 215.58011049723757,185 220,185 C224.41988950276243,185 228,188.8038674033149 228,193.5 C228,198.1961325966851 224.41988950276243,202 220,202 C215.58011049723757,202 212,198.1961325966851 212,193.5 Z" id="svg_10"/><path fill="#ffa189" fill-opacity="1" stroke="none" stroke-opacity="1" stroke-width="12" stroke-dasharray="none" stroke-linejoin="round" stroke-linecap="butt" stroke-dashoffset="" fill-rule="nonzero" opacity="" marker-start="" marker-mid="" marker-end="" d="M186,224 C186,220.68508287292818 187.34254143646407,218 189,218 C190.65745856353593,218 192,220.68508287292818 192,224 C192,227.31491712707182 190.65745856353593,230 189,230 C187.34254143646407,230 186,227.31491712707182 186,224 Z" id="svg_13"/><path fill="#ffa189" fill-opacity="1" stroke="none" stroke-opacity="1" stroke-width="12" stroke-dasharray="none" stroke-linejoin="round" stroke-linecap="butt" stroke-dashoffset="" fill-rule="nonzero" opacity="" marker-start="" marker-mid="" marker-end="" d="M117,210 C117,203.92265193370164 121.6988950276243,199 127.5,199 C133.3011049723757,199 138,203.92265193370164 138,210 C138,216.07734806629836 133.3011049723757,221 127.5,221 C121.6988950276243,221 117,216.07734806629836 117,210 Z" id="svg_15"/><path fill="#ffa189" fill-opacity="1" stroke="none" stroke-opacity="1" stroke-width="12" stroke-dasharray="none" stroke-linejoin="round" stroke-linecap="butt" stroke-dashoffset="" fill-rule="nonzero" opacity="" marker-start="" marker-mid="" marker-end="" d="M72,186.5 C72,181.8038674033149 74.90883977900552,178 78.5,178 C82.09116022099448,178 85,181.8038674033149 85,186.5 C85,191.1961325966851 82.09116022099448,195 78.5,195 C74.90883977900552,195 72,191.1961325966851 72,186.5 Z" id="svg_17"/><path fill="#ffa189" fill-opacity="1" stroke="none" stroke-opacity="1" stroke-width="12" stroke-dasharray="none" stroke-linejoin="round" stroke-linecap="butt" stroke-dashoffset="" fill-rule="nonzero" opacity="" marker-start="" marker-mid="" marker-end="" d="M52,136.5 C52,130.6988950276243 57.370165745856355,126 64,126 C70.62983425414365,126 76,130.6988950276243 76,136.5 C76,142.3011049723757 70.62983425414365,147 64,147 C57.370165745856355,147 52,142.3011049723757 52,136.5 Z" id="svg_19"/><path fill="#ffa189" fill-opacity="1" stroke="none" stroke-opacity="1" stroke-width="12" stroke-dasharray="none" stroke-linejoin="round" stroke-linecap="butt" stroke-dashoffset="" fill-rule="nonzero" opacity="" marker-start="" marker-mid="" marker-end="" d="M104,140.5 C104,136.35635359116023 107.35635359116021,133 111.5,133 C115.64364640883979,133 119,136.35635359116023 119,140.5 C119,144.64364640883977 115.64364640883979,148 111.5,148 C107.35635359116021,148 104,144.64364640883977 104,140.5 Z" id="svg_21"/><path fill="#ffa189" fill-opacity="1" stroke="none" stroke-opacity="1" stroke-width="12" stroke-dasharray="none" stroke-linejoin="round" stroke-linecap="butt" stroke-dashoffset="" fill-rule="nonzero" opacity="" marker-start="" marker-mid="" marker-end="" d="M136,126 C136,120.47513812154696 140.92265193370164,116 147,116 C153.07734806629836,116 158,120.47513812154696 158,126 C158,131.52486187845304 153.07734806629836,136 147,136 C140.92265193370164,136 136,131.52486187845304 136,126 Z" id="svg_23"/><path fill="#ffa189" fill-opacity="1" stroke="none" stroke-opacity="1" stroke-width="12" stroke-dasharray="none" stroke-linejoin="round" stroke-linecap="butt" stroke-dashoffset="" fill-rule="nonzero" opacity="" marker-start="" marker-mid="" marker-end="" d="M164,173 C164,168.58011049723757 167.35635359116023,165 171.5,165 C175.64364640883977,165 179,168.58011049723757 179,173 C179,177.41988950276243 175.64364640883977,181 171.5,181 C167.35635359116023,181 164,177.41988950276243 164,173 Z" id="svg_25"/><path fill="#ffa189" fill-opacity="1" stroke="none" stroke-opacity="1" stroke-width="12" stroke-dasharray="none" stroke-linejoin="round" stroke-linecap="butt" stroke-dashoffset="" fill-rule="nonzero" opacity="" marker-start="" marker-mid="" marker-end="" d="M117,166.5 C117,163.46132596685084 119.46132596685082,161 122.5,161 C125.53867403314918,161 128,163.46132596685084 128,166.5 C128,169.53867403314916 125.53867403314918,172 122.5,172 C119.46132596685082,172 117,169.53867403314916 117,166.5 Z" id="svg_27"/><path fill="#ffa189" fill-opacity="1" stroke="none" stroke-opacity="1" stroke-width="12" stroke-dasharray="none" stroke-linejoin="round" stroke-linecap="butt" stroke-dashoffset="" fill-rule="nonzero" opacity="" marker-start="" marker-mid="" marker-end="" d="M195,91.5 C195,88.46132596685082 198.13259668508286,86 202,86 C205.86740331491714,86 209,88.46132596685082 209,91.5 C209,94.53867403314918 205.86740331491714,97 202,97 C198.13259668508286,97 195,94.53867403314918 195,91.5 Z" id="svg_29"/><path fill="#ffa189" fill-opacity="1" stroke="none" stroke-opacity="1" stroke-width="12" stroke-dasharray="none" stroke-linejoin="round" stroke-linecap="butt" stroke-dashoffset="" fill-rule="nonzero" opacity="" marker-start="" marker-mid="" marker-end="" d="M129,92.5 C129,88.90883977900552 131.68508287292818,86 135,86 C138.31491712707182,86 141,88.90883977900552 141,92.5 C141,96.09116022099448 138.31491712707182,99 135,99 C131.68508287292818,99 129,96.09116022099448 129,92.5 Z" id="svg_31"/><path fill="#ffa189" fill-opacity="1" stroke="none" stroke-opacity="1" stroke-width="12" stroke-dasharray="none" stroke-linejoin="round" stroke-linecap="butt" stroke-dashoffset="" fill-rule="nonzero" opacity="" marker-start="" marker-mid="" marker-end="" d="M56,93.5 C56,90.46132596685082 59.58011049723757,88 64,88 C68.41988950276243,88 72,90.46132596685082 72,93.5 C72,96.53867403314918 68.41988950276243,99 64,99 C59.58011049723757,99 56,96.53867403314918 56,93.5 Z" id="svg_33"/><path fill="#ffa189" fill-opacity="1" stroke="none" stroke-opacity="1" stroke-width="12" stroke-dasharray="none" stroke-linejoin="round" stroke-linecap="butt" stroke-dashoffset="" fill-rule="nonzero" opacity="" marker-start="" marker-mid="" marker-end="" d="M91,116.5 C91,112.90883977900552 93.68508287292818,110 97,110 C100.31491712707182,110 103,112.90883977900552 103,116.5 C103,120.09116022099448 100.31491712707182,123 97,123 C93.68508287292818,123 91,120.09116022099448 91,116.5 Z" id="svg_35"/><path fill="#ffa189" fill-opacity="1" stroke="none" stroke-opacity="1" stroke-width="12" stroke-dasharray="none" stroke-linejoin="round" stroke-linecap="butt" stroke-dashoffset="" fill-rule="nonzero" opacity="" marker-start="" marker-mid="" marker-end="" d="M131,58 C131,54.13259668508287 132.79005524861878,51 135,51 C137.20994475138122,51 139,54.13259668508287 139,58 C139,61.86740331491713 137.20994475138122,65 135,65 C132.79005524861878,65 131,61.86740331491713 131,58 Z" id="svg_37"/><path fill="#ffa189" fill-opacity="1" stroke="none" stroke-opacity="1" stroke-width="12" stroke-dasharray="none" stroke-linejoin="round" stroke-linecap="butt" stroke-dashoffset="" fill-rule="nonzero" opacity="" marker-start="" marker-mid="" marker-end="" d="M165,106 C165,102.13259668508287 168.35635359116023,99 172.5,99 C176.64364640883977,99 180,102.13259668508287 180,106 C180,109.86740331491713 176.64364640883977,113 172.5,113 C168.35635359116023,113 165,109.86740331491713 165,106 Z" id="svg_39"/><path fill="#ffa189" fill-opacity="1" stroke="none" stroke-opacity="1" stroke-width="12" stroke-dasharray="none" stroke-linejoin="round" stroke-linecap="butt" stroke-dashoffset="" fill-rule="nonzero" opacity="" marker-start="" marker-mid="" marker-end="" d="M178,139 C178,135.68508287292818 180.23756906077347,133 183,133 C185.76243093922653,133 188,135.68508287292818 188,139 C188,142.31491712707182 185.76243093922653,145 183,145 C180.23756906077347,145 178,142.31491712707182 178,139 Z" id="svg_41"/><path fill="#ffa189" fill-opacity="1" stroke="none" stroke-opacity="1" stroke-width="12" stroke-dasharray="none" stroke-linejoin="round" stroke-linecap="butt" stroke-dashoffset="" fill-rule="nonzero" opacity="" marker-start="" marker-mid="" marker-end="" d="M147,158 C147,156.34254143646407 148.34254143646407,155 150,155 C151.65745856353593,155 153,156.34254143646407 153,158 C153,159.65745856353593 151.65745856353593,161 150,161 C148.34254143646407,161 147,159.65745856353593 147,158 Z" id="svg_43"/><path fill="#ffa189" fill-opacity="1" stroke="none" stroke-opacity="1" stroke-width="12" stroke-dasharray="none" stroke-linejoin="round" stroke-linecap="butt" stroke-dashoffset="" fill-rule="nonzero" opacity="" marker-start="" marker-mid="" marker-end="" d="M155,206 C155,202.13259668508286 157.46132596685084,199 160.5,199 C163.53867403314916,199 166,202.13259668508286 166,206 C166,209.86740331491714 163.53867403314916,213 160.5,213 C157.46132596685084,213 155,209.86740331491714 155,206 Z" id="svg_45"/><path fill="#ffa189" fill-opacity="1" stroke="none" stroke-opacity="1" stroke-width="12" stroke-dasharray="none" stroke-linejoin="round" stroke-linecap="butt" stroke-dashoffset="" fill-rule="nonzero" opacity="" marker-start="" marker-mid="" marker-end="" d="M155,238 C155,234.68508287292818 157.68508287292818,232 161,232 C164.31491712707182,232 167,234.68508287292818 167,238 C167,241.31491712707182 164.31491712707182,244 161,244 C157.68508287292818,244 155,241.31491712707182 155,238 Z" id="svg_47"/><path fill="#ffa189" fill-opacity="1" stroke="none" stroke-opacity="1" stroke-width="12" stroke-dasharray="none" stroke-linejoin="round" stroke-linecap="butt" stroke-dashoffset="" fill-rule="nonzero" opacity="" marker-start="" marker-mid="" marker-end="" d="M78,217.5 C78,212.25138121546962 82.2513812154696,208 87.5,208 C92.7486187845304,208 97,212.25138121546962 97,217.5 C97,222.74861878453038 92.7486187845304,227 87.5,227 C82.2513812154696,227 78,222.74861878453038 78,217.5 Z" id="svg_49"/><path fill="#ffa189" fill-opacity="1" stroke="none" stroke-opacity="1" stroke-width="12" stroke-dasharray="none" stroke-linejoin="round" stroke-linecap="butt" stroke-dashoffset="" fill-rule="nonzero" opacity="" marker-start="" marker-mid="" marker-end="" d="M45,169.5 C45,165.90883977900552 47.46132596685083,163 50.5,163 C53.53867403314917,163 56,165.90883977900552 56,169.5 C56,173.09116022099448 53.53867403314917,176 50.5,176 C47.46132596685083,176 45,173.09116022099448 45,169.5 Z" id="svg_51"/><path fill="#ffa189" fill-opacity="1" stroke="none" stroke-opacity="1" stroke-width="12" stroke-dasharray="none" stroke-linejoin="round" stroke-linecap="butt" stroke-dashoffset="" fill-rule="nonzero" opacity="" marker-start="" marker-mid="" marker-end="" d="M81,155.5 C81,153.56629834254144 83.23756906077348,152 86,152 C88.76243093922652,152 91,153.56629834254144 91,155.5 C91,157.43370165745856 88.76243093922652,159 86,159 C83.23756906077348,159 81,157.43370165745856 81,155.5 Z" id="svg_53"/><path fill="#ffa189" fill-opacity="1" stroke="none" stroke-opacity="1" stroke-width="12" stroke-dasharray="none" stroke-linejoin="round" stroke-linecap="butt" stroke-dashoffset="" fill-rule="nonzero" opacity="" marker-start="" marker-mid="" marker-end="" d="M238,162 C238,156.47513812154696 241.8038674033149,152 246.5,152 C251.1961325966851,152 255,156.47513812154696 255,162 C255,167.52486187845304 251.1961325966851,172 246.5,172 C241.8038674033149,172 238,167.52486187845304 238,162 Z" id="svg_55"/><path fill="#ffa189" fill-opacity="1" stroke="none" stroke-opacity="1" stroke-width="12" stroke-dasharray="none" stroke-linejoin="round" stroke-linecap="butt" stroke-dashoffset="" fill-rule="nonzero" opacity="" marker-start="" marker-mid="" marker-end="" d="M201,158.5 C201,156.56629834254144 202.79005524861878,155 205,155 C207.20994475138122,155 209,156.56629834254144 209,158.5 C209,160.43370165745856 207.20994475138122,162 205,162 C202.79005524861878,162 201,160.43370165745856 201,158.5 Z" id="svg_57"/><path fill="#ffa189" fill-opacity="1" stroke="none" stroke-opacity="1" stroke-width="12" stroke-dasharray="none" stroke-linejoin="round" stroke-linecap="butt" stroke-dashoffset="" fill-rule="nonzero" opacity="" marker-start="" marker-mid="" marker-end="" d="M189,192 C189,189.23756906077347 191.01381215469613,187 193.5,187 C195.98618784530387,187 198,189.23756906077347 198,192 C198,194.76243093922653 195.98618784530387,197 193.5,197 C191.01381215469613,197 189,194.76243093922653 189,192 Z" id="svg_59"/><path fill="#ffa189" fill-opacity="1" stroke="none" stroke-opacity="1" stroke-width="12" stroke-dasharray="none" stroke-linejoin="round" stroke-linecap="butt" stroke-dashoffset="" fill-rule="nonzero" opacity="" marker-start="" marker-mid="" marker-end="" d="M136,183 C136,181.34254143646407 137.34254143646407,180 139,180 C140.65745856353593,180 142,181.34254143646407 142,183 C142,184.65745856353593 140.65745856353593,186 139,186 C137.34254143646407,186 136,184.65745856353593 136,183 Z" id="svg_61"/><path fill="#ffa189" fill-opacity="1" stroke="none" stroke-opacity="1" stroke-width="12" stroke-dasharray="none" stroke-linejoin="round" stroke-linecap="butt" stroke-dashoffset="" fill-rule="nonzero" opacity="" marker-start="" marker-mid="" marker-end="" d="M244,127.5 C244,120.5939226519337 247.13259668508286,115 251,115 C254.86740331491714,115 258,120.5939226519337 258,127.5 C258,134.4060773480663 254.86740331491714,140 251,140 C247.13259668508286,140 244,134.4060773480663 244,127.5 Z" id="svg_63"/><path fill="#ffa189" fill-opacity="1" stroke="none" stroke-opacity="1" stroke-width="12" stroke-dasharray="none" stroke-linejoin="round" stroke-linecap="butt" stroke-dashoffset="" fill-rule="nonzero" opacity="" marker-start="" marker-mid="" marker-end="" d="M228,95 C228,92.23756906077348 230.01381215469613,90 232.5,90 C234.98618784530387,90 237,92.23756906077348 237,95 C237,97.76243093922652 234.98618784530387,100 232.5,100 C230.01381215469613,100 228,97.76243093922652 228,95 Z" id="svg_65"/><path fill="#ffa189" fill-opacity="1" stroke="none" stroke-opacity="1" stroke-width="12" stroke-dasharray="none" stroke-linejoin="round" stroke-linecap="butt" stroke-dashoffset="" fill-rule="nonzero" opacity="" marker-start="" marker-mid="" marker-end="" d="M200,66.5 C200,63.46132596685083 202.01381215469613,61 204.5,61 C206.98618784530387,61 209,63.46132596685083 209,66.5 C209,69.53867403314918 206.98618784530387,72 204.5,72 C202.01381215469613,72 200,69.53867403314918 200,66.5 Z" id="svg_67"/><path fill="#ffa189" fill-opacity="1" stroke="none" stroke-opacity="1" stroke-width="12" stroke-dasharray="none" stroke-linejoin="round" stroke-linecap="butt" stroke-dashoffset="" fill-rule="nonzero" opacity="" marker-start="" marker-mid="" marker-end="" d="M174,48.5 C174,44.35635359116022 178.92265193370164,41 185,41 C191.07734806629836,41 196,44.35635359116022 196,48.5 C196,52.64364640883978 191.07734806629836,56 185,56 C178.92265193370164,56 174,52.64364640883978 174,48.5 Z" id="svg_69"/><path fill="#ffa189" fill-opacity="1" stroke="none" stroke-opacity="1" stroke-width="12" stroke-dasharray="none" stroke-linejoin="round" stroke-linecap="butt" stroke-dashoffset="" fill-rule="nonzero" opacity="" marker-start="" marker-mid="" marker-end="" d="M152,40 C152,37.790055248618785 152.8950276243094,36 154,36 C155.1049723756906,36 156,37.790055248618785 156,40 C156,42.209944751381215 155.1049723756906,44 154,44 C152.8950276243094,44 152,42.209944751381215 152,40 Z" id="svg_71"/><path fill="#ffa189" fill-opacity="1" stroke="none" stroke-opacity="1" stroke-width="12" stroke-dasharray="none" stroke-linejoin="round" stroke-linecap="butt" stroke-dashoffset="" fill-rule="nonzero" opacity="" marker-start="" marker-mid="" marker-end="" d="M100,47.5 C100,46.11878453038674 102.01381215469613,45 104.5,45 C106.98618784530387,45 109,46.11878453038674 109,47.5 C109,48.88121546961326 106.98618784530387,50 104.5,50 C102.01381215469613,50 100,48.88121546961326 100,47.5 Z" id="svg_73"/><path fill="#ffa189" fill-opacity="1" stroke="none" stroke-opacity="1" stroke-width="12" stroke-dasharray="none" stroke-linejoin="round" stroke-linecap="butt" stroke-dashoffset="" fill-rule="nonzero" opacity="" marker-start="" marker-mid="" marker-end="" d="M81,68 C81,65.79005524861878 83.68508287292818,64 87,64 C90.31491712707182,64 93,65.79005524861878 93,68 C93,70.20994475138122 90.31491712707182,72 87,72 C83.68508287292818,72 81,70.20994475138122 81,68 Z" id="svg_75"/><path fill="#ffa189" fill-opacity="1" stroke="none" stroke-opacity="1" stroke-width="12" stroke-dasharray="none" stroke-linejoin="round" stroke-linecap="butt" stroke-dashoffset="" fill-rule="nonzero" opacity="" marker-start="" marker-mid="" marker-end="" d="M45,111 C45,109.89502762430939 47.01381215469613,109 49.5,109 C51.98618784530387,109 54,109.89502762430939 54,111 C54,112.10497237569061 51.98618784530387,113 49.5,113 C47.01381215469613,113 45,112.10497237569061 45,111 Z" id="svg_77"/><path fill="#ffa189" fill-opacity="1" stroke="none" stroke-opacity="1" stroke-width="12" stroke-dasharray="none" stroke-linejoin="round" stroke-linecap="butt" stroke-dashoffset="" fill-rule="nonzero" opacity="" marker-start="" marker-mid="" marker-end="" d="M209,218 C209,215.23756906077347 211.23756906077347,213 214,213 C216.76243093922653,213 219,215.23756906077347 219,218 C219,220.76243093922653 216.76243093922653,223 214,223 C211.23756906077347,223 209,220.76243093922653 209,218 Z" id="svg_79"/><path fill="#ffa189" fill-opacity="1" stroke="none" stroke-opacity="1" stroke-width="12" stroke-dasharray="none" stroke-linejoin="round" stroke-linecap="butt" stroke-dashoffset="" fill-rule="nonzero" opacity="" marker-start="" marker-mid="" marker-end="" d="M247,189 C247,186.79005524861878 248.11878453038673,185 249.5,185 C250.88121546961327,185 252,186.79005524861878 252,189 C252,191.20994475138122 250.88121546961327,193 249.5,193 C248.11878453038673,193 247,191.20994475138122 247,189 Z" id="svg_81"/><path fill="#ffa189" fill-opacity="1" stroke="none" stroke-opacity="1" stroke-width="12" stroke-dasharray="none" stroke-linejoin="round" stroke-linecap="butt" stroke-dashoffset="" fill-rule="nonzero" opacity="" marker-start="" marker-mid="" marker-end="" d="M109,239 C109,235.13259668508286 112.80386740331491,232 117.5,232 C122.19613259668509,232 126,235.13259668508286 126,239 C126,242.86740331491714 122.19613259668509,246 117.5,246 C112.80386740331491,246 109,242.86740331491714 109,239 Z" id="svg_83"/></g></svg>