<svg xmlns="http://www.w3.org/2000/svg" xmlns:se="http://svg-edit.googlecode.com" xmlns:xlink="http://www.w3.org/1999/xlink" xmlns:dc="http://purl.org/dc/elements/1.1/" xmlns:cc="http://creativecommons.org/ns#" xmlns:rdf="http://www.w3.org/1999/02/22-rdf-syntax-ns#" xmlns:inkscape="http://www.inkscape.org/namespaces/inkscape" width="300" height="300" style="">                                    <title>my vector image</title>                                    <!-- Created with Vector Paint - http://www.vectorpaint.yaks.com/ https://chrome.google.com/webstore/detail/hnbpdiengicdefcjecjbnjnoifekhgdo -->                                    <rect id="backgroundrect" width="100%" height="100%" x="0" y="0" fill="#FFFFFF" stroke="none" class="" style="" opacity="0"/>                                <g class="currentLayer" style=""><title>Layer 1</title><polyline fill="#ffe12d" stroke="#ffe12d" stroke-width="5" stroke-linejoin="round" stroke-dashoffset="" fill-rule="nonzero" marker-start="" marker-mid="" marker-end="" id="svg_1" points="97.99999549984932,222.39999821186063 97.99999549984932,222.39999821186063 98.66666216651595,222.39999821186063 99.33332883318263,222.39999821186063 100.66666216651595,222.39999821186063 103.33332883318263,222.39999821186063 105.99999549984932,222.39999821186063 107.99999549984932,222.39999821186063 111.33332883318263,222.39999821186063 114.66666216651595,222.39999821186063 117.33332883318263,222.39999821186063 121.33332883318263,222.39999821186063 124.66666216651595,222.39999821186063 129.33332883318263,222.39999821186063 133.33332883318263,222.39999821186063 137.33332883318263,222.39999821186063 140.66666216651595,222.39999821186063 143.33332883318263,223.06666487852735 145.99999549984932,223.733331545194 148.66666216651595,223.733331545194 151.33332883318263,223.733331545194 152.66666216651595,223.733331545194 153.99999549984932,223.733331545194 153.99999549984932,224.39999821186063 154.66666216651595,224.39999821186063 155.33332883318263,225.06666487852735 155.99999549984932,225.06666487852735 156.66666216651595,225.06666487852735 156.66666216651595,225.06666487852735 156.66666216651595,225.733331545194 157.33332883318263,225.733331545194 157.33332883318263,226.39999821186063 157.99999549984932,226.39999821186063 159.33332883318263,226.39999821186063 159.99999549984932,226.39999821186063 161.33332883318263,226.39999821186063 162.66666216651595,226.39999821186063 163.33332883318263,226.39999821186063 163.33332883318263,225.733331545194 163.99999549984932,225.06666487852735 163.99999549984932,224.39999821186063 163.99999549984932,223.733331545194 164.66666216651595,222.39999821186063 164.66666216651595,221.06666487852735 164.66666216651595,220.39999821186063 164.66666216651595,219.733331545194 164.66666216651595,218.39999821186063 164.66666216651595,217.06666487852735 165.33332883318263,215.733331545194 165.33332883318263,214.39999821186063 165.99999549984932,212.39999821186063 165.99999549984932,211.06666487852735 165.99999549984932,209.06666487852735 165.99999549984932,207.733331545194 165.99999549984932,207.06666487852735 165.99999549984932,205.06666487852735 167.33332883318263,203.06666487852735 167.33332883318263,201.06666487852735 167.99999549984932,199.733331545194 169.33332883318263,196.39999821186063 169.33332883318263,194.39999821186063 169.99999549984932,192.39999821186063 169.99999549984932,190.39999821186063 171.33332883318266,187.733331545194 171.33332883318266,186.39999821186063 171.99999549984932,184.39999821186063 172.66666216651595,183.06666487852735 172.66666216651595,181.06666487852735 172.66666216651595,178.39999821186063 172.66666216651595,177.733331545194 173.33332883318266,175.733331545194 173.99999549984932,174.39999821186063 173.99999549984932,173.06666487852735 174.66666216651595,171.06666487852735 174.66666216651595,169.733331545194 175.99999549984932,166.39999821186063 176.66666216651595,163.733331545194 177.99999549984932,161.06666487852732 178.66666216651595,158.39999821186063 179.99999549984932,154.39999821186063 180.66666216651595,150.39999821186063 182.66666216651595,147.733331545194 183.33332883318266,145.733331545194 183.99999549984932,143.733331545194 184.66666216651595,142.39999821186063 184.66666216651595,140.39999821186063 185.33332883318266,139.06666487852732 185.99999549984932,137.733331545194 185.99999549984932,137.06666487852732 185.99999549984932,135.733331545194 185.99999549984932,135.06666487852732 185.99999549984932,133.733331545194 185.99999549984932,133.06666487852732 185.99999549984932,133.06666487852732 185.99999549984932,132.39999821186063 186.66666216651595,130.39999821186063 187.33332883318266,129.733331545194 187.99999549984932,127.73333154519399 188.66666216651595,125.73333154519399 188.66666216651595,123.73333154519399 189.33332883318266,123.0666648785273 189.33332883318266,122.39999821186065 189.33332883318266,121.0666648785273 189.33332883318266,120.39999821186065 189.33332883318266,119.73333154519399 189.99999549984932,119.73333154519399 189.99999549984932,119.73333154519399 189.99999549984932,119.0666648785273 189.99999549984932,118.39999821186065 189.33332883318266,117.73333154519399 188.66666216651595,117.0666648785273 188.66666216651595,117.0666648785273 188.66666216651595,117.0666648785273 187.33332883318266,115.73333154519399 186.66666216651595,115.0666648785273 185.99999549984932,114.39999821186065 185.33332883318266,113.73333154519399 183.33332883318266,112.39999821186065 182.66666216651595,111.73333154519399 181.33332883318266,111.0666648785273 180.66666216651595,109.73333154519399 179.99999549984932,109.0666648785273 178.66666216651595,108.39999821186065 177.99999549984932,107.73333154519399 176.66666216651595,106.39999821186065 175.33332883318266,106.39999821186065 173.99999549984932,105.0666648785273 173.33332883318266,105.0666648785273 172.66666216651595,104.39999821186065 171.33332883318266,103.73333154519399 169.99999549984932,103.73333154519399 169.99999549984932,103.0666648785273 168.66666216651595,102.39999821186065 167.33332883318263,102.39999821186065 165.99999549984932,101.73333154519399 164.66666216651595,101.0666648785273 163.33332883318263,100.39999821186065 160.66666216651595,100.39999821186065 158.66666216651595,99.73333154519399 156.66666216651595,99.0666648785273 154.66666216651595,98.39999821186065 153.99999549984932,98.39999821186065 152.66666216651595,98.39999821186065 151.33332883318263,97.73333154519399 148.66666216651595,97.0666648785273 145.99999549984932,97.0666648785273 143.99999549984932,97.0666648785273 141.99999549984932,97.0666648785273 140.66666216651595,97.0666648785273 139.99999549984932,97.0666648785273 139.33332883318263,97.0666648785273 138.66666216651595,97.0666648785273 137.99999549984932,97.0666648785273 136.66666216651595,97.0666648785273 133.99999549984932,97.0666648785273 131.33332883318263,97.0666648785273 128.66666216651595,97.0666648785273 126.66666216651595,97.0666648785273 124.66666216651595,97.0666648785273 122.66666216651595,97.0666648785273 121.33332883318263,97.0666648785273 119.99999549984932,97.0666648785273 119.33332883318263,97.0666648785273 119.33332883318263,97.0666648785273 117.99999549984932,97.0666648785273 116.66666216651595,97.0666648785273 113.99999549984932,97.0666648785273 111.33332883318263,97.73333154519399 106.66666216651595,98.39999821186065 104.66666216651595,98.39999821186065 102.66666216651595,98.39999821186065 100.66666216651595,98.39999821186065 100.66666216651595,98.39999821186065 99.99999549984932,98.39999821186065 99.33332883318263,98.39999821186065 98.66666216651595,98.39999821186065 97.33332883318263,99.0666648785273 94.66666216651595,100.39999821186065 89.99999549984932,101.0666648785273 87.99999549984932,102.39999821186065 85.33332883318263,102.39999821186065 84.66666216651595,102.39999821186065 84.66666216651595,102.39999821186065 83.99999549984932,103.0666648785273 82.66666216651595,103.73333154519399 79.99999549984932,103.73333154519399 77.99999549984932,104.39999821186065 76.66666216651595,104.39999821186065 76.66666216651595,105.0666648785273 76.66666216651595,106.39999821186065 77.33332883318263,106.39999821186065 77.33332883318263,107.0666648785273 77.99999549984932,109.0666648785273 79.33332883318263,109.0666648785273 79.33332883318263,111.73333154519399 79.33332883318263,112.39999821186065 79.99999549984932,113.73333154519399 80.66666216651595,114.39999821186065 81.33332883318263,115.73333154519399 81.99999549984932,117.0666648785273 81.99999549984932,117.73333154519399 83.33332883318263,119.73333154519399 83.99999549984932,121.0666648785273 84.66666216651595,122.39999821186065 84.66666216651595,124.39999821186065 85.33332883318263,125.0666648785273 85.99999549984932,125.73333154519399 86.66666216651595,127.0666648785273 86.66666216651595,127.73333154519399 87.33332883318263,129.733331545194 87.99999549984932,131.733331545194 88.66666216651595,133.06666487852732 89.99999549984932,135.06666487852732 89.99999549984932,135.733331545194 89.99999549984932,137.06666487852732 91.33332883318263,138.39999821186063 92.66666216651595,141.06666487852732 92.66666216651595,143.733331545194 93.33332883318263,146.39999821186063 93.99999549984932,147.733331545194 94.66666216651595,149.06666487852732 94.66666216651595,149.733331545194 94.66666216651595,151.733331545194 95.33332883318263,153.733331545194 95.33332883318263,157.06666487852732 95.99999549984932,159.733331545194 95.99999549984932,162.39999821186063 96.66666216651595,163.06666487852732 96.66666216651595,164.39999821186063 96.66666216651595,165.733331545194 97.33332883318263,167.733331545194 97.33332883318263,170.39999821186063 97.33332883318263,172.39999821186063 97.99999549984932,173.733331545194 97.99999549984932,175.733331545194 97.99999549984932,176.39999821186063 97.99999549984932,179.06666487852735 97.99999549984932,181.06666487852735 97.99999549984932,183.733331545194 97.99999549984932,186.39999821186063 97.99999549984932,187.733331545194 98.66666216651595,189.733331545194 98.66666216651595,191.733331545194 98.66666216651595,193.733331545194 98.66666216651595,195.733331545194 98.66666216651595,198.39999821186063 98.66666216651595,202.39999821186063 98.66666216651595,204.39999821186063 99.33332883318263,207.733331545194 99.33332883318263,209.06666487852735 99.33332883318263,210.39999821186063 99.33332883318263,211.06666487852735 99.33332883318263,211.733331545194 99.33332883318263,213.06666487852735 99.99999549984932,213.06666487852735 99.99999549984932,215.06666487852735 100.66666216651595,215.733331545194 100.66666216651595,217.733331545194 100.66666216651595,219.733331545194 100.66666216651595,221.733331545194 100.66666216651595,223.733331545194 " style="color: rgb(224, 242, 198);" class="" stroke-opacity="1" fill-opacity="1"/><polyline fill="#ffe12d" stroke="#ffe12d" stroke-width="5" stroke-linejoin="round" stroke-dashoffset="" fill-rule="nonzero" marker-start="" marker-mid="" marker-end="" id="svg_2" points="76.59258945177943,103.99999637515464 76.59258945177943,103.99999637515464 76.22221908795005,103.99999637515464 75.85184872412064,103.99999637515464 75.48147836029126,103.99999637515464 75.11110799646185,103.99999637515464 74.74073763263247,103.99999637515464 74.74073763263247,104.370366738984 74.37036726880307,104.370366738984 74.37036726880307,104.74073710281343 73.99999690497368,105.1111074666428 73.99999690497368,105.48147783047223 73.99999690497368,106.222218558131 73.99999690497368,106.222218558131 73.62962654114428,106.59258892196037 73.62962654114428,106.9629592857898 73.62962654114428,107.7037000134486 73.62962654114428,107.7037000134486 73.62962654114428,108.07407037727796 73.62962654114428,108.44444074110737 73.62962654114428,109.18518146876616 73.99999690497368,109.92592219642496 74.37036726880307,110.66666292408374 75.11110799646185,111.40740365174253 75.48147836029126,112.14814437940133 75.85184872412064,112.51851474323071 75.85184872412064,113.25925547088949 76.22221908795005,113.6296258347189 76.22221908795005,113.99999619854827 76.96295981560884,114.74073692620708 76.96295981560884,115.11110729003647 77.33333017943822,115.48147765386585 77.33333017943822,116.22221838152464 77.70370054326763,116.59258874535404 78.07407090709701,117.33332947301284 78.44444127092642,117.70369983684222 78.8148116347558,118.07407020067163 79.18518199858521,119.18518129215981 79.55555236241459,119.5555516559892 79.925922726244,119.92592201981859 80.29629309007338,120.66666274747737 80.29629309007338,121.03703311130678 80.29629309007338,121.03703311130678 80.66666345390279,121.40740347513615 81.03703381773217,121.77777383896557 81.03703381773217,122.14814420279495 81.77777454539095,122.51851456662438 81.77777454539095,123.25925529428315 81.77777454539095,123.62962565811252 81.77777454539095,123.99999602194194 82.51851527304974,124.74073674960074 82.51851527304974,125.48147747725952 83.25925600070853,126.2222182049183 83.62962636453794,126.96295893257711 83.99999672836732,127.33332929640648 84.37036709219673,128.44444038789467 84.74073745602611,129.18518111555346 85.11110781985552,130.29629220704163 85.4814781836849,131.40740329852983 85.85184854751431,131.40740329852983 86.22221891134369,131.7777736623592 86.22221891134369,132.14814402618862 86.22221891134369,132.518514390018 86.5925892751731,132.8888847538474 86.96295963900248,133.6296254815062 87.33333000283189,133.99999584533558 87.33333000283189,134.74073657299436 87.70370036666127,135.11110693682377 87.70370036666127,135.48147730065315 88.07407073049065,135.85184766448256 88.07407073049065,136.22221802831194 88.44444109432006,136.59258839214135 88.81481145814944,137.3333291198001 88.81481145814944,137.70369948362952 89.18518182197884,138.0740698474589 89.18518182197884,138.8148105751177 89.18518182197884,139.1851809389471 89.92592254963763,141.03703275809406 89.92592254963763,141.77777348575285 90.29629291346701,142.88888457724104 90.66666327729642,143.25925494107042 91.0370336411258,144.740736396388 91.77777436878459,146.2222178517056 92.148144732614,147.7036993070232 92.148144732614,148.07406967085257 92.51851509644338,149.18518076234076 92.88888546027279,149.55555112617014 92.88888546027279,149.92592148999955 92.88888546027279,150.66666221765834 93.62962618793158,152.8888844006347 94.37036691559037,154.3703658559523 95.11110764324916,155.48147694744046 95.11110764324916,156.59258803892865 95.11110764324916,156.96295840275803 95.11110764324916,157.33332876658744 95.48147800707854,157.70369913041682 95.48147800707854,158.07406949424623 95.85184837090793,158.81481022190502 96.22221873473734,159.5555509495638 96.59258909856673,160.29629167722257 96.59258909856673,161.03703240488136 96.96295946239611,161.77777313254015 96.96295946239611,162.51851386019894 97.33332982622552,162.88888422402835 97.7037001900549,163.99999531551651 98.0740705538843,164.37036567934592 98.0740705538843,164.7407360431753 98.0740705538843,165.1111064070047 98.0740705538843,165.4814767708341 98.0740705538843,165.8518471346635 98.0740705538843,166.22221749849288 98.8148112815431,167.33332858998108 99.18518164537248,168.44443968146925 99.18518164537248,168.44443968146925 99.18518164537248,168.81481004529866 99.18518164537248,169.18518040912804 99.55555200920189,169.92592113678683 99.55555200920189,169.92592113678683 " style="color: rgb(255, 255, 101);" class="" stroke-opacity="1" fill-opacity="1"/><polyline fill="#ffe12d" stroke="#ffe12d" stroke-width="5" stroke-linejoin="round" stroke-dashoffset="" fill-rule="nonzero" marker-start="" marker-mid="" marker-end="" id="svg_3" points="99.55555200920189,222.1481424367314 99.55555200920189,221.77777207290202 99.55555200920189,221.0370313452433 99.18518164537248,220.29629061758448 99.18518164537248,219.5555498899257 99.18518164537248,218.4444387984375 99.18518164537248,217.3333277069493 99.18518164537248,216.59258697929056 99.18518164537248,215.85184625163174 99.18518164537248,215.11110552397295 98.8148112815431,214.37036479631416 98.4444409177137,212.88888334099656 98.4444409177137,212.14814261333782 98.0740705538843,210.66666115802022 98.0740705538843,209.18517970270264 97.7037001900549,208.07406861121444 97.33332982622552,206.96295751972627 96.96295946239611,205.4814760644087 96.96295946239611,204.74073533674988 96.59258909856673,203.99999460909115 96.59258909856673,203.6296242452617 96.59258909856673,203.25925388143233 96.59258909856673,202.51851315377354 96.59258909856673,202.14814278994416 96.22221873473734,201.03703169845596 95.85184837090793,199.5555502431384 95.48147800707854,198.44443915165024 95.48147800707854,197.70369842399143 95.11110764324916,196.59258733250323 95.11110764324916,195.11110587718568 95.11110764324916,194.37036514952686 95.11110764324916,193.62962442186807 95.11110764324916,192.5185133303799 94.74073727941975,190.66666151123295 94.74073727941975,189.92592078357413 94.37036691559037,187.70369860059776 94.37036691559037,186.5925875091096 94.37036691559037,186.22221714528018 93.99999655176096,185.111106053792 93.99999655176096,183.99999496230382 93.99999655176096,182.88888387081565 93.62962618793158,180.66666168783928 93.62962618793158,180.29629132400987 93.62962618793158,179.1851802325217 93.62962618793158,177.70369877720412 93.62962618793158,176.96295804954534 93.62962618793158,175.48147659422776 93.62962618793158,173.62962477508077 93.62962618793158,172.1481433197632 93.62962618793158,170.29629150061623 93.62962618793158,169.55555077295745 93.25925582410217,168.07406931763987 93.25925582410217,166.5925878623223 92.88888546027279,165.4814767708341 92.88888546027279,164.37036567934592 92.51851509644338,162.51851386019894 92.148144732614,161.77777313254015 92.148144732614,161.03703240488136 91.77777436878459,159.5555509495638 91.77777436878459,158.4444398580756 91.40740400495521,156.96295840275803 91.40740400495521,155.11110658361108 91.0370336411258,154.3703658559523 91.0370336411258,153.6296251282935 90.66666327729642,152.8888844006347 90.66666327729642,152.14814367297592 90.29629291346701,151.03703258148772 90.29629291346701,149.92592148999955 89.92592254963763,149.18518076234076 89.55555218580822,148.44444003468197 89.55555218580822,147.7036993070232 89.18518182197884,146.9629585793644 89.18518182197884,145.8518474878762 88.81481145814944,143.62962530489983 88.07407073049065,142.14814384958225 87.70370036666127,140.66666239426468 86.96295963900248,138.8148105751177 86.5925892751731,137.3333291198001 86.22221891134369,135.85184766448256 86.22221891134369,134.74073657299436 85.85184854751431,133.2592551176768 85.4814781836849,132.14814402618862 85.11110781985552,131.40740329852983 84.74073745602611,129.92592184321225 84.74073745602611,129.55555147938284 84.74073745602611,128.81481075172405 84.37036709219673,128.07407002406526 84.37036709219673,127.70369966023588 83.99999672836732,127.70369966023588 83.99999672836732,127.33332929640648 83.62962636453794,127.33332929640648 83.62962636453794,126.96295893257711 83.62962636453794,126.59258856874769 83.25925600070853,125.48147747725952 82.88888563687915,124.74073674960074 82.51851527304974,123.62962565811252 81.77777454539095,121.77777383896557 81.03703381773217,120.296292383648 80.29629309007338,118.07407020067163 79.925922726244,116.96295910918344 79.18518199858521,115.85184801769526 78.8148116347558,115.48147765386585 78.8148116347558,115.11110729003647 78.8148116347558,114.74073692620708 78.44444127092642,114.37036656237767 78.07407090709701,113.99999619854827 78.07407090709701,113.6296258347189 78.07407090709701,114.37036656237767 78.07407090709701,114.74073692620708 78.07407090709701,115.85184801769526 78.44444127092642,116.59258874535404 78.8148116347558,118.07407020067163 79.18518199858521,119.18518129215981 79.925922726244,121.03703311130678 80.29629309007338,123.62962565811252 81.40740418156157,125.48147747725952 82.14814490922036,128.44444038789467 84.37036709219673,132.8888847538474 85.4814781836849,136.22221802831194 86.22221891134369,138.0740698474589 87.33333000283189,140.29629203043527 87.70370036666127,142.51851421341163 88.81481145814944,144.37036603255862 89.18518182197884,145.4814771240468 89.18518182197884,146.9629585793644 89.92592254963763,148.44444003468197 90.66666327729642,151.40740294531713 91.40740400495521,153.2592547644641 92.148144732614,155.11110658361108 92.148144732614,155.85184731126986 92.51851509644338,156.59258803892865 92.51851509644338,156.59258803892865 92.148144732614,155.85184731126986 91.40740400495521,154.3703658559523 90.66666327729642,152.14814367297592 89.18518182197884,149.55555112617014 88.44444109432006,147.7036993070232 87.70370036666127,144.740736396388 86.22221891134369,141.03703275809406 85.4814781836849,137.70369948362952 84.37036709219673,133.99999584533558 83.25925600070853,131.03703293470042 82.14814490922036,128.44444038789467 81.40740418156157,126.2222182049183 80.29629309007338,124.74073674960074 79.925922726244,122.51851456662438 79.55555236241459,121.03703311130678 78.8148116347558,120.296292383648 78.8148116347558,119.18518129215981 78.44444127092642,118.44444056450101 78.07407090709701,118.07407020067163 78.07407090709701,117.70369983684222 77.70370054326763,116.96295910918344 77.70370054326763,116.59258874535404 77.70370054326763,116.59258874535404 77.70370054326763,116.22221838152464 77.33333017943822,116.22221838152464 77.33333017943822,115.85184801769526 77.33333017943822,115.85184801769526 76.96295981560884,115.48147765386585 76.96295981560884,115.11110729003647 76.59258945177943,115.11110729003647 76.59258945177943,115.48147765386585 76.59258945177943,116.59258874535404 76.96295981560884,118.07407020067163 77.33333017943822,119.18518129215981 77.33333017943822,120.66666274747737 78.07407090709701,122.51851456662438 78.8148116347558,124.37036638577132 79.55555236241459,126.2222182049183 80.29629309007338,128.44444038789467 81.03703381773217,130.66666257087104 81.40740418156157,132.14814402618862 81.77777454539095,134.37036620916498 82.88888563687915,136.22221802831194 83.25925600070853,137.70369948362952 84.37036709219673,140.66666239426468 84.74073745602611,142.14814384958225 85.11110781985552,143.25925494107042 85.4814781836849,144.740736396388 86.22221891134369,146.2222178517056 86.5925892751731,148.07406967085257 87.33333000283189,149.92592148999955 87.70370036666127,152.14814367297592 88.44444109432006,153.99999549212288 89.18518182197884,156.59258803892865 90.66666327729642,160.66666204105198 91.0370336411258,161.40740276871077 92.148144732614,163.99999531551651 92.51851509644338,165.4814767708341 93.62962618793158,168.07406931763987 94.37036691559037,171.4074025921044 95.11110764324916,173.99999513891018 95.48147800707854,175.11110623039835 96.22221873473734,176.96295804954534 96.59258909856673,178.4444395048629 97.33332982622552,180.29629132400987 97.33332982622552,181.03703205166866 98.0740705538843,183.25925423464503 98.8148112815431,186.22221714528018 99.55555200920189,188.07406896442717 99.55555200920189,189.18518005591534 99.92592237303127,189.92592078357413 100.29629273686066,190.66666151123295 100.29629273686066,192.1481429665505 101.03703346451947,193.2592540580387 101.40740382834885,194.7407355133563 101.77777419217826,196.22221696867385 102.14814455600764,196.59258733250323 102.14814455600764,196.96295769633264 101.77777419217826,196.59258733250323 101.03703346451947,195.8518466048444 100.66666310069007,194.37036514952686 100.29629273686066,192.88888369420928 99.55555200920189,190.66666151123295 98.8148112815431,188.81480969208596 98.0740705538843,186.22221714528018 97.33332982622552,183.62962459847444 95.48147800707854,179.55555059635108 94.37036691559037,176.96295804954534 93.25925582410217,175.11110623039835 92.148144732614,172.88888404742198 92.148144732614,171.4074025921044 91.40740400495521,169.92592113678683 91.0370336411258,168.44443968146925 90.66666327729642,167.33332858998108 90.66666327729642,166.5925878623223 90.66666327729642,165.8518471346635 90.66666327729642,164.7407360431753 90.29629291346701,163.99999531551651 90.29629291346701,162.88888422402835 89.92592254963763,162.51851386019894 89.92592254963763,161.40740276871077 89.55555218580822,160.29629167722257 89.18518182197884,159.5555509495638 89.18518182197884,159.1851805857344 89.18518182197884,158.4444398580756 89.18518182197884,159.1851805857344 89.18518182197884,161.03703240488136 89.18518182197884,163.62962495168713 89.55555218580822,165.4814767708341 90.29629291346701,167.33332858998108 90.66666327729642,168.44443968146925 91.0370336411258,171.03703222827502 91.40740400495521,172.5185136835926 91.77777436878459,174.37036550273956 92.148144732614,175.85184695805714 92.148144732614,177.33332841337472 92.88888546027279,179.9259209601805 93.62962618793158,183.25925423464503 94.74073727941975,186.5925875091096 95.85184837090793,190.29629114740356 96.59258909856673,192.1481429665505 96.59258909856673,192.88888369420928 96.59258909856673,193.2592540580387 96.59258909856673,193.62962442186807 96.59258909856673,193.62962442186807 96.59258909856673,193.2592540580387 95.85184837090793,191.0370318750623 95.11110764324916,189.55555041974475 94.74073727941975,187.70369860059776 93.62962618793158,184.7407356899626 92.88888546027279,181.77777277932745 92.148144732614,178.8148098686923 91.77777436878459,177.33332841337472 91.40740400495521,175.85184695805714 91.0370336411258,174.37036550273956 90.66666327729642,172.1481433197632 89.55555218580822,169.55555077295745 89.18518182197884,166.96295822615167 88.44444109432006,163.99999531551651 87.70370036666127,161.40740276871077 87.33333000283189,159.1851805857344 86.5925892751731,156.59258803892865 86.22221891134369,155.11110658361108 86.22221891134369,153.2592547644641 85.4814781836849,150.66666221765834 84.74073745602611,148.81481039851136 84.37036709219673,146.2222178517056 83.99999672836732,144.740736396388 83.25925600070853,142.88888457724104 83.25925600070853,141.40740312192347 82.88888563687915,139.1851809389471 82.88888563687915,137.70369948362952 82.14814490922036,135.11110693682377 81.77777454539095,133.2592551176768 81.03703381773217,131.03703293470042 80.66666345390279,129.92592184321225 80.66666345390279,128.44444038789467 80.66666345390279,128.07407002406526 80.66666345390279,127.33332929640648 80.66666345390279,126.96295893257711 80.29629309007338,126.2222182049183 80.29629309007338,126.96295893257711 80.66666345390279,128.07407002406526 81.40740418156157,130.66666257087104 81.77777454539095,132.8888847538474 83.25925600070853,137.3333291198001 84.74073745602611,144.37036603255862 87.33333000283189,150.29629185382893 88.07407073049065,153.6296251282935 89.92592254963763,159.1851805857344 92.148144732614,164.37036567934592 93.62962618793158,169.55555077295745 94.74073727941975,173.2592544112514 96.59258909856673,178.0740691410335 98.8148112815431,183.25925423464503 99.55555200920189,185.4814764176214 99.92592237303127,186.5925875091096 100.29629273686066,187.33332823676838 100.29629273686066,187.70369860059776 100.66666310069007,187.70369860059776 100.66666310069007,187.33332823676838 100.66666310069007,186.5925875091096 100.66666310069007,186.22221714528018 101.03703346451947,186.22221714528018 101.40740382834885,186.5925875091096 102.88888528366641,187.33332823676838 106.222218558131,188.44443932825655 110.66666292408374,188.44443932825655 114.37036656237767,188.07406896442717 118.444440564501,186.22221714528018 121.40740347513615,184.7407356899626 125.85184784108888,181.77777277932745 128.44444038789464,179.1851802325217 131.0370329347004,176.22221732188655 133.2592551176768,172.88888404742198 135.11110693682377,169.92592113678683 136.9629587559707,166.96295822615167 138.8148105751177,163.99999531551651 139.55555130277645,162.51851386019894 139.92592166660586,161.40740276871077 " style="color: rgb(255, 255, 101);" class="" stroke-opacity="1" fill-opacity="1"/><polyline fill="#ffe12d" stroke="#ffe12d" stroke-width="5" stroke-linejoin="round" stroke-dashoffset="" fill-rule="nonzero" marker-start="" marker-mid="" marker-end="" id="svg_4" points="188.07406896442717,116.96295910918344 188.44443932825652,116.96295910918344 188.44443932825652,116.96295910918344 188.81480969208593,117.33332947301284 189.18518005591534,117.33332947301284 189.55555041974475,117.33332947301284 189.9259207835741,117.70369983684222 190.2962911474035,117.70369983684222 190.2962911474035,118.07407020067163 190.66666151123295,118.07407020067163 191.0370318750623,118.07407020067163 191.40740223889168,118.07407020067163 191.40740223889168,118.07407020067163 191.40740223889168,118.44444056450101 191.77777260272111,118.8148109283304 192.5185133303799,119.18518129215981 192.88888369420923,119.5555516559892 192.88888369420923,119.5555516559892 192.88888369420923,119.92592201981859 192.88888369420923,120.296292383648 192.5185133303799,120.66666274747737 192.5185133303799,121.03703311130678 191.77777260272111,122.51851456662438 191.77777260272111,123.25925529428315 191.40740223889168,123.99999602194194 191.0370318750623,124.74073674960074 191.0370318750623,125.11110711343011 190.66666151123295,125.48147747725952 189.9259207835741,126.2222182049183 189.9259207835741,126.96295893257711 189.55555041974475,128.07407002406526 189.18518005591534,128.81481075172405 188.81480969208593,129.92592184321225 188.44443932825652,130.29629220704163 188.44443932825652,131.03703293470042 187.70369860059776,131.7777736623592 187.33332823676835,132.8888847538474 186.96295787293894,133.99999584533558 186.22221714528018,135.85184766448256 185.85184678145077,137.3333291198001 185.48147641762137,138.4444402112883 185.111106053792,139.55555130277648 184.7407356899626,140.66666239426468 184.3703653261332,142.14814384958225 183.9999949623038,143.25925494107042 183.9999949623038,144.740736396388 183.62962459847444,145.4814771240468 183.25925423464503,146.2222178517056 182.5185135069862,147.7036993070232 182.5185135069862,148.44444003468197 181.77777277932745,150.29629185382893 181.40740241549804,150.66666221765834 181.0370320516687,152.8888844006347 181.0370320516687,153.6296251282935 180.29629132400987,154.3703658559523 179.92592096018046,155.11110658361108 179.92592096018046,155.85184731126986 179.5555505963511,156.59258803892865 179.1851802325217,157.33332876658744 179.1851802325217,157.70369913041682 178.8148098686923,158.4444398580756 178.44443950486288,159.1851805857344 178.07406914103353,159.5555509495638 178.07406914103353,160.29629167722257 178.07406914103353,161.03703240488136 177.70369877720412,161.40740276871077 177.70369877720412,161.77777313254015 177.33332841337472,162.51851386019894 177.33332841337472,162.51851386019894 176.9629580495453,163.25925458785773 176.59258768571596,163.99999531551651 176.59258768571596,165.1111064070047 176.59258768571596,165.4814767708341 176.22221732188655,166.22221749849288 175.85184695805714,166.5925878623223 175.85184695805714,167.33332858998108 175.85184695805714,168.44443968146925 175.85184695805714,168.81481004529866 175.48147659422773,169.92592113678683 175.48147659422773,170.29629150061623 175.11110623039838,171.03703222827502 175.11110623039838,171.4074025921044 175.11110623039838,171.7777729559338 175.11110623039838,172.5185136835926 175.11110623039838,172.88888404742198 175.11110623039838,173.62962477508077 174.74073586656897,174.37036550273956 174.37036550273956,175.48147659422776 173.99999513891015,176.22221732188655 173.99999513891015,176.59258768571593 173.99999513891015,176.96295804954534 173.6296247750808,177.33332841337472 173.6296247750808,178.0740691410335 173.6296247750808,178.8148098686923 173.2592544112514,179.55555059635108 173.2592544112514,180.29629132400987 173.2592544112514,180.66666168783928 173.2592544112514,181.40740241549807 172.88888404742198,181.77777277932745 172.88888404742198,182.14814314315686 172.51851368359257,182.88888387081565 172.51851368359257,183.62962459847444 172.51851368359257,184.37036532613322 172.14814331976322,184.7407356899626 172.14814331976322,185.8518467814508 172.14814331976322,186.5925875091096 171.7777729559338,187.33332823676838 171.7777729559338,187.70369860059776 171.7777729559338,188.07406896442717 171.4074025921044,188.81480969208596 171.037032228275,189.18518005591534 170.66666186444564,189.55555041974475 170.66666186444564,190.66666151123295 170.66666186444564,191.0370318750623 170.66666186444564,191.77777260272111 170.29629150061623,192.5185133303799 170.29629150061623,193.62962442186807 169.92592113678683,193.99999478569748 169.55555077295742,195.11110587718568 169.55555077295742,196.22221696867385 169.18518040912807,197.33332806016202 169.18518040912807,198.0740687878208 169.18518040912807,198.44443915165024 169.18518040912807,198.8148095154796 168.81481004529866,199.5555502431384 168.44443968146925,200.29629097079714 168.44443968146925,200.66666133462658 168.07406931763984,201.03703169845596 168.07406931763984,201.77777242611475 168.07406931763984,202.14814278994416 168.07406931763984,202.51851315377354 168.07406931763984,202.51851315377354 167.7036989538105,203.25925388143233 167.7036989538105,203.99999460909115 167.7036989538105,204.37036497292053 167.33332858998108,205.11110570057932 167.33332858998108,205.8518464282381 166.96295822615167,206.96295751972627 166.96295822615167,207.7036982473851 166.59258786232226,208.44443897504382 166.59258786232226,208.44443897504382 166.2222174984929,209.18517970270264 166.2222174984929,209.555550066532 166.2222174984929,209.92592043036143 165.8518471346635,211.0370315218496 165.8518471346635,211.407401885679 165.8518471346635,211.7777722495084 165.4814767708341,212.51851297716718 165.4814767708341,212.88888334099656 165.11110640700468,212.88888334099656 165.11110640700468,213.259253704826 165.11110640700468,213.62962406865537 164.74073604317533,213.99999443248475 164.74073604317533,214.37036479631416 164.74073604317533,214.74073516014354 164.74073604317533,215.48147588780233 164.37036567934592,215.85184625163174 164.37036567934592,216.22221661546112 164.37036567934592,216.59258697929056 164.37036567934592,216.96295734311994 163.99999531551651,217.3333277069493 163.6296249516871,217.3333277069493 163.6296249516871,217.70369807077867 163.25925458785775,217.70369807077867 163.25925458785775,218.4444387984375 163.25925458785775,218.8148091622669 163.25925458785775,218.8148091622669 163.25925458785775,219.18517952609628 163.25925458785775,219.5555498899257 162.88888422402835,219.92592025375507 162.88888422402835,220.29629061758448 162.88888422402835,220.29629061758448 162.88888422402835,220.66666098141386 162.88888422402835,221.0370313452433 162.88888422402835,221.40740170907267 162.51851386019894,222.1481424367314 162.14814349636953,222.51851280056084 162.14814349636953,222.88888316439022 " style="color: rgb(255, 255, 101);" class="" stroke-opacity="1" fill-opacity="1"/><polyline fill="none" stroke="#f2d42e" stroke-width="3" stroke-linejoin="round" stroke-dashoffset="" fill-rule="nonzero" marker-start="" marker-mid="" marker-end="" id="svg_5" points="83.99999549984932,115.19999821186066 83.99999549984932,115.19999821186066 83.99999549984932,116.533331545194 84.66666216651595,118.533331545194 84.66666216651595,121.19999821186066 85.33332883318263,123.86666487852732 85.99999549984932,127.86666487852732 87.33332883318263,132.53333154519402 87.99999549984932,135.19999821186065 88.66666216651595,136.53333154519402 88.66666216651595,137.86666487852733 89.33332883318263,139.19999821186065 89.99999549984932,141.19999821186065 89.99999549984932,143.19999821186065 91.33332883318263,145.19999821186065 91.33332883318263,147.86666487852733 91.99999549984932,149.86666487852733 92.66666216651595,151.19999821186065 92.66666216651595,153.86666487852733 93.99999549984932,158.53333154519402 94.66666216651595,160.53333154519402 95.33332883318263,163.19999821186065 95.33332883318263,164.53333154519402 95.33332883318263,167.19999821186065 95.99999549984932,168.53333154519402 95.99999549984932,171.86666487852733 96.66666216651595,175.19999821186062 97.33332883318263,180.53333154519405 97.99999549984932,183.86666487852733 97.99999549984932,186.53333154519405 97.99999549984932,189.19999821186062 98.66666216651595,191.86666487852733 98.66666216651595,195.19999821186062 99.33332883318263,199.19999821186062 99.99999549984932,200.53333154519405 99.99999549984932,201.19999821186062 100.66666216651595,201.19999821186062 100.66666216651595,201.86666487852733 100.66666216651595,202.53333154519405 100.66666216651595,203.19999821186062 100.66666216651595,203.86666487852733 100.66666216651595,204.53333154519405 100.66666216651595,205.19999821186062 100.66666216651595,205.86666487852733 100.66666216651595,206.53333154519405 101.33332883318263,206.53333154519405 101.33332883318263,207.19999821186062 101.99999549984932,208.53333154519405 101.99999549984932,209.19999821186062 " style="color: rgb(242, 212, 46);"/><polyline fill="none" stroke="#f2d42e" stroke-width="3" stroke-linejoin="round" stroke-dashoffset="" fill-rule="nonzero" marker-start="" marker-mid="" marker-end="" id="svg_6" points="177.99999549984932,123.19999821186066 177.99999549984932,124.533331545194 177.99999549984932,125.86666487852732 177.99999549984932,127.86666487852732 177.33332883318266,131.86666487852733 175.33332883318266,137.86666487852733 173.99999549984932,142.53333154519402 172.66666216651595,148.53333154519402 170.66666216651595,155.86666487852733 169.99999549984932,159.86666487852733 167.33332883318263,167.19999821186065 166.66666216651595,171.19999821186062 164.66666216651595,175.86666487852733 163.99999549984932,180.53333154519405 161.99999549984932,184.53333154519405 160.66666216651595,190.53333154519405 159.33332883318263,193.86666487852733 159.33332883318263,196.53333154519405 157.99999549984932,199.19999821186062 156.66666216651595,201.86666487852733 156.66666216651595,204.53333154519405 156.66666216651595,205.86666487852733 156.66666216651595,207.19999821186062 156.66666216651595,207.86666487852733 156.66666216651595,208.53333154519405 " style="color: rgb(242, 212, 46);"/><polyline fill="none" stroke="#f2d42e" stroke-width="3" stroke-linejoin="round" stroke-dashoffset="" fill-rule="nonzero" marker-start="" marker-mid="" marker-end="" id="svg_7" points="111.33332883318263,115.19999821186066 111.33332883318263,116.533331545194 111.99999549984932,119.19999821186066 113.33332883318263,122.533331545194 113.99999549984932,127.19999821186066 115.33332883318263,129.86666487852733 115.99999549984932,137.86666487852733 116.66666216651595,142.53333154519402 117.33332883318263,146.53333154519402 118.66666216651595,153.86666487852733 119.33332883318263,159.19999821186065 119.99999549984932,162.53333154519402 120.66666216651595,167.19999821186065 121.33332883318263,169.86666487852733 121.33332883318263,173.19999821186062 121.33332883318263,175.86666487852733 121.33332883318263,179.19999821186062 121.33332883318263,183.19999821186062 121.33332883318263,186.53333154519405 121.33332883318263,191.19999821186062 121.99999549984932,193.86666487852733 121.99999549984932,195.19999821186062 121.99999549984932,196.53333154519405 121.99999549984932,197.86666487852733 121.99999549984932,199.19999821186062 121.99999549984932,201.19999821186062 122.66666216651595,202.53333154519405 122.66666216651595,203.86666487852733 " style="color: rgb(242, 212, 46);"/><polyline fill="none" stroke="#f2d42e" stroke-width="3" stroke-linejoin="round" stroke-dashoffset="" fill-rule="nonzero" marker-start="" marker-mid="" marker-end="" id="svg_8" points="152.66666216651595,113.19999821186066 151.99999549984932,113.86666487852732 151.99999549984932,114.533331545194 151.33332883318263,115.86666487852732 151.33332883318263,117.19999821186066 151.33332883318263,119.19999821186066 150.66666216651595,123.86666487852732 149.99999549984932,127.86666487852732 148.66666216651595,132.53333154519402 147.99999549984932,137.19999821186065 146.66666216651595,141.19999821186065 145.99999549984932,145.19999821186065 145.33332883318263,147.19999821186065 144.66666216651595,151.19999821186065 143.99999549984932,154.53333154519402 143.33332883318263,159.19999821186065 143.33332883318263,163.86666487852733 141.99999549984932,166.53333154519402 141.33332883318263,171.19999821186062 141.33332883318263,174.53333154519405 140.66666216651595,177.86666487852733 140.66666216651595,180.53333154519405 140.66666216651595,183.86666487852733 139.99999549984932,185.86666487852733 139.33332883318263,187.86666487852733 139.33332883318263,190.53333154519405 139.33332883318263,192.53333154519405 139.33332883318263,195.19999821186062 139.33332883318263,197.19999821186062 138.66666216651595,198.53333154519405 138.66666216651595,199.86666487852733 137.99999549984932,199.86666487852733 137.99999549984932,200.53333154519405 " style="color: rgb(242, 212, 46);" class=""/></g></svg>